<svg width="959" height="308" viewBox="0 0 959 308" fill="none" xmlns="http://www.w3.org/2000/svg">
<path d="M0.00385993 117.16L16.7639 134.45C16.7639 134.45 31.3739 133.99 36.2839 130.4C41.1939 126.81 150.034 140.1 151.014 139.17C151.994 138.24 188.924 137.26 191.874 134.32C194.824 131.38 174.554 21 174.554 21L81.0139 0C81.0139 0 -0.64614 39.5302 0.00385993 117.16Z" transform="translate(73.5332 125.465)" fill="#0B0001"/>
<path d="M2.2299 105.57L23.6399 118.76C23.6399 118.76 41.7799 130.41 48.3199 132.04C54.8599 133.67 180.7 105.57 180.7 105.57C180.7 105.57 195.41 106.51 195.41 111.27C195.41 116.03 217.31 58.6099 217.31 58.6099L161.42 0L44.7299 2.29004C44.7299 2.29004 -11.7701 71.9198 2.2299 105.57Z" transform="translate(658.978 140.166)" fill="black"/>
<path d="M0 14.1846H55.63C55.63 14.1846 61.51 6.64444 61.22 2.04444C60.93 -2.55556 4.07001 2.04444 4.07001 2.04444L0 14.1846Z" transform="translate(887.207 229.391)" fill="#CECECE"/>
<path d="M141.25 3.80444C141.25 3.80444 146.85 -4.75556 160.35 3.80444C173.85 12.3644 177.14 19.9346 171.87 23.2346C166.6 26.5346 71.45 74.6845 68.48 88.6345C65.51 102.585 0 105.175 0 105.175L14.16 79.8245C14.16 79.8245 114.58 12.3744 141.25 3.80444Z" transform="translate(276.337 2.91064)" fill="#2D2D2D"/>
<path d="M25.6103 30.6004C25.9214 31.1144 26.1281 31.6847 26.2186 32.2787C26.309 32.8726 26.2815 33.4786 26.1375 34.0619C25.9936 34.6452 25.736 35.1944 25.3796 35.6781C25.0231 36.1617 24.5749 36.57 24.0603 36.8802V36.8802C23.5464 37.1913 22.9761 37.3982 22.3821 37.4886C21.7882 37.5791 21.1822 37.5515 20.5989 37.4076C20.0156 37.2636 19.4664 37.0062 18.9828 36.6498C18.4992 36.2933 18.0906 35.8449 17.7803 35.3304L0.660323 6.94028C0.349235 6.4263 0.14257 5.856 0.0521076 5.26206C-0.0383546 4.66811 -0.0108335 4.06215 0.133132 3.47886C0.277097 2.89556 0.534668 2.34629 0.891097 1.86264C1.24753 1.379 1.69583 0.970709 2.21034 0.660496V0.660496C2.72433 0.349408 3.29459 0.14256 3.88853 0.0520976C4.48248 -0.0383647 5.08845 -0.010813 5.67174 0.133152C6.25503 0.277118 6.80421 0.534536 7.28786 0.890965C7.7715 1.24739 8.18013 1.69579 8.49034 2.2103L25.6103 30.6004Z" transform="translate(381.066 57.355)" fill="#141414"/>
<path d="M16.3483 1.011e-05C16.3483 1.011e-05 -1.03167 9.31966 0.0483267 25.8897C1.12833 42.4597 5.66832 48.9497 5.66832 48.9497L31.8483 53.5801C31.8483 53.5801 36.4883 24.2398 34.2983 15.8198C32.1083 7.39983 27.3683 -0.00998989 16.3483 1.011e-05Z" transform="translate(553.519 30.4956)" fill="#2D2D2D"/>
<path d="M0 21.1256C0 21.1256 1.28002 7.74591 4.90002 5.44591C8.52002 3.14591 72.73 0.505873 103.68 2.15587C134.63 3.80587 230.77 -6.07434 253.82 6.43566C276.87 18.9457 9.91 27.9156 0 21.1256Z" transform="translate(562.827 58.5698)" fill="#2D2D2D"/>
<path d="M0 12.4799C0 12.4799 7.9 5.57015 12.84 6.22015C17.78 6.87015 40.19 -4.24001 51.84 1.80999C63.49 7.85999 33.23 25.9701 33.23 25.9701L0 12.4799Z" transform="translate(243.077 72.6055)" fill="#2D2D2D"/>
<path d="M0 87.9102C0 87.9102 89.89 17.78 145.2 0C145.2 0 152.77 4.28016 150.8 6.91016C148.83 9.54016 108.66 19.7499 20.74 83.6299C20.74 83.6299 147.83 79.6303 294.02 75.0703C440.21 70.5103 553.02 53.3 554.23 67.48C555.44 81.66 1.32 98.1202 0 87.9102Z" transform="translate(276.337 0.465332)" fill="#C2C0C1"/>
<path d="M47.042 0.146439C47.042 0.146439 56.262 13.6465 56.592 19.2465C56.922 24.8465 51.662 47.1365 50.012 49.2465C35.522 67.3565 0.0120206 42.3366 0.0120206 41.3466C0.0120206 40.3566 -2.02795 -2.82356 47.042 0.146439Z" transform="translate(880.235 81.3188)" fill="#9D5C62"/>
<path d="M89.7139 192.64C89.7139 192.64 73.5839 77.3999 170.714 77.3999C267.844 77.3999 257.964 193.96 257.964 193.96L682.044 191.66C682.044 191.66 673.154 82.6597 767.984 82.6597C862.814 82.6597 851.614 187.37 851.614 187.37L915.824 176.18C915.824 176.18 940.824 176.18 953.684 146.18C953.684 146.18 958.954 146.84 957.964 139.59C956.974 132.34 954.674 131.69 954.674 131.69L955.994 98.77C955.994 98.77 939.864 87.8999 939.204 84.6099C938.544 81.3199 931.304 58.9297 931.304 58.9297C931.304 58.9297 909.244 63.2097 906.614 60.9297C903.984 58.6497 888.174 37.9297 889.824 31.9297C891.474 25.9297 929.664 20.4097 929.664 20.4097C929.664 20.4097 937.564 10.8597 933.944 6.90967C930.324 2.95967 925.714 14.81 825.614 0C825.614 0 589.534 12.1797 571.424 12.1797C553.314 12.1797 293.204 23.0499 277.724 19.4199C262.244 15.7899 237.224 11.52 237.224 11.52C237.224 11.52 60.0839 29.2999 21.8939 73.4199C21.8939 73.4199 7.73387 87.2498 6.41387 126.76C6.41387 126.76 1.14387 132.36 3.41387 133.01C5.68387 133.66 6.70387 140.91 7.69387 144.53C8.68387 148.15 7.69387 160.33 7.69387 160.33C7.69387 160.33 -3.49614 174.82 1.11386 178.77C5.72386 182.72 31.1039 190.99 89.7139 192.64Z" transform="translate(0.59375 67.2856)" fill="#A80E16"/>
<path d="M45.4368 20.5579C45.4368 20.5579 55.3168 2.44779 37.8668 0.147793C20.4168 -2.15221 0.656813 23.1482 0.00681253 23.5282C-0.643187 23.9082 45.4368 20.5579 45.4368 20.5579Z" transform="translate(676.061 43.7773)" fill="#2D2D2D"/>
<path d="M0.0135617 27.9613C0.0135617 27.9613 -1.24644 8.71123 20.5236 4.86123C42.2936 1.01123 65.2336 -2.36869 66.4136 2.19131C67.5936 6.75131 45.4136 32.361 28.3036 32.831C11.1936 33.301 16.5936 28.7411 12.3036 28.4311C8.01356 28.1211 0.563562 30.4813 0.0135617 27.9613Z" transform="translate(19.7939 130.034)" fill="#AFB3B6"/>
<path d="M5.24244 12.1676C5.24244 12.1676 3.24244 3.99778 5.63244 2.34778C8.02244 0.697783 24.8024 -2.21249 28.1824 2.81751C31.5624 7.84751 38.2424 19.3977 38.1824 25.9977C38.1224 32.5977 37.7924 36.5277 32.1324 35.9977C26.4724 35.4677 8.13244 37.2578 6.99244 32.3878C5.85244 27.5178 8.48244 20.3877 7.46244 18.0377C7.46244 18.0377 1.22243 18.9477 0.542433 17.5377C-0.137567 16.1277 -0.397564 12.5378 1.09244 12.3478C2.58244 12.1578 5.24244 12.1676 5.24244 12.1676Z" transform="translate(8.9043 201.858)" fill="#0B0001"/>
<path d="M18.29 2.29004C18.29 2.89738 18.0487 3.47972 17.6193 3.90918C17.1898 4.33864 16.6073 4.58008 16 4.58008H2.29001C1.68266 4.58008 1.10017 4.33864 0.670715 3.90918C0.241257 3.47972 0 2.89738 0 2.29004V2.29004C0 1.68269 0.241257 1.10036 0.670715 0.670898C1.10017 0.24144 1.68266 0 2.29001 0H16.01C16.3107 0 16.6085 0.0592331 16.8864 0.174316C17.1642 0.2894 17.4166 0.458252 17.6293 0.670898C17.8419 0.883545 18.0106 1.13574 18.1257 1.41357C18.2408 1.69141 18.3 1.98931 18.3 2.29004H18.29Z" transform="translate(254.367 125.465)" fill="#AFB3B6"/>
<path d="M33.9101 10.71C33.9101 13.5398 32.7859 16.2539 30.7849 18.2549C28.7839 20.2559 26.0699 21.3799 23.2401 21.3799H10.6701C7.8402 21.3799 5.12627 20.2559 3.12526 18.2549C1.12424 16.2539 7.49769e-05 13.5398 7.49769e-05 10.71C-0.00519054 9.30539 0.266935 7.91342 0.800795 6.61426C1.33465 5.31509 2.11977 4.1342 3.1111 3.13916C4.10242 2.14412 5.28043 1.35464 6.57759 0.815918C7.87475 0.277201 9.26548 -9.86953e-06 10.6701 2.63753e-10H23.2401C26.0699 2.63753e-10 28.7839 1.12399 30.7849 3.125C32.7859 5.12601 33.9101 7.84006 33.9101 10.6699V10.71Z" transform="translate(528.697 112.085)" fill="#960F23"/>
<path d="M49.53 3.81006C49.53 4.82053 49.1286 5.78939 48.4141 6.50391C47.6995 7.21842 46.7304 7.62012 45.72 7.62012H3.81C2.79952 7.62012 1.83042 7.21842 1.11591 6.50391C0.401392 5.78939 0 4.82053 0 3.81006C0 2.79958 0.401392 1.83024 1.11591 1.11572C1.83042 0.401209 2.79952 0 3.81 0H45.74C46.7505 0 47.7196 0.401209 48.4341 1.11572C49.1486 1.83024 49.55 2.79958 49.55 3.81006H49.53Z" transform="translate(521.467 118.605)" fill="#890E20"/>
<path d="M52.329 0C52.329 0 25.479 10.17 11.889 12C-1.701 13.83 -0.821016 16.6403 1.05898 18.3003C2.93898 19.9603 33.059 21.1101 52.359 6.06006L52.329 0Z" transform="translate(902.878 192.905)" fill="#9B0E1C"/>
<path d="M0 7.28144C0 7.28144 73.81 -4.7185 73.81 2.0915C73.81 8.9015 0.330017 19.6618 0.330017 19.6618C0.330017 19.6618 0.56 10.7114 0 7.28144Z" transform="translate(852.137 223.084)" fill="#AF1423"/>
<path d="M0.119995 39.3901L0 38.6401C0.69 38.5301 69.18 27.9499 78.21 25.9399C86.94 23.9999 85.49 0.24 85.47 0H86.23C86.3 1 87.73 24.6602 78.37 26.7402C69.33 28.7502 0.809995 39.3301 0.119995 39.3901Z" transform="translate(822.657 128.695)" fill="#6D030B"/>
<path d="M0 33.0308C0 33.0308 3 32.541 8.64 31.711C11.46 31.291 14.93 30.7608 19.02 30.2008C23.11 29.6408 27.81 28.9511 33.08 28.2711L50.56 26.0406C53.74 25.6206 57.05 25.2509 60.49 24.8609L71.17 23.6407C74.85 23.2307 78.65 22.7709 82.56 22.3609L94.64 21.1407L107.36 19.8707C109.53 19.6607 111.73 19.421 113.95 19.231L120.69 18.6607L149.04 16.2808L179.42 14.2808C182.03 14.1108 184.65 13.9311 187.3 13.7711L195.3 13.3409L211.55 12.5211C222.503 11.9877 233.683 11.4908 245.09 11.0308L279.77 9.64071L297.45 8.96102L315.31 8.32089C339.22 7.48089 363.52 6.69098 387.82 5.92098C412.12 5.15098 436.42 4.51069 460.34 3.87069C484.26 3.23069 507.8 2.70077 530.59 2.20077C553.38 1.70077 575.4 1.30102 596.29 0.961022C617.18 0.621022 636.93 0.390788 655.16 0.220788C673.39 0.0507877 690.11 -0.00893887 704.92 0.00106113C719.73 0.0110611 732.65 0.120885 743.29 0.320885C745.95 0.320885 748.46 0.401022 750.83 0.461022L757.48 0.650963L760.48 0.740807L763.22 0.850671L767.98 1.05087C769.4 1.05087 770.66 1.18083 771.74 1.26083L774.47 1.441L776.7 1.58065L774.47 1.48104L771.74 1.36092C770.66 1.36092 769.4 1.25104 767.97 1.23104C762.28 1.09104 753.97 0.981061 743.29 1.00106C732.61 1.02106 719.75 1.13063 704.94 1.31063L681.35 1.691L655.2 2.18075L596.35 3.51083L530.67 5.20077L460.44 7.20077C436.52 7.88077 412.23 8.61069 387.94 9.37069C363.65 10.1307 339.35 10.861 315.44 11.651L279.9 12.8409L245.19 14.0308L211.66 15.3209L195.42 16.0011L187.42 16.3707C184.78 16.5007 182.16 16.6706 179.55 16.8106L149.19 18.5509L120.84 20.6007L114.09 21.0308C111.87 21.2008 109.67 21.4109 107.5 21.5909L94.78 22.7008L82.69 23.7008C78.77 24.0508 74.97 24.4609 71.29 24.8209L60.6 25.8809C57.16 26.2309 53.84 26.5309 50.65 26.8809L33.15 28.8009C30.51 29.0809 28.01 29.4107 25.66 29.6807L19.05 30.461C14.95 30.931 11.46 31.3811 8.64 31.7511C3.01 32.5611 0 33.0308 0 33.0308Z" transform="translate(92.1172 97.0547)" fill="#AF1423"/>
<path d="M1.75321 38.2065C1.75321 38.2065 22.3832 24.5565 89.8132 20.2065C157.243 15.8565 414.423 -21.3134 419.563 17.5566L253.833 27.8266C253.833 27.8266 -5.62679 50.4267 0.0932053 41.4267" transform="translate(261.764 181.659)" fill="#AF1423"/>
<path d="M0 0C0 0 2.43 8.47984 1.47 10.3398C0.510001 12.1998 -0.19999 18.47 8.26001 20.52C16.72 22.57 19.79 16.9999 19.53 14.8799C19.27 12.7599 17.42 6.99994 18.63 4.43994C19.84 1.87994 0 0 0 0Z" transform="translate(331.037 80.0054)" fill="#231A1D"/>
<path d="M38.4075 17.3858C38.3544 15.5005 38.0655 13.6295 37.5475 11.816C33.8975 -1.264 26.5475 0.0357235 26.5475 0.0357235C26.5475 0.0357235 -1.30246 7.29572 0.0475405 21.0357C7.46754 21.0557 28.7475 20.7758 38.4075 17.3858Z" transform="translate(328.33 55.4897)" fill="#9C0D11"/>
<path d="M0 3.66016C0 3.80016 0 3.95033 0 4.09033C2 18.0903 32 13.5703 32 13.5703C34.052 11.9745 35.69 9.90861 36.776 7.54688C37.862 5.18514 38.3641 2.5965 38.24 0C28.65 3.4 7.37 3.68016 0 3.66016Z" transform="translate(328.427 72.8652)" fill="#160106"/>
<path d="M6.58344 163.48C6.45187 163.477 6.32241 163.446 6.20344 163.39C3.44344 162.14 1.44343 146.86 0.573435 120.39C-0.726565 80.9501 -0.916558 13.8901 12.3934 7.89014L12.7034 8.58008C3.28344 12.8301 -0.856556 53.5799 1.33344 120.36C2.54344 157.05 5.53344 162.01 6.42344 162.66C6.46865 162.699 6.52435 162.723 6.58344 162.73V162.73L6.66343 162.67H6.82343C8.70343 162.67 194.823 160.36 238.473 158.61C274.863 157.15 278.143 147.14 281.313 137.46C281.942 135.386 282.714 133.358 283.623 131.39C287.433 123.59 296.503 87.2898 303.123 60.7798C306.183 48.5198 308.833 37.9301 310.273 32.8901C314.743 17.2601 301.573 0.63998 301.433 0.47998L302.023 0C302.163 0.17 315.573 17.0901 311.023 33.1001C309.583 38.1001 306.943 48.71 303.883 60.96C297.253 87.5 288.173 123.84 284.323 131.72C283.429 133.665 282.671 135.67 282.053 137.72C278.803 147.65 275.443 157.91 238.523 159.4C195.223 161.14 12.1034 163.4 6.95344 163.46C6.83357 163.497 6.70657 163.504 6.58344 163.48V163.48Z" transform="translate(275.384 79.1455)" fill="#6D030B"/>
<path d="M75.85 151.7C117.741 151.7 151.7 117.741 151.7 75.8499C151.7 33.9591 117.741 0 75.85 0C33.9592 0 0 33.9591 0 75.8499C0 117.741 33.9592 151.7 75.85 151.7Z" transform="translate(97.7773 155.855)" fill="#27262C"/>
<path d="M57.3 114.6C88.9459 114.6 114.6 88.946 114.6 57.3C114.6 25.6541 88.9459 0 57.3 0C25.6541 0 0 25.6541 0 57.3C0 88.946 25.6541 114.6 57.3 114.6Z" transform="translate(116.507 174.405)" fill="#C3BFBE"/>
<path d="M0.51617 7.71973L13.8062 22.7896C13.8062 22.7896 16.0962 26.4097 19.2262 26.4097C21.2907 26.2823 23.2306 25.3787 24.6562 23.8799L38.5162 7.71973C38.5162 7.71973 40.4462 5.42986 38.5162 3.85986C36.5862 2.28986 29.8262 0 20.4262 0C11.0262 0 -2.85383 2.50973 0.51617 7.71973Z" transform="translate(153.401 185.576)" fill="#27262C"/>
<path d="M0.516487 18.6099L13.8065 3.60986C13.8065 3.60986 16.0965 0 19.2365 0C21.3005 0.129325 23.2397 1.03264 24.6665 2.52979L38.4965 18.6099C38.4965 18.6099 40.4265 20.8997 38.4965 22.4697C36.5665 24.0397 29.7965 26.3301 20.4065 26.3301C11.0165 26.3301 -2.85351 23.8299 0.516487 18.6099Z" transform="translate(153.4 251.476)" fill="#27262C"/>
<path d="M18.69 0.519016L3.62 13.7788C3.62 13.7788 0 16.0687 0 19.1987C0.126392 21.2635 1.0304 23.2039 2.53 24.6289L18.69 38.499C18.69 38.499 20.98 40.429 22.54 38.499C24.1 36.569 26.4 29.7987 26.4 20.4087C26.4 11.0187 23.88 -2.86098 18.69 0.519016Z" transform="translate(193.997 212.037)" fill="#27262C"/>
<path d="M7.70999 0.519016L22.78 13.7788C22.78 13.7788 26.4 16.0687 26.4 19.1987C26.2726 21.2632 25.3688 23.2033 23.87 24.6289L7.72 38.499C7.72 38.499 5.43 40.429 3.86 38.499C2.29 36.569 0 29.7987 0 20.4087C0 11.0187 2.52999 -2.86098 7.70999 0.519016Z" transform="translate(128.147 212.037)" fill="#27262C"/>
<path d="M75.85 151.7C117.741 151.7 151.7 117.741 151.7 75.8499C151.7 33.9591 117.741 0 75.85 0C33.9592 0 0 33.9591 0 75.8499C0 117.741 33.9592 151.7 75.85 151.7Z" transform="translate(691.787 155.855)" fill="#27262C"/>
<path d="M57.3 114.6C88.9459 114.6 114.6 88.946 114.6 57.3C114.6 25.6541 88.9459 0 57.3 0C25.6541 0 0 25.6541 0 57.3C0 88.946 25.6541 114.6 57.3 114.6Z" transform="translate(710.518 174.405)" fill="#C3BFBE"/>
<path d="M0.518993 7.71973L13.799 22.7896C13.799 22.7896 16.089 26.4097 19.219 26.4097C21.2836 26.2823 23.2234 25.3787 24.649 23.8799L38.509 7.71973C38.509 7.71973 40.439 5.42986 38.509 3.85986C36.579 2.28986 29.819 0 20.419 0C11.019 0 -2.86101 2.50973 0.518993 7.71973Z" transform="translate(747.408 185.576)" fill="#27262C"/>
<path d="M0.519312 18.6099L13.7993 3.60986C13.7993 3.60986 16.0993 0 19.2293 0C21.2934 0.129325 23.2326 1.03264 24.6593 2.52979L38.4893 18.6099C38.4893 18.6099 40.4193 20.8997 38.4893 22.4697C36.5593 24.0397 29.7893 26.3301 20.3993 26.3301C11.0093 26.3301 -2.86069 23.8299 0.519312 18.6099Z" transform="translate(747.408 251.476)" fill="#27262C"/>
<path d="M18.69 0.519016L3.62 13.7788C3.62 13.7788 0 16.0687 0 19.1987C0.126392 21.2635 1.03043 23.2039 2.53003 24.6289L18.69 38.499C18.69 38.499 20.98 40.429 22.54 38.499C24.1 36.569 26.4 29.7987 26.4 20.4087C26.4 11.0187 23.87 -2.86098 18.69 0.519016Z" transform="translate(788.007 212.037)" fill="#27262C"/>
<path d="M7.70996 0.519016L22.78 13.7788C22.78 13.7788 26.4 16.0687 26.4 19.1987C26.2726 21.2632 25.3688 23.2033 23.87 24.6289L7.71997 38.499C7.71997 38.499 5.42999 40.429 3.85999 38.499C2.28999 36.569 0 29.7987 0 20.4087C0 11.0187 2.51996 -2.86098 7.70996 0.519016Z" transform="translate(722.157 212.037)" fill="#27262C"/>
</svg>
