<svg width="990" height="298" viewBox="0 0 990 298" fill="none" xmlns="http://www.w3.org/2000/svg">
<path d="M0 12.4589C0 12.4589 14 1.45891 17.36 0.708907C20.72 -0.0410931 23.49 -0.730937 23.49 1.61906C23.49 3.96906 17.62 12.7189 18.4 15.9789C19.18 19.2389 0 12.4589 0 12.4589Z" transform="translate(684.007 0.556396)" fill="#D6DBE1"/>
<path d="M806.83 133.21L787.83 150.21L758.2 152.14L614.86 149.39L188.86 145.58L177.56 149.39C177.56 149.39 160.4 148.92 153.4 149.39C146.4 149.86 46.26 152.12 46.26 152.12C46.26 152.12 25.26 153.17 18.83 157.51L0 121.6L15.51 35.3899C15.51 35.3899 65.58 13.7198 69.51 13.2698C73.44 12.8198 149.97 10.6199 149.97 10.6199L280.9 23.21L674.24 0L796.24 3.09985L806.83 133.21Z" transform="translate(73.8477 111.696)" fill="black"/>
<path d="M64.95 0.528683C64.95 0.528683 62.2199 8.00868 62.6899 10.0287C63.1599 12.0487 68.39 15.1387 68.39 18.5787C68.39 22.0187 62.69 32.8287 56.87 33.5787C56.87 33.5787 54.97 43.0787 48.56 43.0787C42.15 43.0787 0 44.3888 0 44.3888C0 44.3888 45.6 -5.65132 64.95 0.528683Z" transform="translate(913.098 210.557)" fill="#333439"/>
<path d="M0 86.2655C0 86.2655 22.33 66.4653 44.16 56.3153C65.99 46.1653 141.22 5.16525 169.55 0.535251C197.88 -4.09475 190.61 22.8153 190.61 23.5353C190.61 24.2553 6.6 128.655 0 86.2655Z" transform="translate(270.268 9.18018)" fill="#7E909E"/>
<path d="M3.82016 0H46.2902L49.5902 2C49.5902 2 64.3102 12.9999 52.8902 37.8599C41.4702 62.7199 -15.0398 35.67 3.82016 0Z" transform="translate(911.807 103.696)" fill="#B80201"/>
<path d="M0.361522 0.76001L20.1615 0C20.1615 0 116.291 22.8401 176.761 54.3101C237.231 85.7801 140.472 72.3101 140.472 72.3101C140.472 72.3101 -8.26848 17.76 0.361522 0.76001Z" transform="translate(712.546 20.5754)" fill="#7E909E"/>
<path d="M0 1.77778C0 1.77778 13 -2.22222 17.8 1.77778C19.1632 2.8105 20.1997 4.2145 20.785 5.82148C21.3703 7.42846 21.4797 9.17026 21.1 10.8378L0 1.77778Z" transform="translate(261.348 84.6077)" fill="#060A0B"/>
<path d="M92.7072 268.694C92.7072 268.694 1.27722 262.114 0.0172242 245.614C0.0172242 245.614 -0.512779 242.064 4.30722 239.784C4.30722 239.784 1.24722 186.494 8.60722 169.994C15.9672 153.494 15.4572 133.194 53.0172 119.234C90.5772 105.274 180.427 88.774 263.427 85.734C263.427 85.734 283.427 92.5841 294.137 92.3341C294.137 92.3341 413.427 20.254 442.617 18.474C442.617 18.474 434.497 12.8941 436.527 10.3541C438.557 7.81413 507.847 -4.11599 595.407 1.47401C682.967 7.06401 732.717 20.004 732.717 20.004C732.717 20.004 719.777 26.3541 721.547 27.3641C723.317 28.3741 856.547 72.5441 856.547 72.5441C856.547 72.5441 876.087 76.6041 886.747 72.0341C886.747 72.0341 910.347 78.3842 916.947 78.8842C923.547 79.3842 957.047 78.124 957.557 82.184C958.067 86.244 957.047 93.6042 958.827 95.1242C960.607 96.6442 969.737 110.864 966.947 115.684L961.367 105.024C961.367 105.024 914.667 107.314 913.907 113.144C913.147 118.974 917.967 134.214 920.507 137.004C923.047 139.794 966.197 138.004 966.197 138.004C966.197 138.004 969.197 158.564 973.307 161.354C977.417 164.144 989.547 166.434 989.307 173.794C989.067 181.154 990.067 211.614 977.887 213.644C977.887 213.644 963.677 211.864 954.287 223.034C944.897 234.204 934.207 249.954 914.937 254.514C895.667 259.074 861.637 261.364 861.637 261.364C861.637 261.364 870.267 151.174 778.897 148.634C687.527 146.094 691.337 260.514 691.337 260.514H251.447C251.447 260.514 274.587 146.374 171.287 142.314C67.9872 138.254 92.7072 268.694 92.7072 268.694Z" transform="translate(0 0.571289)" fill="#D6DBE1"/>
<path d="M351.95 11.3852C318.53 3.38515 208.9 -5.99494 156.42 5.03506C103.94 16.0651 50.1 35.7851 0 77.5451L9.73001 77.3451C21.51 67.8051 51.32 46.0251 97.6 28.0751C158.76 4.34509 199.21 2.33504 247 5.01504C294.79 7.69504 340.92 9.01501 371 23.735C401.08 38.455 434.17 60.5051 431.83 62.8451C429.78 64.8951 295.48 70.845 262.83 72.235L428.83 68.8751C428.83 68.8751 439.19 68.525 439.19 64.185C439.19 59.845 385.37 19.4052 351.95 11.3852Z" transform="translate(316.107 15.5403)" fill="white"/>
<path d="M361.27 19.646C331.19 4.93597 285.06 3.646 237.27 0.925995C189.48 -1.794 149.03 0.256054 87.87 23.9861C41.6 41.9861 11.78 63.7161 0 73.2561L253.08 68.136C285.76 66.726 420.08 60.8061 422.08 58.7461C424.44 56.4361 391.37 34.346 361.27 19.646Z" transform="translate(325.837 19.6494)" fill="black"/>
<path d="M9.95001 53.9926C9.95001 53.9926 70.45 12.8724 117.57 4.85242C164.69 -3.16758 219.51 1.17249 219.51 1.17249C219.51 1.17249 208.51 55.6526 203.8 57.9926C199.09 60.3326 0 61.6625 0 61.6625L9.95001 53.9926Z" transform="translate(365.987 30.4329)" fill="#788D9E"/>
<path d="M7 0.192703L0 49.3226L106.61 45.6727C106.61 45.6727 117.61 46.0028 117.61 41.9928C117.61 37.9828 68.5 -3.1473 7 0.192703Z" transform="translate(607.907 33.4128)" fill="#788D9E"/>
<path d="M50.2584 21.6658C50.5542 19.7722 50.4521 17.8378 49.9584 15.9859C47.4084 6.0759 41.3684 -3.64423 26.9584 1.35577C12.5484 6.35577 10.4384 14.1958 8.5584 21.8358C8.5584 21.8358 0.728412 19.6658 0.0684116 23.1558C-0.331588 25.2558 1.06841 28.1558 3.06841 30.3558C17.8784 32.6658 38.1184 26.3158 50.2584 21.6658Z" transform="translate(344.169 59.4197)" fill="#D6DBE1"/>
<path d="M0 8.67993C1.18395 10.076 2.78071 11.06 4.56 11.49C8.56 12.15 15.56 13.5699 18.15 12.4299C20.74 11.2899 33.06 12.78 37.02 11.71C40.16 10.86 46.15 6.65 47.23 0C35.08 4.66 14.84 11.0099 0 8.67993Z" transform="translate(347.207 81.0754)" fill="#C5CBD1"/>
<path d="M17.9974 4.82397C17.9974 4.82397 6.99745 8.43389 1.93745 24.7439C-3.12255 41.0539 3.05744 37.1938 5.42744 36.4438C7.79744 35.6938 41.8974 32.214 47.1274 31.584C52.3574 30.954 51.7374 26.484 53.2274 24.114C54.7174 21.744 68.9174 5.81385 65.0574 1.70385C61.1974 -2.40615 24.3474 1.83397 17.9974 4.82397Z" transform="translate(13.2793 134.072)" fill="#788D9E"/>
<path d="M0.00618888 1.62534C0.00618888 1.62534 0.50619 26.1452 2.61619 29.7552C4.72619 33.3652 9.95619 36.9752 17.9262 37.9752C25.8962 38.9752 40.9262 40.2153 42.1962 29.8853C43.4662 19.5553 45.5562 0.135345 45.5562 0.135345C45.5562 0.135345 -0.613811 -0.664665 0.00618888 1.62534Z" transform="translate(7.37109 202.75)" fill="#040404"/>
<path d="M0 226.41V225.28L50.9 224.76C43.72 213.82 44.42 190.32 44.45 189.3C44.45 188.65 42.52 120.24 47.15 100.71C48.5429 94.881 51.0907 89.391 54.6428 84.5644C58.1949 79.7378 62.6791 75.6725 67.83 72.6096C68.29 72.3296 117.66 42.2197 131.83 34.5197C165.5 16.1797 198.06 4.74953 223.49 2.31953C260.19 -1.18047 338.98 0.319527 339.77 0.319527C342.77 0.599527 411.25 7.15969 424.49 12.7397C437.73 18.3197 483.7 46.4097 484.16 46.7397C484.83 47.0797 501.59 55.5695 502.52 61.5895C502.609 62.115 502.564 62.6543 502.389 63.1577C502.214 63.661 501.915 64.1124 501.52 64.4697C497.52 68.3797 485.79 68.2297 470.95 68.0397C464.64 67.9597 458.13 67.8796 451.6 68.1096C431.14 68.8396 337.93 71.0197 329.97 71.2097C329.958 74.4691 330.957 77.652 332.83 80.3195C333.29 80.9495 333.83 81.5897 334.3 82.2497C337.57 86.4597 341.64 91.6997 340.88 99.5097C340.73 101.1 340.56 104.18 340.32 108.45C339.27 127.45 337.08 167 330.22 183.06C321.6 203.23 316.81 210.86 305.46 216.33C294.11 221.8 273.2 224.46 258.63 224.17C244.62 223.86 2.44 226.38 0 226.41ZM300.37 1.1396C275.02 1.1396 243.22 1.57965 223.56 3.44965C198.27 5.85965 165.87 17.2497 132.33 35.5197C118.21 43.2097 68.87 73.2996 68.33 73.5996C63.3271 76.5852 58.9729 80.5426 55.5242 85.2382C52.0754 89.9339 49.6021 95.2727 48.25 100.94C43.65 120.32 45.56 188.58 45.58 189.27C45.58 189.56 44.84 214.39 52.26 224.71C124.93 223.98 248.74 222.78 258.63 222.98C273.06 223.27 293.63 220.71 304.95 215.25C315.95 209.94 320.67 202.43 329.16 182.55C335.94 166.68 338.16 127.27 339.16 108.33C339.4 104.05 339.57 100.96 339.72 99.3295C340.43 91.9695 336.72 87.1396 333.37 82.8696C332.85 82.1996 332.37 81.5496 331.88 80.8696C329.731 77.8475 328.654 74.1941 328.82 70.4897V69.9897H329.33C330.33 69.9897 430.22 67.6296 451.49 66.8796C458.04 66.6496 464.57 66.7298 470.89 66.8098C484.89 66.9898 496.98 67.1398 500.66 63.5598C500.922 63.3253 501.121 63.0277 501.236 62.6953C501.352 62.3628 501.381 62.0063 501.32 61.6596C500.62 57.1396 488.24 49.9996 483.53 47.6596C483.03 47.3496 437.08 19.2797 423.97 13.7597C410.86 8.23971 340.34 1.49963 339.63 1.42963C339.33 1.46963 322.25 1.1396 300.37 1.1396Z" transform="translate(253.147 17.1458)" fill="#040404"/>
<path d="M70.92 141.84C110.088 141.84 141.84 110.088 141.84 70.9199C141.84 31.7519 110.088 0 70.92 0C31.752 0 0 31.7519 0 70.9199C0 110.088 31.752 141.84 70.92 141.84Z" transform="translate(102.627 147.095)" fill="#27262C"/>
<path d="M53.57 107.14C83.1559 107.14 107.14 83.156 107.14 53.5701C107.14 23.9842 83.1559 0 53.57 0C23.9841 0 0 23.9842 0 53.5701C0 83.156 23.9841 107.14 53.57 107.14Z" transform="translate(120.147 164.445)" fill="#C3BFBE"/>
<path d="M0.481685 7.21997L12.8817 21.3101C12.8817 21.3101 15.0217 24.6899 17.9517 24.6899C19.8801 24.5677 21.6911 23.7213 23.0217 22.3201L36.0217 7.21997C36.0217 7.21997 37.8217 5.07986 36.0217 3.60986C34.2217 2.13986 27.8917 0 19.1117 0C10.3317 0 -2.66831 2.38997 0.481685 7.21997Z" transform="translate(154.636 174.865)" fill="#27262C"/>
<path d="M0.481685 17.4702L12.8817 3.38013C12.8817 3.38013 15.0317 0 17.9517 0C19.8799 0.12322 21.6905 0.969734 23.0217 2.37012L36.0217 17.4702C36.0217 17.4702 37.8217 19.6101 36.0217 21.0801C34.2217 22.5501 27.8917 24.6902 19.1117 24.6902C10.3317 24.6902 -2.66831 22.3202 0.481685 17.4702Z" transform="translate(154.636 236.465)" fill="#27262C"/>
<path d="M17.47 0.476672L3.37999 12.8766C3.37999 12.8766 0 15.0166 0 17.9466C0.121268 19.8753 0.967992 21.6867 2.37001 23.0167L17.47 36.0167C17.47 36.0167 19.61 37.8167 21.07 36.0167C22.53 34.2167 24.68 27.8866 24.68 19.1066C24.68 10.3266 22.32 -2.65333 17.47 0.476672Z" transform="translate(192.598 199.609)" fill="#27262C"/>
<path d="M7.22 0.476672L21.31 12.8766C21.31 12.8766 24.69 15.0166 24.69 17.9466C24.5687 19.8753 23.722 21.6867 22.32 23.0167L7.22 36.0167C7.22 36.0167 5.08 37.8167 3.61 36.0167C2.14 34.2167 0 27.8866 0 19.1066C0 10.3266 2.4 -2.65333 7.22 0.476672Z" transform="translate(130.987 199.609)" fill="#27262C"/>
<path d="M70.92 141.84C110.088 141.84 141.84 110.088 141.84 70.9199C141.84 31.7519 110.088 0 70.92 0C31.752 0 0 31.7519 0 70.9199C0 110.088 31.752 141.84 70.92 141.84Z" transform="translate(707.357 155.585)" fill="#27262C"/>
<path d="M53.57 107.14C83.1559 107.14 107.14 83.156 107.14 53.5701C107.14 23.9842 83.1559 0 53.57 0C23.9841 0 0 23.9842 0 53.5701C0 83.156 23.9841 107.14 53.57 107.14Z" transform="translate(724.877 172.935)" fill="#C3BFBE"/>
<path d="M0.485425 7.22998L12.8454 21.3201C12.8454 21.3201 14.9854 24.7 17.9154 24.7C19.8439 24.5777 21.6548 23.7313 22.9854 22.3301L35.9854 7.21997C35.9854 7.21997 37.7854 5.07986 35.9854 3.60986C34.1854 2.13986 27.8554 0 19.0754 0C10.2954 0 -2.67458 2.37998 0.485425 7.22998Z" transform="translate(759.361 183.365)" fill="#27262C"/>
<path d="M0.483893 17.4702L12.8839 3.38013C12.8839 3.38013 15.0239 0 17.9539 0C19.8856 0.12075 21.7002 0.96746 23.0339 2.37012L36.0339 17.4802C36.0339 17.4802 37.8439 19.6201 36.0339 21.0901C34.2239 22.5601 27.9039 24.7002 19.1239 24.7002C10.3439 24.7002 -2.67611 22.3102 0.483893 17.4702Z" transform="translate(759.363 244.965)" fill="#27262C"/>
<path d="M17.47 0.484203L3.38 12.8841C3.38 12.8841 0 15.0242 0 17.9542C0.121268 19.8829 0.967977 21.6943 2.37 23.0242L17.47 36.0242C17.47 36.0242 19.61 37.8242 21.07 36.0242C22.53 34.2242 24.68 27.8941 24.68 19.1141C24.68 10.3341 22.31 -2.6758 17.47 0.484203Z" transform="translate(797.327 208.121)" fill="#27262C"/>
<path d="M7.22003 0.484803L21.31 12.8847C21.31 12.8847 24.69 15.0248 24.69 17.9548C24.5687 19.8835 23.722 21.6949 22.32 23.0248L7.22003 36.0248C7.22003 36.0248 5.08005 37.8248 3.61005 36.0248C2.14005 34.2248 0 27.8947 0 19.1047C0 10.3147 2.37003 -2.6752 7.22003 0.484803Z" transform="translate(735.747 208.121)" fill="#27262C"/>
</svg>
