<svg width="979" height="388" viewBox="0 0 979 388" fill="none" xmlns="http://www.w3.org/2000/svg">
<path d="M0 16.4179C0 16.4179 8.62997 -1.13211 32.72 0.0578928C32.72 0.0578928 40.16 8.9779 31.53 18.4979C22.9 28.0179 0 16.4179 0 16.4179Z" transform="translate(774.277 0.807617)" fill="#100607"/>
<path d="M974.013 207.05C973.594 205.674 972.861 204.414 971.873 203.37C964.443 196.63 963.343 190.26 963.343 190.26V155.05C963.343 145.56 941.533 146.24 917.863 139.36C894.193 132.48 883.393 114.05 883.803 107.88C884.213 101.71 896.743 97.88 927.283 99.76C957.823 101.64 953.153 96.87 953.153 96.87C936.223 87.24 941.453 94.81 909.673 81.87C877.893 68.93 849.393 39.63 849.393 39.63C849.393 39.63 891.493 22.02 885.853 16.24C880.213 10.46 758.013 0 645.573 0C533.133 0 492.283 4.13 466.273 7.84C440.263 11.55 352.473 46.1 317.793 73.48C283.113 100.86 241.973 113.48 235.913 116.14C229.853 118.8 179.913 124.53 116.613 135.96C53.3129 147.39 27.993 167.61 27.993 167.61C27.993 167.61 10.103 184.13 2.26303 224.86C1.29582 229.862 0.627969 234.918 0.263031 240C-1.83697 269.28 9.2629 280.52 11.3829 284.45C13.8629 288.99 7.54282 293.81 7.54282 293.81C0.662817 297.94 0.952973 301.12 0.952973 301.12C0.542973 314.33 86.443 325.5 86.443 325.5C86.443 325.5 72.9828 195.28 180.073 198.26C287.163 201.24 277.953 321.17 277.953 321.17L290.443 320.98C294.583 317.98 302.383 314.74 317.073 313.21C349.443 309.83 660.463 300.39 673.443 303.21C679.293 304.5 682.173 309.67 683.583 314.95L696.943 314.75C696.943 314.75 690.573 176.22 797.223 185.15C903.873 194.08 889.893 299.15 889.893 299.15C897.323 294.61 928.423 287.45 938.603 284.98C948.783 282.51 966.403 263.1 971.903 260.76C976.753 258.69 978.823 220.32 974.013 207.05Z" transform="translate(0.814453 11.0356)" fill="#353544"/>
<path d="M2.78797 148.99C3.28797 150.66 23.4979 169.19 23.4979 169.19C23.4979 169.19 45.1279 169.68 50.9479 166.12C56.7679 162.56 194.478 152.87 194.478 152.87C194.478 152.87 214.128 156.39 219.178 152.2C224.228 148.01 243.988 60.45 243.988 60.45L102.728 0C102.728 0 -19.842 73.34 2.78797 148.99Z" transform="translate(674.219 156.636)" fill="#040402"/>
<path d="M40.0051 1.33333C40.0051 1.33333 46.0051 -1.66667 47.0051 1.33333C48.0051 4.33333 40.005 15.7833 75.655 41.7033C111.305 67.6233 107.095 80.7933 107.095 80.7933L4.26512 54.0233C4.26512 54.0233 -18.2049 7.71333 40.0051 1.33333Z" transform="translate(840.012 27.8823)" fill="#7C82A2"/>
<path d="M81.5898 1.67694C81.5898 1.67694 99.86 1.67693 103.26 11.4469C106.66 21.2169 105.81 61.1669 103.26 64.1369C100.71 67.1069 0 28.0169 0 28.0169C0 28.0169 21.2498 -8.09306 81.5898 1.67694Z" transform="translate(858.768 104.879)" fill="#AE222F"/>
<path d="M0 109.21C0 109.21 9.09008 139.67 14.0801 140.44C19.0701 141.21 33.6201 137.33 38.1501 136.69C42.6801 136.05 168.75 159.11 168.75 159.11C168.75 159.11 198.81 148.67 209.48 132.34C220.15 116.01 229.85 19.68 229.85 19.68L114.92 0L61.1001 9.70001L21.3401 45.9L0 109.21Z" transform="translate(73.1572 196.085)" fill="#040402"/>
<path d="M1 129.899L0 128.439C0.17 128.329 17.3099 116.979 20.8799 106.789C21.1899 105.909 21.6299 104.359 22.1799 102.409C25.1799 91.7788 32.2399 66.8888 47.9099 44.4088C67.4999 16.2588 93.6599 1.40877 125.69 0.108772C168.21 -1.55123 194.91 16.1088 209.82 31.2288C219.246 40.7151 226.771 51.9162 231.99 64.2288C264.38 64.9188 312.64 63.0988 314.4 55.2288L316.11 55.6088C315.68 57.5388 314.36 63.4288 272.4 65.4188C251.96 66.4188 231.57 65.9487 231.4 65.9487H230.8L230.6 65.3787C230.54 65.2087 224.47 48.4987 208.6 32.3787C193.95 17.5487 167.68 0.208752 125.84 1.83875C76.6898 3.75875 42.41 37.7487 23.95 102.889C23.37 104.949 22.9499 106.429 22.6199 107.369C18.7999 118.109 1.73 129.419 1 129.899Z" transform="translate(662.268 185.117)" fill="#080705"/>
<path d="M81.7998 229.72C81.7998 229.72 109.12 164.97 174.69 173.44C240.26 181.91 300.36 229.72 300.36 229.72C300.36 229.72 300.36 261.14 443.79 251.58C587.22 242.02 654.13 235.18 654.13 235.18C654.13 235.18 674.62 226.98 607.69 228.35C540.76 229.72 356.34 228.35 356.34 228.35C356.34 228.35 300.34 216.59 304.43 186.27C308.52 155.95 441.03 184.97 527.09 175.92C613.15 166.87 716.97 185.92 716.97 185.92C716.97 185.92 762.05 142.56 807.13 156.08C852.21 169.6 899.13 213.31 905.06 213.31C909.87 213.31 957.32 218.48 973.72 207.05C973.301 205.674 972.568 204.414 971.58 203.37C964.15 196.63 963.05 190.26 963.05 190.26V155.05C963.05 145.56 941.24 146.24 917.57 139.36C893.9 132.48 883.13 114.05 883.54 107.88C883.95 101.71 896.48 97.88 927.02 99.76C957.56 101.64 952.89 96.87 952.89 96.87C935.96 87.24 941.19 94.81 909.41 81.87C877.63 68.93 849.13 39.63 849.13 39.63C849.13 39.63 891.23 22.02 885.59 16.24C879.95 10.46 757.75 0 645.31 0C532.87 0 492.02 4.13 466.01 7.84C440 11.55 352.21 46.1 317.53 73.48C282.85 100.86 241.71 113.48 235.65 116.14C229.59 118.8 179.65 124.53 116.35 135.96C53.0499 147.39 27.73 167.61 27.73 167.61C27.73 167.61 9.84 184.13 2 224.86C1.03279 229.862 0.364938 234.918 0 240C16.63 233.66 54.7598 221.4 81.7998 229.72Z" transform="translate(1.07715 11.0356)" fill="#3A394B"/>
<path d="M905.373 59.8424C899.483 59.8424 852.523 16.1323 807.443 2.61231C762.363 -10.9077 717.283 32.4523 717.283 32.4523C717.283 32.4523 613.463 13.3923 527.403 22.4523C441.343 31.5123 308.843 2.45232 304.743 32.8023C300.643 63.1523 356.653 74.8823 356.653 74.8823C356.653 74.8823 541.063 76.2523 608.003 74.8823C674.943 73.5123 654.443 81.7123 654.443 81.7123C654.443 81.7123 587.503 88.5423 444.073 98.1023C300.643 107.662 300.643 76.2423 300.643 76.2423C300.643 76.2423 240.543 28.4324 174.973 19.9624C109.403 11.4924 82.0831 76.2423 82.0831 76.2423C55.0831 67.9223 16.913 80.1923 0.263026 86.5223C-1.83697 115.802 9.26314 127.042 11.3831 130.972C13.8631 135.512 7.54306 140.332 7.54306 140.332C0.663055 144.462 0.953212 147.642 0.953212 147.642C0.543212 160.852 86.4432 172.022 86.4432 172.022C86.4432 172.022 72.9831 41.8023 180.073 44.7823C287.163 47.7623 277.953 167.692 277.953 167.692L290.443 167.502C294.583 164.502 302.383 161.262 317.073 159.732C349.443 156.352 660.463 146.912 673.443 149.732C679.293 151.022 682.173 156.192 683.583 161.472L696.943 161.272C696.943 161.272 690.573 22.7423 797.223 31.6723C903.873 40.6023 889.893 145.672 889.893 145.672C897.323 141.132 928.423 133.972 938.603 131.502C948.783 129.032 966.403 109.622 971.903 107.282C976.793 105.202 978.903 66.8323 974.043 53.5823C957.593 65.0023 910.143 59.8424 905.373 59.8424Z" transform="translate(0.833984 164.523)" fill="#353544"/>
<path d="M382.99 0.5321C369.99 -2.3279 58.9899 7.1121 26.6199 10.5321C11.9299 12.0621 4.14 15.2621 0 18.3021L393.13 12.3021C391.74 6.98206 388.85 1.8221 382.99 0.5321Z" transform="translate(291.217 313.753)" fill="#040402"/>
<path d="M0.0628527 58.8891C0.141357 52.7256 1.65655 46.6654 4.4879 41.1902C7.31925 35.715 11.3887 30.9757 16.3729 27.3491C33.5829 14.6591 104.373 -4.82091 109.373 1.08909C114.373 6.99909 93.6629 15.1591 87.8829 20.5691C82.1029 25.9791 51.4429 57.3891 35.8829 58.8891C20.3229 60.3891 -1.31715 69.7191 0.0628527 59.3891" transform="translate(15.834 156.427)" fill="#D2CCCE"/>
<path d="M1.13354 6.79731C-0.246456 5.53731 -1.37646 3.15729 4.13354 2.14729C9.64354 1.13729 25.1335 0.0072739 25.1335 0.0072739C25.1335 0.0072739 31.6636 -0.492687 36.6936 6.79731C41.7236 14.0873 47.5037 28.0273 47.5037 28.0273C47.5037 28.0273 54.0335 38.8373 43.8635 38.9573C33.6935 39.0773 8.18359 38.9573 8.18359 38.9573C8.18359 38.9573 13.8336 35.9573 12.7036 30.4173C11.5736 24.8773 6.7937 9.80726 6.7937 9.80726C6.7937 9.80726 2.51354 8.05731 1.13354 6.79731Z" transform="translate(5.47363 252.749)" fill="#D2CCCE"/>
<path d="M1.72998 2.12738L12.4099 27.1274C12.4099 27.1274 13.7898 30.6474 19.8198 30.1274C25.8498 29.6074 35.3999 30.8774 35.3999 30.8774C35.3999 30.8774 38.7899 32.0073 35.3999 25.5973C32.0099 19.1873 21.8298 1.34735 21.8298 1.34735C21.8298 1.34735 21.6998 0.59734 15.8298 0.08734C9.95983 -0.42266 0 1.46734 0 1.46734C0 1.46734 0.34998 2.50738 1.72998 2.12738Z" transform="translate(12.2871 256.788)" fill="#1B1A20"/>
<path d="M2.87326 108.301C2.87326 108.301 64.6834 61.4107 100.733 43.1907C136.783 24.9707 156.993 14.8807 206.413 6.35074C255.833 -2.17926 308.903 0.350738 308.903 0.350738H420.333C420.333 0.350738 503.283 1.66074 522.383 13.7607C541.483 25.8607 554.103 38.0907 552.183 43.9507C550.263 49.8107 521.613 71.2107 500.343 74.2607C479.073 77.3107 326.733 93.2607 326.733 93.2607L175.803 106.991L15.9433 119.221C15.9433 119.221 2.07335 121.681 0.21335 115.301C-0.92665 111.391 2.87326 108.301 2.87326 108.301Z" transform="translate(269.744 25.6948)" fill="#7C82A2"/>
<path d="M28.6123 118.778L37.5325 90.0984C37.5325 90.0984 100.003 46.8684 117.843 39.7984C135.683 32.7284 182.042 7.86843 275.192 9.79843C275.192 9.79843 353.472 3.91844 447.872 6.36844L472.232 76.7285L480.522 75.4584L450.522 2.10843C450.522 2.10843 219.192 -8.72157 154.182 18.7084C89.1724 46.1384 -8.35751 105.398 0.572494 116.868L28.6123 118.778Z" transform="translate(270.734 25.8071)" fill="#282C38"/>
<path d="M22.46 0.199997L0 94.23L48.9199 89.87V0L22.46 0.199997Z" transform="translate(507.308 31.7656)" fill="#292C3B"/>
<path d="M3.81982 78.5L0 78.26L4.71997 1.35L8.53979 0L3.81982 78.5Z" transform="translate(691.098 30.2954)" fill="#292C3B"/>
<path d="M2.70996 4.44C2.70996 4.44 13.0599 4.22999 22.1099 4.98999C31.1599 5.74999 54.3699 5.62999 76.8699 20.99C99.3699 36.35 97.0798 48.3 96.0798 50.24C95.0798 52.18 99.96 48.85 99.96 48.85L101.03 40.64L84.03 18.38L57.3999 6.67001L0 0L2.70996 4.44Z" transform="translate(718.768 27.1758)" fill="#292C3B"/>
<path d="M0 0.0214029C0 0.0214029 26.91 1.8014 47.25 23.5814C63.43 40.9014 57.82 44.5814 47.25 51.8614C36.68 59.1414 18.25 66.8614 18.25 66.8614C18.25 66.8614 62.32 52.9814 65.76 39.6014C69.2 26.2214 43.05 -0.868597 0 0.0214029Z" transform="translate(759.387 32.1641)" fill="#D8D6E1"/>
<path d="M84.95 169.9C131.867 169.9 169.9 131.867 169.9 84.95C169.9 38.0334 131.867 0 84.95 0C38.0334 0 0 38.0334 0 84.95C0 131.867 38.0334 169.9 84.95 169.9Z" transform="translate(96.5273 217.246)" fill="#27262C"/>
<path d="M64.1699 128.34C99.61 128.34 128.34 99.6101 128.34 64.17C128.34 28.7299 99.61 0 64.1699 0C28.7298 0 0 28.7299 0 64.17C0 99.6101 28.7298 128.34 64.1699 128.34Z" transform="translate(117.508 238.025)" fill="#C3BFBE"/>
<path d="M0.581406 8.61005L15.3815 25.52C15.3815 25.52 17.9515 29.57 21.4615 29.57C23.7742 29.4255 25.9463 28.4109 27.5414 26.73L43.0714 8.64001C43.0714 8.64001 45.2314 6.08001 43.0714 4.32001C40.9114 2.56001 33.3314 0 22.8114 0C12.2914 0 -3.19859 2.81005 0.581406 8.61005Z" transform="translate(158.826 250.565)" fill="#27262C"/>
<path d="M0.581406 20.88L15.3815 4C15.3815 4 17.9515 0 21.4615 0C23.7726 0.142803 25.9441 1.15367 27.5414 2.83002L43.0714 20.92C43.0714 20.92 45.2314 23.49 43.0714 25.24C40.9114 26.99 33.3314 29.56 22.8114 29.56C12.2914 29.56 -3.19859 26.68 0.581406 20.88Z" transform="translate(158.826 324.346)" fill="#27262C"/>
<path d="M20.9299 0.580177L4.05005 15.4302C4.05005 15.4302 0 18.0002 0 21.5002C0.143492 23.8132 1.15817 25.9857 2.83984 27.5802L20.9299 43.1102C20.9299 43.1102 23.5 45.2702 25.25 43.1102C27 40.9502 29.5798 33.3702 29.5798 22.8502C29.5798 12.3302 26.7499 -3.19982 20.9299 0.580177Z" transform="translate(204.277 280.166)" fill="#27262C"/>
<path d="M8.63989 0.580177L25.5198 15.4302C25.5198 15.4302 29.5698 18.0002 29.5698 21.5002C29.4263 23.8132 28.4117 25.9857 26.73 27.5802L8.63989 43.1102C8.63989 43.1102 6.06982 45.2702 4.31982 43.1102C2.56982 40.9502 0 33.3702 0 22.8502C0 12.3302 2.80989 -3.19982 8.63989 0.580177Z" transform="translate(130.567 280.166)" fill="#27262C"/>
<path d="M84.95 169.9C131.867 169.9 169.9 131.867 169.9 84.95C169.9 38.0334 131.867 0 84.95 0C38.0334 0 0 38.0334 0 84.95C0 131.867 38.0334 169.9 84.95 169.9Z" transform="translate(709.447 207.226)" fill="#27262C"/>
<path d="M64.1702 128.34C99.6103 128.34 128.34 99.6101 128.34 64.17C128.34 28.7299 99.6103 0 64.1702 0C28.7301 0 0 28.7299 0 64.17C0 99.6101 28.7301 128.34 64.1702 128.34Z" transform="translate(730.428 228.006)" fill="#C3BFBE"/>
<path d="M0.581783 8.63L15.4617 25.56C15.4617 25.56 18.0217 29.56 21.5317 29.56C23.8428 29.4172 26.0143 28.4063 27.6116 26.73L43.1416 8.64001C43.1416 8.64001 45.3016 6.08001 43.1416 4.32001C40.9816 2.56001 33.4016 0 22.8816 0C12.3616 0 -3.20822 2.83 0.581783 8.63Z" transform="translate(771.746 240.525)" fill="#27262C"/>
<path d="M0.581783 20.88L15.4617 4C15.4617 4 18.0317 0 21.5417 0C23.8525 0.143778 26.0238 1.15449 27.6216 2.83002L43.1416 20.92C43.1416 20.92 45.3016 23.49 43.1416 25.24C40.9816 26.99 33.4016 29.56 22.8816 29.56C12.3616 29.56 -3.20822 26.69 0.581783 20.88Z" transform="translate(771.746 314.326)" fill="#27262C"/>
<path d="M20.9299 0.580179L4.05005 15.4302C4.05005 15.4302 0 18.0002 0 21.5002C0.143492 23.8131 1.15841 25.9857 2.84009 27.5802L20.9299 43.1101C20.9299 43.1101 23.5 45.2701 25.25 43.1101C27 40.9501 29.5801 33.3701 29.5801 22.8501C29.5801 12.3301 26.7299 -3.19982 20.9299 0.580179Z" transform="translate(817.217 270.146)" fill="#27262C"/>
<path d="M8.62988 0.579872L25.51 15.4298C25.51 15.4298 29.5601 17.9999 29.5601 21.5099C29.4192 23.8214 28.408 25.9938 26.73 27.5899L8.63989 43.1199C8.63989 43.1199 6.07007 45.2799 4.32007 43.1199C2.57007 40.9599 0 33.3798 0 22.8598C0 12.3398 2.81988 -3.20013 8.62988 0.579872Z" transform="translate(743.467 270.146)" fill="#27262C"/>
<path d="M27.7114 221.09C10.5314 185.47 1.03151 155.44 0.0315133 98.9C-0.968487 39.96 22.1614 0.39 22.4014 0L23.9014 0.900024C23.6714 1.29002 0.741513 40.46 1.78151 98.9C2.78151 155.12 12.2215 184.97 29.2915 220.37L27.7114 221.09Z" transform="translate(282.986 108.355)" fill="#080705"/>
<path d="M10.8202 290.07C10.7602 289.83 4.56037 266.07 1.47037 253.07C-1.61963 240.07 1.12027 215.8 1.12027 214.17V120.58C1.12027 113.82 9.52019 100.19 10.5402 98.49L24.8402 0L26.6603 0.25L12.5202 99.09L12.4503 99.24C12.3603 99.39 3.54019 114 3.54019 120.57V214.32C3.54019 214.57 0.470194 239.88 3.54019 252.67C6.63019 265.62 12.4902 289.4 12.5402 289.67L10.8202 290.07Z" transform="translate(520.087 27.2856)" fill="#080705"/>
<path d="M32.0801 166.58L30.7002 165.51C35.0202 159.96 37.57 107.68 37.49 96.02C37.43 86.24 27.2301 72.9 27.1301 72.77L27 72.54L0 0.619995L1.64014 0L28.6401 71.8C29.7001 73.19 39.22 86 39.29 96C39.33 103.09 37.2101 159.97 32.0801 166.58Z" transform="translate(719.877 29.9956)" fill="#080705"/>
<path d="M11.1047 121.03C4.96474 121.03 1.21464 119.29 0.254643 116.03C-1.04536 111.55 3.04464 108.22 3.25464 108.03C3.88464 107.55 65.5646 60.86 101.255 42.82C137.375 24.57 157.255 14.51 207.185 5.89999C237.705 0.629994 269.515 0 290.815 0C302.415 0 309.815 0.829987 309.875 0.829987H421.255C424.665 0.829987 504.695 1.82999 523.795 13.9C539.975 24.14 556.395 37.49 553.985 44.9C551.985 51.04 522.815 72.64 501.405 75.71C480.405 78.71 329.285 94.47 327.765 94.63L176.815 108.36L16.9448 120.57C15.013 120.874 13.0604 121.028 11.1047 121.03V121.03ZM290.795 0.909973C269.565 0.909973 237.875 2.23 207.475 7.47C157.835 16.04 138.015 26.16 102.055 44.33C66.4947 62.33 4.95472 108.94 4.33472 109.4C4.33472 109.4 1.04464 112.13 2.00464 115.4C2.90464 118.48 7.45474 119.15 11.1047 119.15C12.9768 119.142 14.8457 118.992 16.6948 118.7L176.645 106.47L327.565 92.72C329.075 92.56 480.115 76.72 501.125 73.72C522.485 70.65 550.615 48.98 552.225 44.03C553.895 38.91 541.795 26.5 522.795 14.47C504.115 2.64 422.045 0.769989 421.215 0.769989H309.815C309.695 0.829989 302.375 0.909973 290.795 0.909973Z" transform="translate(268.832 25.2559)" fill="#D8D6E1"/>
<path d="M68.3899 96.85H1C0.734784 96.85 0.480261 96.7446 0.292725 96.5571C0.105188 96.3695 0 96.1152 0 95.85C0 95.5848 0.105188 95.3304 0.292725 95.1429C0.480261 94.9553 0.734784 94.85 1 94.85H67.6099C69.7977 78.1864 75.4049 62.1546 84.0798 47.7599C97.2898 26.0599 123.77 0.01 174.89 0C218.21 0 242.83 23.74 255.89 43.73C264.487 57.0861 270.586 71.8933 273.89 87.43C273.911 87.5425 273.91 87.6582 273.885 87.7701C273.861 87.8821 273.814 87.9879 273.748 88.0813C273.682 88.1747 273.597 88.2537 273.5 88.3137C273.402 88.3736 273.293 88.4132 273.18 88.43C272.952 88.4648 272.72 88.4089 272.533 88.2742C272.346 88.1396 272.219 87.937 272.18 87.71C268.915 72.364 262.887 57.7395 254.39 44.55C241.6 24.95 217.39 1.54999 174.92 1.54999C124.61 1.54999 98.5799 26.96 85.5999 48.28C76.9711 62.7441 71.4187 78.8327 69.2898 95.54C69.2398 96.02 68.8599 96.85 68.3899 96.85Z" transform="translate(10.8174 200.236)" fill="#080705"/>
<path d="M0.00165879 35.9655C0.00165879 35.9655 4.89178 4.53551 25.1218 0.555509C45.3518 -3.42449 49.1217 15.2455 49.3217 16.4455C49.5217 17.6455 53.1517 33.4455 37.3217 35.9555C21.4917 38.4655 -0.218341 43.9155 0.00165879 35.9655Z" transform="translate(311.636 106.17)" fill="#3A394B"/>
<path d="M0.00179339 11.2626C-0.168207 5.97264 11.7719 2.26263 25.5819 0.692631C39.3919 -0.877369 53.2117 0.182618 54.4117 4.27262C55.6117 8.36262 43.6618 18.2726 27.2118 17.9226C10.7618 17.5726 0.181793 16.5526 0.00179339 11.2626Z" transform="translate(442.205 147.923)" fill="#100607"/>
<path d="M0.010441 8.7925C0.010441 8.7925 1.49044 4.1825 20.7604 1.7925C40.0304 -0.5975 44.9804 -0.5975 44.9804 1.7925C44.9804 4.1825 36.4504 8.6125 31.5104 8.7925C26.5704 8.9725 -0.609559 13.3925 0.010441 8.7925Z" transform="translate(446.757 150.743)" fill="#BEC0CC"/>
<path d="M0.00179342 11.277C-0.168207 5.98701 11.7716 2.27702 25.5916 0.697022C39.4116 -0.882978 53.2217 0.187009 54.4217 4.27701C55.6217 8.36701 43.6718 18.277 27.2118 17.927C10.7518 17.577 0.171793 16.557 0.00179342 11.277Z" transform="translate(676.275 123.329)" fill="#100607"/>
<path d="M0.010441 8.79625C0.010441 8.79625 1.49044 4.19625 20.7604 1.79625C40.0304 -0.603748 44.9804 -0.593748 44.9804 1.79625C44.9804 4.18625 36.4504 8.61625 31.5104 8.79625C26.5704 8.97625 -0.609559 13.3963 0.010441 8.79625Z" transform="translate(680.816 126.149)" fill="#BEC0CC"/>
</svg>
