<svg width="972" height="340" viewBox="0 0 972 340" fill="none" xmlns="http://www.w3.org/2000/svg">
<path d="M162.94 0C162.94 0 112.24 14 5.42001 87L0 115.79L102.44 105.79C102.44 105.79 178.38 25.0499 178.38 23.7899C178.38 22.5299 162.94 0 162.94 0Z" transform="translate(268.447 20.0154)" fill="#C5D6E2"/>
<path d="M0.891778 11.9421L16.1218 8.81209C16.1218 8.81209 24.6718 -0.787924 28.6418 0.0520764C32.6118 0.892076 37.4018 1.51208 35.1118 4.05208C32.8218 6.59208 30.5218 18.4521 22.5918 21.9921C14.6618 25.5321 -4.31822 22.5821 0.891778 11.9421Z" transform="translate(246.896 98.2432)" fill="#000308"/>
<path d="M0 120.986L18.86 143.346C18.86 143.346 25.18 144.966 32.31 137.846C39.44 130.726 153.95 145.946 153.95 145.946C153.95 145.946 177.72 145.946 191.95 145.946C206.18 145.946 562.15 130.136 562.15 130.136L617.32 143.346C617.32 143.346 637.09 139.086 646.66 140.696C656.23 142.306 763.66 137.366 763.66 137.366C763.66 137.366 794.55 142.876 799.3 133.466C804.05 124.056 839.67 1.93639 744.41 0.0363921C649.15 -1.86361 215.83 71.2664 215.83 71.2664L102.15 4.26637L3.31 34.9563L0 120.986Z" transform="translate(84.0576 156.819)" fill="#000308"/>
<path d="M971.053 184.265C972.723 175.265 959.783 170.915 959.783 170.915C959.783 170.915 961.243 165.285 959.783 156.725C958.323 148.165 954.783 121.255 950.783 113.725C946.783 106.195 943.843 105.365 943.843 105.365L943.063 109.975C935.263 105.975 903.723 101.624 897.663 100.584C891.603 99.5445 883.383 93.2845 864.613 73.4645C853.202 61.3283 844.146 47.1783 837.903 31.7345L850.423 22.1345C853.133 16.2945 820.173 14.2045 820.173 14.2045C808.703 12.9545 663.493 0.644547 578.573 0.0145474C493.653 -0.615453 427.733 19.4145 424.183 21.7145C420.633 24.0145 422.723 30.8946 422.723 30.8946C404.783 34.0246 290.863 112.475 283.773 114.345C276.683 116.215 258.533 117.055 251.223 113.925C243.913 110.795 259.983 106.834 259.983 106.834C259.983 106.834 219.713 106.414 118.323 130.834C16.9327 155.254 6.14275 181.555 4.67275 187.185C3.20275 192.815 1.14275 201.584 1.14275 201.584C-0.31725 209.094 0.52275 233.504 0.14275 236.214C-0.0959294 237.812 -0.0348874 239.44 0.32275 241.015C0.20933 241.977 0.152568 242.945 0.152752 243.915C3.29275 244.215 7.62275 244.565 10.8328 244.565C16.4728 244.565 30.5627 246.985 29.8827 254.895C29.2027 262.805 32.4327 270.725 21.0227 273.015C11.0827 275.015 6.02275 275.465 2.68275 271.725C2.34288 272.162 2.05119 272.635 1.81275 273.135C0.142748 276.685 4.97275 278.454 4.97275 278.454C21.2428 289.634 102.883 299.355 102.883 299.355C92.9928 272.775 92.7427 183.445 180.573 182.815C268.403 182.185 269.863 301.945 269.863 301.945L701.313 299.355C696.093 283.415 685.453 186.995 783.723 187.195C881.993 187.395 874.563 294.325 874.563 294.325H875.733C887.003 294.325 909.323 287.595 916.833 286.325C924.343 285.055 948.963 271.464 957.723 266.454C966.483 261.444 964.193 232.655 964.193 228.905C964.193 225.155 959.813 212.005 960.643 206.795C961.473 201.585 969.383 193.265 971.053 184.265Z" transform="translate(0.0644531 0.820801)" fill="#3F3F3F"/>
<path d="M20.87 29.1C32.28 26.82 29.06 18.9 29.73 10.98C30.4 3.05998 16.31 0.650024 10.68 0.650024C7.47 0.650024 3.14 0.3 0 0C0 10.48 6.68 17.43 7.07 20.88C7.43 24.09 4.44999 25.3099 2.53999 27.8099C5.88999 31.5399 10.93 31.09 20.87 29.1Z" transform="translate(0.1875 244.725)" fill="#5E5E5E"/>
<path d="M25.29 0C25.29 0 28.81 1.86005 34.19 5.18005C39.57 8.50005 112.85 67.08 124.19 89.02C135.53 110.96 100.19 97.7101 100.19 97.7101L0 37.47C0 37.47 3.13998 6.83 25.29 0Z" transform="translate(821.978 20.9353)" fill="#C5D6E2"/>
<path d="M0 109.358C0 109.358 71.79 42.578 126.6 21.428C181.41 0.277996 223.99 -1.64196 321.37 0.848039C418.75 3.33804 460.49 13.078 478.02 27.548C495.55 42.018 503.9 51.028 502.78 58.768C501.66 66.508 494.71 85.1479 487.2 86.2579C479.69 87.3679 287.42 97.108 283.52 97.388C279.62 97.668 0 109.358 0 109.358Z" transform="translate(299.887 19.1572)" fill="#151616"/>
<path d="M3.89999 60.8623L0 94.2523L215.06 86.4623L241.77 0.762348C241.77 0.762348 127.97 -4.52765 89.29 12.7623C50.61 30.0523 36.73 34.9823 3.89999 60.8623Z" transform="translate(359.147 25.363)" fill="#C5D6E2"/>
<path d="M17.6389 0.203976L1.28889 61.484C1.28889 61.484 -1.61111 69.974 1.28889 71.624C4.18889 73.274 93.4089 69.554 93.4089 69.554C93.4089 69.554 157.169 68.314 159.409 66.244C161.649 64.174 172.659 51.364 167.069 42.244C161.479 33.124 146.369 16.774 115.069 10.144C83.7689 3.51404 24.6789 -1.03602 17.6389 0.203976Z" transform="translate(623.448 30.2515)" fill="#C5D6E2"/>
<path d="M246.341 259.884C242.661 259.884 240.171 259.764 239.771 259.744L10.4107 257.554L10.2107 256.824C-3.83926 205.534 -0.469263 150.284 3.27074 128.234C6.65074 108.344 17.1707 107.984 17.6207 107.984C17.886 107.984 18.1403 108.089 18.3278 108.277C18.5154 108.464 18.6207 108.719 18.6207 108.984C18.6207 109.249 18.5154 109.503 18.3278 109.691C18.1403 109.879 17.886 109.984 17.6207 109.984C17.2307 109.984 8.29074 110.474 5.21074 128.574C1.51074 150.364 -1.78928 204.824 11.9107 255.574L239.861 257.754C240.321 257.754 281.861 259.754 288.101 246.674C294.601 232.954 318.601 132.964 312.411 93.9839V93.7939V93.6039L333.531 0.803947C333.589 0.538731 333.75 0.307525 333.979 0.161247C334.208 0.0149687 334.486 -0.0344297 334.751 0.023918C335.016 0.0822656 335.247 0.24361 335.393 0.472404C335.54 0.701199 335.589 0.978672 335.531 1.24389L314.461 93.8539C320.591 133.294 296.461 233.724 289.951 247.524C284.661 258.534 258.741 259.884 246.341 259.884Z" transform="translate(284.347 18.9314)" fill="#020305"/>
<path d="M0 23.7307C0 23.7307 0.729998 13.3407 12.88 6.55069C25.63 -0.559306 32.47 -1.22928 36.88 1.45072C41.29 4.13072 47.48 12.3208 47.88 17.0208C48.28 21.7208 49.76 31.5108 39.16 31.7808C28.56 32.0508 1.74 37.1407 0 23.7307Z" transform="translate(8.31738 175.354)" fill="#C6E0DB"/>
<path d="M0.86095 13.392C0.86095 13.392 12.3809 -0.188025 34.6609 0.0019753C56.9409 0.191975 80.331 5.90198 79.961 20.882C79.591 35.862 47.391 31.182 47.391 31.182C47.391 31.182 -7.46905 26.592 0.86095 13.392Z" transform="translate(868.517 123.203)" fill="#F42134"/>
<path d="M1.11054 32.5656C0.845324 32.5935 0.579853 32.5148 0.372625 32.347C0.165398 32.1791 0.0333464 31.9358 0.00549866 31.6706C-0.0223491 31.4054 0.0563426 31.14 0.224188 30.9328C0.392033 30.7256 0.635302 30.5935 0.900518 30.5656L65.5105 16.9156C85.3105 14.7456 137.771 7.56566 143.861 0.355657C144.032 0.152766 144.276 0.0261101 144.541 0.00360571C144.805 -0.0188987 145.068 0.0645967 145.27 0.235661C145.473 0.406726 145.6 0.651289 145.622 0.915715C145.645 1.18014 145.562 1.44268 145.391 1.64557C137.541 10.9456 68.7505 18.5756 65.8305 18.8956L1.33051 32.4957L1.11054 32.5656Z" transform="translate(815.877 164.52)" fill="#020305"/>
<path d="M1.48047 25.1287C1.48047 25.1287 -5.94953 13.2087 12.4805 3.3087C30.9105 -6.5913 30.8904 8.56871 31.0504 11.8187C31.2104 15.0687 31.9804 26.8187 26.0504 27.9087C20.1204 28.9987 2.93047 30.2387 1.48047 25.1287Z" transform="translate(342.207 90.5266)" fill="#3F3F3F"/>
<path d="M0 2.06563C0 2.06563 1.67999 6.27574 4.48999 7.67574C7.29999 9.07574 11.78 8.79571 17.39 8.51571C23 8.23571 32.81 7.51563 31.27 3.18563C29.73 -1.14437 3.78 -0.594367 0 2.06563Z" transform="translate(242.877 165.22)" fill="#C6E0DB"/>
<path d="M71.33 142.66C110.724 142.66 142.66 110.724 142.66 71.33C142.66 31.9355 110.724 0 71.33 0C31.9355 0 0 31.9355 0 71.33C0 110.724 31.9355 142.66 71.33 142.66Z" transform="translate(713.087 197.125)" fill="#27262C"/>
<path d="M53.88 107.76C83.6371 107.76 107.76 83.6371 107.76 53.88C107.76 24.1229 83.6371 0 53.88 0C24.1229 0 0 24.1229 0 53.88C0 83.6371 24.1229 107.76 53.88 107.76Z" transform="translate(730.707 214.575)" fill="#C3BFBE"/>
<path d="M0.489194 7.26001L12.9592 21.4301C12.9592 21.4301 15.1092 24.83 18.0592 24.83C19.9986 24.7086 21.8204 23.8584 23.1592 22.45L36.1592 7.26001C36.1592 7.26001 37.9692 5.11 36.1592 3.63C34.3492 2.15 27.9792 0 19.1592 0C10.3392 0 -2.69081 2.38001 0.489194 7.26001Z" transform="translate(765.398 225.075)" fill="#27262C"/>
<path d="M0.48667 17.5699L12.9567 3.3999C12.9567 3.3999 15.1167 0 18.0567 0C19.9958 0.122359 21.8173 0.97238 23.1567 2.38L36.1567 17.5699C36.1567 17.5699 37.9767 19.72 36.1567 21.2C34.3367 22.68 27.9767 24.83 19.1567 24.83C10.3367 24.83 -2.68333 22.4399 0.48667 17.5699Z" transform="translate(765.391 287.015)" fill="#27262C"/>
<path d="M17.57 0.489192L3.40002 12.9592C3.40002 12.9592 0 15.1093 0 18.0593C0.121383 19.9987 0.971563 21.8205 2.38 23.1592L17.57 36.1592C17.57 36.1592 19.73 37.9692 21.19 36.1592C22.65 34.3492 24.82 27.9792 24.82 19.1592C24.82 10.3392 22.44 -2.69081 17.57 0.489192Z" transform="translate(803.577 249.956)" fill="#27262C"/>
<path d="M7.26001 0.489192L21.43 12.9592C21.43 12.9592 24.83 15.1093 24.83 18.0593C24.7096 19.9989 23.8593 21.821 22.45 23.1592L7.26001 36.1592C7.26001 36.1592 5.1 37.9792 3.63 36.1592C2.16 34.3392 0 27.9792 0 19.1592C0 10.3392 2.38001 -2.69081 7.26001 0.489192Z" transform="translate(741.647 249.956)" fill="#27262C"/>
<path d="M71.33 142.66C110.724 142.66 142.66 110.724 142.66 71.33C142.66 31.9355 110.724 0 71.33 0C31.9355 0 0 31.9355 0 71.33C0 110.724 31.9355 142.66 71.33 142.66Z" transform="translate(108.077 197.125)" fill="#27262C"/>
<path d="M53.88 107.76C83.6371 107.76 107.76 83.6371 107.76 53.88C107.76 24.1229 83.6371 0 53.88 0C24.1229 0 0 24.1229 0 53.88C0 83.6371 24.1229 107.76 53.88 107.76Z" transform="translate(125.697 214.575)" fill="#C3BFBE"/>
<path d="M0.489193 7.26001L12.9592 21.4301C12.9592 21.4301 15.1092 24.83 18.0592 24.83C19.9986 24.7086 21.8204 23.8584 23.1592 22.45L36.1592 7.26001C36.1592 7.26001 37.9692 5.11 36.1592 3.63C34.3492 2.15 27.9792 0 19.1592 0C10.3392 0 -2.69081 2.38001 0.489193 7.26001Z" transform="translate(160.388 225.075)" fill="#27262C"/>
<path d="M0.489193 17.5699L12.9592 3.3999C12.9592 3.3999 15.1192 0 18.0592 0C19.9984 0.122359 21.8198 0.97238 23.1592 2.38L36.1592 17.5699C36.1592 17.5699 37.9792 19.72 36.1592 21.2C34.3392 22.68 27.9792 24.83 19.1592 24.83C10.3392 24.83 -2.69081 22.4399 0.489193 17.5699Z" transform="translate(160.388 287.015)" fill="#27262C"/>
<path d="M17.57 0.489192L3.40002 12.9592C3.40002 12.9592 0 15.1093 0 18.0593C0.121383 19.9987 0.971563 21.8205 2.38 23.1592L17.57 36.1592C17.57 36.1592 19.73 37.9692 21.2 36.1592C22.67 34.3492 24.83 27.9792 24.83 19.1592C24.83 10.3392 22.45 -2.69081 17.57 0.489192Z" transform="translate(198.567 249.956)" fill="#27262C"/>
<path d="M7.26001 0.489192L21.43 12.9592C21.43 12.9592 24.83 15.1093 24.83 18.0593C24.7096 19.9989 23.8593 21.821 22.45 23.1592L7.26001 36.1592C7.26001 36.1592 5.1 37.9792 3.63 36.1592C2.16 34.3392 0 27.9792 0 19.1592C0 10.3392 2.38001 -2.69081 7.26001 0.489192Z" transform="translate(136.638 249.956)" fill="#27262C"/>
</svg>
