<svg width="641" height="419" viewBox="0 0 641 419" fill="none" xmlns="http://www.w3.org/2000/svg">
<path d="M62.11 105.65C61.0674 100.583 60.7876 95.3894 61.28 90.24C49.7 54.9 27.9301 0 27.9301 0L0 114.62L62.78 108.81C62.56 107.78 62.32 106.73 62.11 105.65Z" transform="translate(552.427 63.6357)" fill="#3A3A39"/>
<path d="M2 5.82001L0 14.11C0 14.11 64.56 65.24 69.72 59.04C74.08 53.81 74.72 36.04 71.72 15.44C69 12.26 66.45 6.71 64.8 0L2 5.82001Z" transform="translate(550.427 172.436)" fill="#2D2D2B"/>
<path d="M6.69576 22.35C6.44576 21.11 6.11576 19.73 5.69576 18.21C4.44576 13.31 2.5458 7.04 0.235802 0C-0.256582 5.14934 0.0231296 10.3433 1.06576 15.41C1.27576 16.49 1.51577 17.54 1.76577 18.57C3.41577 25.27 5.96575 30.83 8.68575 34.01C8.18575 30.22 7.50576 26.3 6.69576 22.35Z" transform="translate(613.432 153.866)" fill="#DB656B"/>
<path d="M0 11.5642C0 11.5642 11.86 5.38422 15.81 0.944224C19.76 -3.49578 17.81 8.94422 17.81 12.9442C17.81 16.9442 0 11.5642 0 11.5642Z" transform="translate(524.747 40.5215)" fill="#09070A"/>
<path d="M0 102.596C0 102.596 17.79 104.326 18.78 105.596C19.77 106.866 29.69 122.886 43.78 126.596C57.87 130.306 162.12 100.406 162.12 100.406C162.12 100.406 177.67 96.9565 179.25 96.2465C180.83 95.5365 189.71 76.1965 179.25 50.9965C168.79 25.7965 134.36 -9.32352 92.11 2.28648C49.86 13.8965 2.22 26.0065 0 102.596Z" transform="translate(452.848 247.169)" fill="#09070A"/>
<path d="M0.300277 73.82L3.51028 114.48C3.51028 114.48 13.6403 115.61 18.0903 114.48C22.5403 113.35 152.74 119.48 152.74 119.48C155.769 116.706 158.986 114.147 162.37 111.82C166.37 109.35 172.5 111.57 172.5 111.57L196.71 46.84L77.4003 0C77.4003 0 -5.59972 18.98 0.300277 73.82Z" transform="translate(9.80664 248.266)" fill="#09070A"/>
<path d="M28.41 129.434L0 101.584C0 101.584 131.11 16.4943 196.74 1.7143C262.37 -13.0657 270.11 72.5843 270.11 72.5843L28.41 129.434Z" transform="translate(126.907 53.5015)" fill="#2D2D2B"/>
<path d="M65.08 1.28863L13.43 26.5986C13.43 26.5986 0 38.9886 0 55.5186C0 55.5186 5.68 73.5987 13.94 78.2487C22.2 82.8987 109.49 23.4986 109.49 23.4986C109.49 23.4986 96.59 -6.49137 65.08 1.28863Z" transform="translate(20.5068 169.797)" fill="#2D2D2B"/>
<path d="M0.319977 29.29L289.02 20.51C289.148 13.6278 289.844 6.76779 291.1 0L0 12C0.490982 17.7498 0.597863 23.5259 0.319977 29.29V29.29Z" transform="translate(178.747 340.085)" fill="#09070A"/>
<path d="M640.293 267.268C639.773 236.798 641.843 192.898 630.993 184.118C620.143 175.338 584.513 132.988 582.993 125.758C581.473 118.528 581.993 25.0483 583.513 18.8483C585.033 12.6483 590.223 6.44825 583.513 4.90825C576.803 3.36825 378.993 -6.97174 314.433 8.00826L323.733 12.6582C323.733 12.6582 304.113 2.84827 153.303 103.558C153.303 103.558 116.113 99.4283 101.653 106.138C87.1933 112.848 33.4833 147.458 33.4833 147.458C33.4833 147.458 88.7433 126.798 95.4833 128.868C99.9655 130.326 104.29 132.229 108.393 134.548L54.1133 172.748L25.1933 185.658C25.1933 185.658 11.7633 192.368 10.1933 198.058C8.62332 203.748 -0.136677 223.368 0.383323 234.728C0.903323 246.088 -0.696677 273.458 0.383323 284.828C1.46332 296.198 2.47332 315.298 13.8333 313.748C13.8333 313.748 -3.16666 212.228 97.5033 214.588C163.003 216.118 175.943 273.588 178.263 303.218L469.373 291.218C474.753 260.988 494.063 208.618 563.373 214.598C635.683 220.838 641.373 289.528 628.963 294.688C628.933 294.638 640.813 297.738 640.293 267.268Z" transform="translate(0.494141 48.9175)" fill="#E5DCE1"/>
<path d="M0.0730148 112.604L310.463 81.6044C310.463 81.6044 333.183 20.1443 316.663 9.81435C300.143 -0.515652 257.783 0.00435066 257.783 0.00435066C257.783 0.00435066 161.203 0.524351 126.083 16.0044C90.963 31.4844 -2.98699 69.7444 0.0730148 112.604Z" transform="translate(185.194 63.6113)" fill="#2D2D2B"/>
<path d="M71.79 143.58C111.439 143.58 143.58 111.439 143.58 71.79C143.58 32.1415 111.439 0 71.79 0C32.1415 0 0 32.1415 0 71.79C0 111.439 32.1415 143.58 71.79 143.58Z" transform="translate(483.107 274.565)" fill="#27262C"/>
<path d="M71.79 0C57.5913 0 43.7114 4.21043 31.9056 12.0988C20.0998 19.9872 10.8983 31.1992 5.46472 44.3171C0.0311074 57.435 -1.39058 71.8696 1.37946 85.7955C4.14949 99.7214 10.9868 112.513 21.0269 122.553C31.0669 132.593 43.8586 139.431 57.7845 142.201C71.7104 144.971 86.145 143.549 99.2629 138.115C112.381 132.682 123.593 123.48 131.481 111.674C139.37 99.8686 143.58 85.9887 143.58 71.79C143.58 52.7501 136.016 34.49 122.553 21.0268C109.09 7.56356 90.8299 0 71.79 0V0ZM71.96 126.33C61.2343 126.33 50.7495 123.149 41.8315 117.191C32.9134 111.232 25.9626 102.762 21.8581 92.8529C17.7535 82.9437 16.6796 72.0399 18.7721 61.5203C20.8645 51.0007 26.0294 41.3378 33.6136 33.7536C41.1978 26.1694 50.8607 21.0045 61.3803 18.912C71.8999 16.8196 82.8037 17.8935 92.713 21.998C102.622 26.1026 111.092 33.0534 117.051 41.9714C123.009 50.8895 126.19 61.3744 126.19 72.1C126.19 86.4827 120.477 100.276 110.306 110.446C100.136 120.617 86.3427 126.33 71.96 126.33Z" transform="translate(24.1074 273.516)" fill="#27262C"/>
<path d="M54.23 108.46C84.1804 108.46 108.46 84.1804 108.46 54.23C108.46 24.2796 84.1804 0 54.23 0C24.2796 0 0 24.2796 0 54.23C0 84.1804 24.2796 108.46 54.23 108.46Z" transform="translate(41.8369 291.386)" fill="#C3BFBE"/>
<path d="M54.23 108.46C84.1804 108.46 108.46 84.1804 108.46 54.23C108.46 24.2796 84.1804 0 54.23 0C24.2796 0 0 24.2796 0 54.23C0 84.1804 24.2796 108.46 54.23 108.46Z" transform="translate(500.837 292.125)" fill="#C3BFBE"/>
<path d="M0.479837 7.30005L13.0298 21.56C13.0298 21.56 15.1998 24.98 18.1598 24.98C20.11 24.8585 21.9423 24.0049 23.2898 22.59L36.4798 7.30005C36.4798 7.30005 38.3098 5.13002 36.4798 3.65002C34.6498 2.17002 28.2498 0 19.3598 0C10.4698 0 -2.68016 2.40005 0.479837 7.30005Z" transform="translate(76.7275 302.246)" fill="#27262C"/>
<path d="M0.479837 17.68L13.0298 3.41998C13.0298 3.41998 15.1998 0 18.1598 0C20.1116 0.123168 21.9445 0.980651 23.2898 2.40002L36.4798 17.68C36.4798 17.68 38.3098 19.85 36.4798 21.33C34.6498 22.81 28.2498 24.98 19.3598 24.98C10.4698 24.98 -2.68016 22.58 0.479837 17.68Z" transform="translate(76.7275 364.585)" fill="#27262C"/>
<path d="M17.66 0.491698L3.39999 13.0417C3.39999 13.0417 0 15.2017 0 18.1717C0.124146 20.1232 0.981439 21.9557 2.39999 23.3017L17.69 36.4217C17.69 36.4217 19.86 38.2517 21.34 36.4217C22.82 34.5917 25 28.2017 25 19.3117C25 10.4217 22.57 -2.7083 17.66 0.491698Z" transform="translate(115.207 327.284)" fill="#27262C"/>
<path d="M7.31 0.492005L21.57 13.042C21.57 13.042 24.99 15.212 24.99 18.172C24.8658 20.1235 24.0086 21.956 22.59 23.302L7.29999 36.422C7.29999 36.422 5.12999 38.252 3.64999 36.422C2.16999 34.592 0 28.192 0 19.302C0 10.412 2.36 -2.70799 7.31 0.492005Z" transform="translate(52.8477 327.284)" fill="#27262C"/>
<path d="M0.479837 7.29999L13.0298 21.56C13.0298 21.56 15.1998 24.98 18.1598 24.98C20.11 24.8585 21.9423 24.0049 23.2898 22.59L36.4798 7.29999C36.4798 7.29999 38.3098 5.13002 36.4798 3.65002C34.6498 2.17002 28.2498 0 19.3598 0C10.4698 0 -2.68016 2.37999 0.479837 7.29999Z" transform="translate(535.728 302.706)" fill="#27262C"/>
<path d="M0.479837 17.68L13.0298 3.41998C13.0298 3.41998 15.1998 0 18.1598 0C20.1114 0.124146 21.9439 0.981408 23.2898 2.39996L36.4798 17.68C36.4798 17.68 38.3098 19.85 36.4798 21.33C34.6498 22.81 28.2498 24.98 19.3598 24.98C10.4698 24.98 -2.68016 22.58 0.479837 17.68Z" transform="translate(535.728 365.045)" fill="#27262C"/>
<path d="M17.69 0.477375L3.42004 13.0274C3.42004 13.0274 0 15.1974 0 18.1574C0.124146 20.1089 0.98147 21.9414 2.40002 23.2874L17.69 36.4074C17.69 36.4074 19.86 38.2374 21.34 36.4074C22.82 34.5774 25.03 28.1874 25.03 19.3274C25.03 10.4674 22.59 -2.67263 17.69 0.477375Z" transform="translate(574.177 327.758)" fill="#27262C"/>
<path d="M7.31 0.479441L21.57 13.0294C21.57 13.0294 24.99 15.1994 24.99 18.1594C24.8668 20.1112 24.0093 21.9441 22.59 23.2894L7.29999 36.4094C7.29999 36.4094 5.13002 38.2394 3.65002 36.4094C2.17002 34.5794 0 28.1794 0 19.2894C0 10.3994 2.37 -2.67056 7.31 0.479441Z" transform="translate(511.837 327.756)" fill="#27262C"/>
<path d="M1.69352 46.6365C1.38668 46.6354 1.0859 46.5512 0.823038 46.3929C0.560173 46.2346 0.345037 46.0081 0.200479 45.7374C0.055921 45.4668 -0.0126918 45.162 0.00193187 44.8555C0.0165555 44.549 0.113878 44.2522 0.283548 43.9965L29.1935 0.756526C29.3176 0.570705 29.4771 0.411167 29.6629 0.286982C29.8486 0.162797 30.0571 0.0764146 30.2762 0.032771C30.4954 -0.0108725 30.7209 -0.0109238 30.9401 0.0326184C31.1593 0.0761607 31.3677 0.162426 31.5536 0.286525C31.7394 0.410624 31.8989 0.570122 32.0231 0.755885C32.1473 0.941648 32.2337 1.15005 32.2773 1.3692C32.321 1.58834 32.321 1.81394 32.2774 2.03311C32.2339 2.25227 32.1476 2.46072 32.0235 2.64654L3.11357 45.8865C2.957 46.1189 2.7454 46.3089 2.49766 46.4398C2.24992 46.5706 1.97369 46.6382 1.69352 46.6365Z" transform="translate(538.613 0.449219)" fill="#09070A"/>
<path d="M0 44.6C0 44.6 68.75 56.93 92.93 98.36C92.93 98.36 295.42 78.6 326.39 87.66C357.36 96.72 382.29 21.76 431.03 32.8C479.77 43.84 500.92 48.37 516.03 78.59C531.14 108.81 532.34 115.17 532.34 115.17L528.12 66.5L469.49 0L0 44.6Z" transform="translate(104.717 176.216)" fill="#D8D6D7"/>
<path d="M22.1818 239.46C20.1158 239.412 18.1122 238.743 16.4318 237.54C12.6418 234.92 10.2418 229.76 9.28182 222.28C9.09182 220.79 -8.94818 71.93 5.78182 53.1L6.67183 53.79C-6.07817 70.09 6.37181 190.69 10.4018 222.1C11.3218 229.24 13.5618 234.1 17.0718 236.52C17.9864 237.175 19.0314 237.626 20.1357 237.842C21.24 238.058 22.3778 238.033 23.4718 237.77L23.6018 237.49H34.1818C35.2618 237.49 145.872 231.19 200.412 231.08C250.542 230.98 256.512 218.08 266.412 196.58C267.322 194.58 268.262 192.58 269.272 190.51C280.682 166.57 314.892 25.06 317.102 15.84L283.372 1L283.822 0L318.422 15.24L318.312 15.7C317.952 17.2 282.072 166.37 270.312 191.07C269.312 193.18 268.372 195.21 267.462 197.19C257.732 218.38 251.312 232.55 200.462 232.65C145.952 232.75 35.3718 239.49 34.2618 239.49H23.6718C23.4818 239.46 22.9418 239.46 22.1818 239.46Z" transform="translate(183.105 108.625)" fill="#2D2D2B"/>
<path d="M6.41564 30.09C3.98564 30.09 2.20565 29.5 1.11565 28.32C0.696885 27.8552 0.383543 27.3053 0.197132 26.7081C0.0107202 26.1109 -0.0443715 25.4805 0.0356327 24.86C0.0956327 24.67 3.70562 13.86 7.14562 7.29999C8.18147 5.32719 9.75516 3.68832 11.6843 2.5733C13.6135 1.45829 15.8191 0.912788 18.0456 1L28.8956 0L29.0057 1.13L18.0557 2.13C16.0316 2.02434 14.0201 2.5062 12.2636 3.51752C10.5071 4.52884 9.08047 6.02645 8.15563 7.82999C4.76563 14.31 1.15563 25.04 1.15563 25.14C1.11974 25.5795 1.17399 26.0217 1.31499 26.4396C1.45599 26.8574 1.68078 27.2421 1.97564 27.57C3.02564 28.7 5.08564 29.15 7.91564 28.9C12.4252 28.4601 16.9549 28.2598 21.4856 28.3V29.43C17.0015 29.3912 12.5185 29.5915 8.05565 30.03C7.46899 30.0633 6.9223 30.0833 6.41564 30.09Z" transform="translate(465.731 149.496)" fill="#2D2D2B"/>
<path d="M0.13846 25.7805L23.8185 17.0805C23.8185 17.0805 35.3585 -3.35956 44.6685 0.48044L28.0685 20.3105C28.0685 20.3105 -2.29154 30.4405 0.13846 25.7805Z" transform="translate(21.999 197.145)" fill="#81776E"/>
<path d="M0 5.47057L3.16998 10.1305L18.17 2.64055C18.17 2.64055 19.59 0.430553 18.17 0.0205531C16.75 -0.389447 0 5.47057 0 5.47057Z" transform="translate(21.9971 224.135)" fill="#91401C"/>
</svg>
