<svg width="945" height="279" viewBox="0 0 945 279" fill="none" xmlns="http://www.w3.org/2000/svg">
<path d="M831.57 117.43H856.14C856.14 117.43 864.53 134.96 847.82 142.81C831.11 150.66 766.04 148.73 766.04 148.73L654.56 149.16L645.46 156.42H618.61L210.46 136.95L196.05 153.33L168.6 156.1L43.01 144.1C43.01 144.1 29.7299 158.33 15.4399 153.1C1.14994 147.87 0 97.8501 0 97.8501L25.2999 25.3601L97.62 14.3601L225.94 35L426.15 69.5901L582.68 39.5901L682.79 0L746.49 4.1001L798.82 49L831.57 117.43Z" transform="translate(81.3672 88.6553)" fill="black"/>
<path d="M0 43.1377C0 43.1377 20.5099 5.45772 94.5599 0.37772C168.61 -4.70228 0 43.1377 0 43.1377Z" transform="translate(43.7471 103.128)" fill="#7C82A2"/>
<path d="M40.3501 0C40.3501 0 50.51 15.7901 50.51 27.1801C50.51 38.5701 47.38 47.7301 47 47.8501C46.62 47.9701 6 42.5901 6 42.5901L0 17.78L40.3501 0Z" transform="translate(878.697 75.9053)" fill="#7C82A2"/>
<path d="M232.316 8.22326C232.316 8.22326 231.065 -1.12673 226.395 0.11327C221.725 1.35327 220.786 4.47324 219.846 14.4532C218.906 24.4332 204.255 49.0633 189.915 54.3633C175.575 59.6633 166.535 60.2833 151.255 60.9133C135.975 61.5433 3.7555 59.6832 0.675503 64.3432C-2.4045 69.0032 5.97555 77.8333 7.22555 77.7933C8.47555 77.7533 150.316 93.3733 150.316 93.3733L209.866 81.5233L246.966 38.5233L232.626 11.0832L232.316 8.22326Z" transform="translate(357.892 25.7119)" fill="#020202"/>
<path d="M5 78.99L0 71.38L2.23999 68.77C2.23999 68.77 128.5 5.94 148.72 0C148.72 0 152.53 6.90004 147.53 11.54C142.53 16.18 79 62.34 72.34 77.1C65.68 91.86 5 78.99 5 78.99Z" transform="translate(264.807 19.3354)" fill="#7C82A2"/>
<path d="M80.8501 13.29C80.8501 13.29 80.07 6.09008 83.5 4.71008C86.93 3.33008 92.75 0 95.5 0C98.25 0 108.5 12.18 103.8 18.27C99.1 24.36 37.3701 69.76 24.0801 90.52C10.7901 111.28 0 94.0901 0 94.0901L6.37 87.2001C6.37 87.2001 13.5201 71.0901 47.3101 47.7301C81.1001 24.3701 85.0001 18.83 80.8501 13.29Z" transform="translate(331.417 9.41528)" fill="#020202"/>
<path d="M44.01 42.0701C44.01 42.0701 46.5 11.35 33.22 7.75C19.94 4.15 3.59998 0 3.59998 0C3.59998 0 6.37 26 0 39" transform="translate(596.337 0.29541)" fill="#020202"/>
<path d="M5 39.5C5 40.163 4.73666 40.799 4.26782 41.2678C3.79898 41.7367 3.16304 42 2.5 42V42C1.83696 42 1.20102 41.7367 0.732178 41.2678C0.263337 40.799 0 40.163 0 39.5V2.5C0 1.83696 0.263337 1.20102 0.732178 0.732178C1.20102 0.263337 1.83696 0 2.5 0V0C3.16304 0 3.79898 0.263337 4.26782 0.732178C4.73666 1.20102 5 1.83696 5 2.5V39.5Z" transform="translate(597.207 0.0854492)" fill="#020202"/>
<path d="M51.3262 45.2957C51.3262 45.2957 22.2162 42.9658 9.11621 36.1358C-3.98379 29.3058 0.0562441 23.5857 2.89624 23.5857H19.2362C19.2362 23.5857 30.8262 20.2358 27.9762 4.28581C25.1262 -11.6642 54.1862 20.2357 51.3262 45.2957Z" transform="translate(0.970703 192.11)" fill="#020202"/>
<path d="M0.293833 147.919C4.43938 149.439 8.20417 151.844 11.3264 154.966C14.4487 158.088 16.8536 161.853 18.3739 165.999C23.3739 179.999 32.3739 200.999 46.4539 205.259C60.5339 209.519 96.4539 210.969 96.4539 210.969C96.4539 210.969 87.4539 89.8486 190.454 89.8486C293.454 89.8486 277.074 210.969 277.074 210.969C277.074 210.969 698.724 213.589 699.444 213.829C700.164 214.069 673.984 92.9487 785.824 86.7587C897.664 80.5687 875.294 198.119 875.294 198.119L918.844 188.119C918.844 188.119 923.124 169.799 928.364 163.119C933.604 156.439 943.594 133.849 943.594 120.289C943.594 106.729 944.594 91.0187 934.074 83.6487C934.074 83.6487 930.744 70.7987 928.364 68.4187L926.934 84.8386C926.934 84.8386 914.084 86.9787 907.664 81.2687C901.244 75.5587 888.394 67.2686 888.154 64.8486C887.914 62.4286 920.754 47.2386 922.894 44.6186C925.034 41.9986 924.794 37.0087 921.894 36.5287C918.994 36.0487 910.474 40.3386 897.894 40.3386C885.314 40.3386 836.264 38.6686 816.514 32.9586C796.764 27.2486 694.924 7.95872 674.224 6.06872C653.524 4.17872 598.794 -0.831357 587.134 0.118643C587.134 0.118643 569.764 55.1186 533.834 59.6086C497.904 64.0986 385.594 65.0786 385.594 65.0786L266.814 60.3586L266.674 57.2687C266.674 57.2687 166.874 54.4086 129.994 70.8286C125.104 74.115 119.6 76.3802 113.814 77.4886C105.014 78.9186 65.7439 97.4887 48.6139 103.659C31.4839 109.829 7.68383 117.219 3.16383 131.259C-1.35617 145.299 0.293833 147.919 0.293833 147.919Z" transform="translate(0.393555 30.8267)" fill="#9C0010"/>
<path d="M0 2.29004L5.18005 0H7.59998C7.59998 0 11.54 7.52005 10.52 14.1801C9.50002 20.8401 8.25 27.4401 8.25 27.4401H3.37L0 2.29004Z" transform="translate(393.587 61.2852)" fill="#060405"/>
<path d="M0 33.4516C0 33.4516 8.68993 24.3016 10.0499 21.2316C11.4099 18.1616 9.70992 10.8216 15.1699 7.58162C20.6299 4.34162 28.9899 -0.498421 40.9399 0.0415786C40.9399 0.0415786 47.0799 7.92166 41.7899 27.3717C41.7899 27.3717 30.87 30.1017 27.12 27.0317C27.12 27.0317 22.68 34.5416 23.71 37.1016C24.74 39.6616 0.01 35.4316 0 33.4516Z" transform="translate(357.887 61.3638)" fill="#9C0010"/>
<path d="M83.92 85.3099C83.82 85.1699 72.6 70.5299 59.99 50.3099C50.66 35.3099 38.1 37.69 30.59 39.11C27.84 39.63 25.8601 40.01 24.6801 39.46C21.5101 37.98 13.7601 26.25 8.68005 18.46C7.00005 15.92 5.68 13.92 5 13C2.25 9.33 0.07 0.39 0 0H0.869995C0.869995 0.09 3.07997 8.90993 5.71997 12.4299C6.41997 13.3599 7.71994 15.3799 9.43994 17.9299C14.1999 25.1399 22.18 37.22 25.13 38.59C26.05 39.02 28.01 38.6499 30.51 38.1699C38.24 36.7099 51.1601 34.26 60.8101 49.76C73.4001 69.98 84.81 84.86 84.92 85L83.92 85.3099Z" transform="translate(674.207 36.8853)" fill="#161615"/>
<path d="M0.73999 30.62L0 30.14C8.44 28.81 48.2101 0.27 48.5701 0L49.25 0.560059C47.79 1.67006 9.38999 29.26 0.73999 30.62Z" transform="translate(843.417 99.5454)" fill="#161615"/>
<path d="M39.83 19.8C38.25 19.8 36.29 18.8 33.88 17.65C31.6685 16.497 29.3677 15.5238 27 14.74C21.1 12.92 0.88 0.920034 0 0.410034L1 0C1.21 0.12 21.46 12.12 27.26 13.9C29.6703 14.7098 32.0113 15.7131 34.26 16.9C36.72 18.11 38.85 19.15 40.26 18.9C43.01 18.44 51.2599 18.96 51.5599 18.98L50.5599 19.88C50.4799 19.88 43.1 19.33 40.45 19.77C40.2446 19.7988 40.0371 19.8089 39.83 19.8V19.8Z" transform="translate(80.877 120.835)" fill="#161615"/>
<path d="M354.13 0.780029L338.91 1.09998C329.23 1.23998 315.39 1.55999 298.79 1.73999C282.19 1.91999 262.79 2.22999 242.07 2.35999L177.07 2.77002H112.07C91.3199 2.77002 71.95 2.60993 55.34 2.54993C38.73 2.48993 24.9 2.25994 15.22 2.18994L0 1.97998L15.22 1.66003C24.9 1.52003 38.74 1.20002 55.34 1.02002C71.94 0.84002 91.3401 0.520034 112.06 0.410034L177.06 0H242.06C262.81 0 282.18 0.159971 298.78 0.219971C315.38 0.279971 329.22 0.499956 338.9 0.579956L354.13 0.780029Z" transform="translate(315.827 229.475)" fill="#B50B24"/>
<path d="M94.733 201.69C64.053 201.69 38.983 201.4 33.733 200.53C20.103 198.26 16.153 180.47 15.733 178.53C15.123 177.35 11.7331 169.42 3.40309 128.35C-5.65691 83.49 6.18313 62.62 6.69313 61.76L8.20314 62.65C8.08314 62.86 -3.79694 83.89 5.12306 128.01C13.9631 171.77 17.1831 177.55 17.3131 177.78L17.3931 177.91V178.07C17.3931 178.26 21.0631 196.61 33.9531 198.76C41.5731 200.03 101.643 199.94 136.773 199.76C185.143 199.53 230.373 198.96 232.063 198.76C234.593 198.34 248.453 187.06 259.603 159.76C270.853 132.24 296.203 71.76 296.463 71.15L296.533 71.02C296.533 70.97 299.883 65.5101 296.443 55.1901C292.773 44.1901 302.273 1.8 302.683 0L304.393 0.390015C304.293 0.830015 294.583 44.08 298.103 54.64C301.623 65.2 298.503 71.16 298.103 71.9C297.163 74.15 272.363 133.31 261.273 160.44C249.683 188.79 235.273 200.01 232.393 200.44C231.793 200.64 153.113 201.69 94.733 201.69Z" transform="translate(314.804 31.9553)" fill="#161615"/>
<path d="M73.09 146.18C113.456 146.18 146.18 113.457 146.18 73.0901C146.18 32.7236 113.456 0 73.09 0C32.7235 0 0 32.7236 0 73.0901C0 113.457 32.7235 146.18 73.09 146.18Z" transform="translate(116.647 132.465)" fill="#27262C"/>
<path d="M55.2201 110.44C85.7173 110.44 110.44 85.7173 110.44 55.2201C110.44 24.7229 85.7173 0 55.2201 0C24.7229 0 0 24.7229 0 55.2201C0 85.7173 24.7229 110.44 55.2201 110.44Z" transform="translate(134.688 150.335)" fill="#C3BFBE"/>
<path d="M0.501118 7.43994L13.281 21.96C13.281 21.96 15.4811 25.45 18.5111 25.45C20.4968 25.3248 22.3615 24.4532 23.7311 23.01L37.0911 7.43994C37.0911 7.43994 38.9511 5.22997 37.0911 3.71997C35.2311 2.20997 28.711 0 19.661 0C10.611 0 -2.75888 2.44994 0.501118 7.43994Z" transform="translate(170.246 161.105)" fill="#27262C"/>
<path d="M0.50081 18L13.2807 3.47998C13.2807 3.47998 15.4908 0 18.5108 0C20.4997 0.123687 22.3682 0.995329 23.7408 2.43994L37.1008 18.01C37.1008 18.01 38.9608 20.22 37.1008 21.73C35.2408 23.24 28.7207 25.45 19.6707 25.45C10.6207 25.45 -2.75919 22.99 0.50081 18Z" transform="translate(170.246 224.585)" fill="#27262C"/>
<path d="M18.01 0.493261L3.48999 13.2733C3.48999 13.2733 0 15.4833 0 18.5033C0.123687 20.4922 0.995329 22.3606 2.43994 23.7333L18.01 37.0932C18.01 37.0932 20.22 38.9532 21.73 37.0932C23.24 35.2332 25.45 28.7133 25.45 19.6633C25.45 10.6133 23.01 -2.73674 18.01 0.493261Z" transform="translate(209.367 186.592)" fill="#27262C"/>
<path d="M7.44995 0.495772L21.97 13.2758C21.97 13.2758 25.45 15.4858 25.45 18.5058C25.3263 20.4947 24.4545 22.3631 23.0099 23.7358L7.43994 37.0957C7.43994 37.0957 5.22997 38.9557 3.71997 37.0957C2.20997 35.2357 0 28.7158 0 19.6658C0 10.6158 2.45995 -2.74423 7.44995 0.495772Z" transform="translate(145.887 186.59)" fill="#27262C"/>
<path d="M73.0901 146.18C113.457 146.18 146.18 113.457 146.18 73.0901C146.18 32.7236 113.457 0 73.0901 0C32.7236 0 0 32.7236 0 73.0901C0 113.457 32.7236 146.18 73.0901 146.18Z" transform="translate(709.087 132.465)" fill="#27262C"/>
<path d="M55.22 110.44C85.7171 110.44 110.44 85.7173 110.44 55.2201C110.44 24.7229 85.7171 0 55.22 0C24.7228 0 0 24.7229 0 55.2201C0 85.7173 24.7228 110.44 55.22 110.44Z" transform="translate(727.127 150.335)" fill="#C3BFBE"/>
<path d="M0.505857 7.43994L13.2859 21.96C13.2859 21.96 15.4959 25.45 18.5159 25.45C20.5048 25.3263 22.3732 24.4546 23.7458 23.01L37.1058 7.43994C37.1058 7.43994 38.9658 5.22997 37.1058 3.71997C35.2458 2.20997 28.7259 0 19.6759 0C10.6259 0 -2.77414 2.44994 0.505857 7.43994Z" transform="translate(762.701 161.105)" fill="#27262C"/>
<path d="M0.505857 18L13.2859 3.47998C13.2859 3.47998 15.4959 0 18.5159 0C20.5048 0.123687 22.3732 0.995329 23.7458 2.43994L37.1058 18.01C37.1058 18.01 38.9658 20.22 37.1058 21.73C35.2458 23.24 28.7259 25.45 19.6759 25.45C10.6259 25.45 -2.77414 22.99 0.505857 18Z" transform="translate(762.701 224.585)" fill="#27262C"/>
<path d="M18.01 0.493261L3.48999 13.2733C3.48999 13.2733 0 15.4833 0 18.5033C0.123687 20.4922 0.995452 22.3606 2.44006 23.7333L18.01 37.0932C18.01 37.0932 20.22 38.9532 21.73 37.0932C23.24 35.2332 25.4501 28.7133 25.4501 19.6633C25.4501 10.6133 23 -2.73674 18.01 0.493261Z" transform="translate(801.807 186.592)" fill="#27262C"/>
<path d="M7.44995 0.495772L21.97 13.2758C21.97 13.2758 25.45 15.4858 25.45 18.5058C25.3263 20.4947 24.4546 22.3631 23.01 23.7358L7.44006 37.0957C7.44006 37.0957 5.22997 38.9557 3.71997 37.0957C2.20997 35.2357 0 28.7158 0 19.6658C0 10.6158 2.45995 -2.74423 7.44995 0.495772Z" transform="translate(738.327 186.59)" fill="#27262C"/>
</svg>
