<svg width="1071" height="348" viewBox="0 0 1071 348" fill="none" xmlns="http://www.w3.org/2000/svg">
<path d="M0 161.82L34.6 183.94C34.6 183.94 41.67 165.94 68.23 171.27C94.79 176.6 203.23 185.04 203.23 185.04C203.23 185.04 242.23 196.04 260.34 183.31C278.45 170.58 678.62 171.21 678.62 171.21L736.19 185.7C736.19 185.7 755.03 179.14 768.36 178.64C781.69 178.14 896.04 175.64 896.04 175.64L916.17 172.14L963.74 130.14L868.2 0L166.92 25.42L24.3199 65.75L0 161.82Z" transform="translate(28.3867 117.335)" fill="#050505"/>
<path d="M3.52002 0.000825648H44.46C44.46 0.000825648 49.88 -0.289174 48.97 10.0008C48.06 20.2908 39.55 19.0008 39.55 19.0008H0L3.52002 0.000825648Z" transform="translate(1020.21 260.085)" fill="#DFE4E8"/>
<path d="M93.4593 2.46002L74.3793 0C74.3793 0 42.4693 4.99999 24.5193 20.43C6.56935 35.86 -0.970698 66.01 0.0993018 70.32C1.1693 74.63 59.3093 51.7 60.7493 49.7C62.1893 47.7 93.4593 2.46002 93.4593 2.46002Z" transform="translate(15.748 133.386)" fill="#C5D6E2"/>
<path d="M0 9.75149C4.27958 7.35634 8.73201 5.28391 13.3201 3.55148C18.9001 1.69148 38.41 -1.0985 37.17 0.451503C35.93 2.0015 28.1701 5.45148 29.7301 9.74148C31.2901 14.0315 0 9.75149 0 9.75149Z" transform="translate(279.777 96.7739)" fill="#5C5F66"/>
<path d="M0 87C0 87 128 15.21 171.38 0L188.04 0.850006L91.7001 53.85L31.29 93.85L0 87Z" transform="translate(301.157 19.8354)" fill="#C5D6E2"/>
<path d="M34.7802 1.04337C34.7802 1.04337 50.2202 -3.62663 52.7802 6.79337C55.3402 17.2134 55.2903 27.2634 59.6003 38.0334C63.9103 48.8034 66.7804 55.2634 63.1904 62.8034C59.6004 70.3434 0.000212554 55.6234 0.000212554 55.6234C0.000212554 55.6234 -0.409756 1.77337 34.7802 1.04337Z" transform="translate(981.367 101.042)" fill="#AE222F"/>
<path d="M0.0900879 22.14C33.7801 19.14 420.46 18.27 485.69 18.14L485.32 0L0 8.41003C0.02 13.68 0.0500879 18.24 0.0900879 22.14Z" transform="translate(269.527 284.946)" fill="#9D9E9B"/>
<path d="M1051 181.05C1051 177.53 1046 156.92 1046 156.92C1046 156.92 1039.46 156.68 1020.61 156.17C1001.76 155.66 997.993 138.34 993.713 130.04C989.433 121.74 1023.88 108.95 1027.9 102.92C1031.92 96.89 969.333 91.16 956.013 89.65C942.693 88.14 904.493 65.38 854.213 40.75C803.933 16.12 740.343 0 619.213 0C498.083 0 464.683 21.76 464.683 21.76H479.113C383.343 66.26 329.033 103.56 329.033 103.56C318.973 106.56 287.803 102.91 287.803 102.91C142.293 117.76 89.9933 133.06 89.9933 133.06C89.9933 133.06 103.273 139.12 100.513 143.14C97.7533 147.16 57.4433 176.37 44.8833 187.43C32.3233 198.49 15.0632 197.84 15.0632 197.84C1.91324 203.84 -0.446759 214.47 0.063241 221.51C0.573241 228.55 5.84324 262.23 6.06324 266.76C6.28324 271.29 -0.726656 270.76 1.54334 279.08C3.81334 287.4 23.6633 297.18 23.6633 297.18L56.3032 300.32C54.3032 290.63 48.7533 258.38 56.9133 237.97C66.6133 213.73 91.4233 164.58 160.353 164.58C216.073 164.58 269.353 201.02 269.353 277.76C269.353 283.45 269.353 288.49 269.353 293L754.673 284.59L754.423 272.3C754.423 272.3 769.293 162.96 864.823 167.71C946.823 171.78 961.573 244.94 951.823 288.48C969.823 286.93 1014.28 283.15 1020.48 283.35C1022.73 283.416 1024.94 282.865 1026.89 281.758C1028.84 280.65 1030.45 279.029 1031.54 277.07C1075.03 264.5 1059.94 250.18 1059.94 250.18C1069.49 231.08 1068.74 218.51 1070 200.66C1071.26 182.81 1051 181.05 1051 181.05Z" transform="translate(0.09375 0.325684)" fill="#A7A8A3"/>
<path d="M110.4 0.1504C14.87 -4.5996 0 104.74 0 104.74L0.609985 135.21H9.93994C8.42994 114.85 9.18999 13.2104 111.24 12.0904C202.99 11.0904 189.92 121.63 189.92 121.63L197.42 120.98C207.15 77.3904 192.43 4.2104 110.4 0.1504Z" transform="translate(754.598 167.875)" fill="#9D9E9B"/>
<path d="M107.748 0C38.8275 0 14.0076 49.15 4.30758 73.39C-3.85242 93.8 1.72747 126.05 3.69747 135.74L10.2675 136.37C0.217543 80.57 23.5875 1.63999 117.347 9.42999C211.107 17.22 212.868 122.04 212.868 130.59C212.868 139.14 214.868 142.4 214.868 142.4C215.528 142.273 216.196 142.186 216.868 142.14C216.798 135 216.758 125.55 216.758 113.14C216.798 36.44 163.498 0 107.748 0Z" transform="translate(52.71 164.896)" fill="#9D9E9B"/>
<path d="M0 107.195C0 107.195 125 20.9051 143.24 17.7451C143.24 17.7451 225.66 -5.2549 292.84 1.1151C360.02 7.4851 484.19 17.6951 487.75 56.6551C491.31 95.6151 485.53 88.5051 485.53 88.5051L0 107.195Z" transform="translate(345.947 10.1006)" fill="#C5D6E2"/>
<path d="M18.6899 0L0 94.18L40.0599 92.23L46.73 0H18.6899Z" transform="translate(586.268 14.9355)" fill="#313D49"/>
<path d="M79.13 158.26C122.832 158.26 158.26 122.832 158.26 79.13C158.26 35.4277 122.832 0 79.13 0C35.4277 0 0 35.4277 0 79.13C0 122.832 35.4277 158.26 79.13 158.26Z" transform="translate(81.1475 188.886)" fill="#27262C"/>
<path d="M59.78 119.56C92.7956 119.56 119.56 92.7956 119.56 59.78C119.56 26.7644 92.7956 0 59.78 0C26.7644 0 0 26.7644 0 59.78C0 92.7956 26.7644 119.56 59.78 119.56Z" transform="translate(100.688 208.236)" fill="#C3BFBE"/>
<path d="M0.537499 8L14.3675 23.72C14.3675 23.72 16.7575 27.49 20.0275 27.49C22.1798 27.3562 24.2018 26.4131 25.6875 24.85L40.1575 8C40.1575 8 42.1575 5.61 40.1575 4C38.1575 2.39 31.0875 0 21.2875 0C11.4875 0 -2.9725 2.59 0.537499 8Z" transform="translate(139.18 219.946)" fill="#27262C"/>
<path d="M0.537804 19.49L14.3678 3.77002C14.3678 3.77002 16.7578 0 20.0278 0C22.1799 0.134798 24.2016 1.07778 25.6878 2.64001L40.1478 19.49C40.1478 19.49 42.1478 21.88 40.1478 23.49C38.1478 25.1 31.0778 27.49 21.2778 27.49C11.4778 27.49 -2.9722 24.91 0.537804 19.49Z" transform="translate(139.18 288.596)" fill="#27262C"/>
<path d="M19.49 0.540322L3.77002 14.3703C3.77002 14.3703 0 16.7603 0 20.0303C0.133821 22.1826 1.07696 24.2046 2.64001 25.6903L19.49 40.1503C19.49 40.1503 21.88 42.1503 23.49 40.1503C25.1 38.1503 27.49 31.0803 27.49 21.2803C27.49 11.4803 24.9 -2.97968 19.49 0.540322Z" transform="translate(181.537 247.495)" fill="#27262C"/>
<path d="M8 0.540322L23.72 14.3703C23.72 14.3703 27.49 16.7603 27.49 20.0303C27.3562 22.1826 26.413 24.2046 24.85 25.6903L8 40.1503C8 40.1503 5.61 42.1503 4 40.1503C2.39 38.1503 0 31.0803 0 21.2803C0 11.4803 2.59 -2.97968 8 0.540322Z" transform="translate(112.877 247.495)" fill="#27262C"/>
<path d="M79.13 158.26C122.832 158.26 158.26 122.832 158.26 79.13C158.26 35.4277 122.832 0 79.13 0C35.4277 0 0 35.4277 0 79.13C0 122.832 35.4277 158.26 79.13 158.26Z" transform="translate(777.167 188.886)" fill="#27262C"/>
<path d="M59.78 119.56C92.7956 119.56 119.56 92.7956 119.56 59.78C119.56 26.7644 92.7956 0 59.78 0C26.7644 0 0 26.7644 0 59.78C0 92.7956 26.7644 119.56 59.78 119.56Z" transform="translate(796.707 208.236)" fill="#C3BFBE"/>
<path d="M0.542844 8L14.3728 23.72C14.3728 23.72 16.7628 27.49 20.0328 27.49C22.1851 27.3562 24.2072 26.4131 25.6929 24.85L40.1528 8C40.1528 8 42.1528 5.61 40.1528 4C38.1528 2.39 31.0828 0 21.2828 0C11.4828 0 -2.98716 2.59 0.542844 8Z" transform="translate(835.194 219.946)" fill="#27262C"/>
<path d="M0.542536 19.49L14.3725 3.77002C14.3725 3.77002 16.7625 0 20.0325 0C22.1846 0.134798 24.2063 1.07778 25.6926 2.64001L40.1625 19.49C40.1625 19.49 42.1625 21.88 40.1625 23.49C38.1625 25.1 31.0925 27.49 21.2925 27.49C11.4925 27.49 -2.98746 24.91 0.542536 19.49Z" transform="translate(835.194 288.596)" fill="#27262C"/>
<path d="M19.5 0.540322L3.78003 14.3703C3.78003 14.3703 0 16.7603 0 20.0303C0.133821 22.1826 1.07696 24.2046 2.64001 25.6903L19.49 40.1503C19.49 40.1503 21.88 42.1503 23.49 40.1503C25.1 38.1503 27.49 31.0803 27.49 21.2803C27.49 11.4803 24.91 -2.97968 19.5 0.540322Z" transform="translate(877.547 247.495)" fill="#27262C"/>
<path d="M8 0.540322L23.7201 14.3703C23.7201 14.3703 27.4901 16.7603 27.4901 20.0303C27.3563 22.1826 26.4132 24.2046 24.8501 25.6903L8 40.1503C8 40.1503 5.61 42.1503 4 40.1503C2.39 38.1503 0 31.0803 0 21.2803C0 11.4803 2.59 -2.97968 8 0.540322Z" transform="translate(808.897 247.495)" fill="#27262C"/>
<path d="M454.4 21.4273C454.4 21.4273 389.33 -2.57276 284.69 0.227243C284.69 0.227243 196.69 -0.382762 155.05 14.0972C155.05 14.0972 90.64 38.3172 0 110.687H14.24L19.0601 110.197L506.4 90.9172C506.18 86.3972 507.06 77.9172 505.72 68.0072C502.97 47.5672 495.83 31.5773 454.4 21.4273ZM491.9 86.6173L271.9 94.8272L16.9 106.437C41.54 89.2672 133.85 28.0072 161.33 17.7472C193.33 5.74723 291.26 5.06724 301.82 5.59724C312.38 6.12724 423.99 9.29725 474.07 35.1773C474.04 35.1773 506.48 43.4873 491.92 86.6173H491.9Z" transform="translate(334.807 10.1685)" fill="#F0F4F7"/>
<path d="M4.68425 269.76L4.61418 268.94C4.53418 268.03 -3.61575 177.87 1.93425 150.38C7.34425 123.59 11.1742 117.02 29.2642 103.54L30.1742 102.86C103.424 48.26 158.384 16.01 189.114 9.60001C216.664 3.85001 267.614 0 315.904 0C351.904 0 402.824 2.05001 441.434 11.85C513.724 30.18 522.734 41.12 526.074 61.69C529.264 81.37 528.594 148.47 522.994 160.96L522.814 161.36L522.384 161.46C521.644 161.63 448.844 179.25 442.104 264.18L442.044 264.99L4.68425 269.76ZM315.904 1.76001C267.724 1.76001 216.904 5.60002 189.474 11.33C159.474 17.59 103.244 50.6 31.2342 104.27L30.3143 104.95C12.6943 118.08 8.96423 124.49 3.66423 150.71C-1.55577 176.56 5.49424 258.81 6.29424 267.94L440.384 263.2C447.324 181.13 515.314 161.44 521.524 159.81C526.724 146.81 527.354 80.76 524.304 61.94C521.094 42.17 512.254 31.62 440.984 13.54C402.564 3.83001 351.754 1.78 315.904 1.78V1.76001Z" transform="translate(314.203 9.39551)" fill="#1D1D1D"/>
<path d="M44.9506 0L0.120505 0.210022C0.120505 0.210022 -1.71951 8.88005 8.98049 9.55005C19.6805 10.22 33.9206 10.48 33.9206 10.48C33.9206 10.48 40.4406 3.26 44.9506 0Z" transform="translate(51.667 192.746)" fill="#BC4926"/>
<path d="M440.63 2.19526C440.69 5.29526 342.05 7.07526 220.37 9.37526C98.69 11.6753 0.0500189 13.6452 1.89349e-05 10.5452C-0.0499811 7.44524 98.93 4.15524 220.61 1.85524C342.29 -0.444764 440.54 -0.904737 440.63 2.19526Z" transform="translate(329.577 204.66)" fill="#9D9E9B"/>
<path d="M2.00651 265.16C-5.32349 211.91 9.77656 93.52 9.92656 92.33L21.5466 0L23.3166 0.220001L11.6965 92.55C11.5465 93.74 -3.52348 211.89 3.76652 264.91L2.00651 265.16Z" transform="translate(596.201 10.1758)" fill="#1D1D1D"/>
<path d="M0.00600394 13.23C0.00600394 13.23 -0.454015 6.34 11.486 3.31C23.426 0.279998 26.826 0 30.766 0C34.706 0 59.596 1.65002 59.766 10.83C59.936 20.01 41.3161 23.04 34.0561 23.59C26.7961 24.14 -0.463996 24.99 0.00600394 13.23Z" transform="translate(527.201 127.536)" fill="#9D9E9B"/>
<path d="M0.0067798 13.23C0.0067798 13.23 -0.453239 6.34 11.4868 3.31C23.4268 0.279998 26.8168 0 30.7668 0C34.7168 0 59.5968 1.65002 59.7668 10.83C59.9368 20.01 41.3068 23.04 34.0568 23.59C26.8068 24.14 -0.49322 24.98 0.0067798 13.23Z" transform="translate(762.2 122.196)" fill="#9D9E9B"/>
<path d="M40.9312 4.80132C40.9445 5.32748 40.8538 5.85105 40.6644 6.3421C40.4749 6.83314 40.1904 7.28195 39.8272 7.66284C39.464 8.04372 39.0292 8.34918 38.5477 8.5617C38.0662 8.77422 37.5475 8.88963 37.0213 8.9013L4.10125 9.67132C3.5751 9.68461 3.05152 9.59392 2.56048 9.40447C2.06944 9.21502 1.62056 8.93049 1.23968 8.56725C0.858794 8.20402 0.553394 7.76922 0.340875 7.28771C0.128356 6.80621 0.0129494 6.28747 0.00127497 5.76128V4.87127C-0.0120125 4.34512 0.0786708 3.82154 0.268121 3.3305C0.457571 2.83946 0.742045 2.39064 1.10528 2.00976C1.46851 1.62887 1.90331 1.32341 2.38482 1.11089C2.86633 0.898375 3.385 0.782969 3.91119 0.771294L36.8312 0.00127497C37.3574 -0.0120125 37.881 0.0786708 38.372 0.268121C38.863 0.457571 39.3119 0.742106 39.6928 1.10534C40.0737 1.46857 40.3791 1.90338 40.5916 2.38488C40.8041 2.86639 40.9195 3.38512 40.9312 3.91131V4.80132Z" transform="translate(535.996 132.934)" fill="#DCE4F1"/>
<path d="M40.9312 4.80126C40.9445 5.32741 40.8539 5.85099 40.6645 6.34203C40.475 6.83307 40.1904 7.28195 39.8272 7.66284C39.464 8.04372 39.0292 8.34912 38.5477 8.56164C38.0662 8.77416 37.5475 8.88956 37.0213 8.90124L4.10125 9.67126C3.5751 9.68455 3.05152 9.59386 2.56048 9.40441C2.06944 9.21496 1.62056 8.93049 1.23968 8.56725C0.858794 8.20402 0.553394 7.76916 0.340875 7.28765C0.128356 6.80615 0.0129494 6.28747 0.00127497 5.76128V4.87127C-0.0120125 4.34512 0.0786708 3.82154 0.268121 3.3305C0.457571 2.83946 0.742045 2.39058 1.10528 2.0097C1.46851 1.62881 1.90331 1.32335 2.38482 1.11083C2.86633 0.898314 3.38512 0.782969 3.91131 0.771294L36.8312 0.00127497C37.3574 -0.0120125 37.881 0.0786708 38.372 0.268121C38.863 0.457571 39.3119 0.742045 39.6928 1.10528C40.0737 1.46851 40.3791 1.90338 40.5916 2.38488C40.8041 2.86639 40.9195 3.38506 40.9312 3.91125V4.80126Z" transform="translate(770.966 127.594)" fill="#DCE4F1"/>
</svg>
