<svg width="2099" height="812" viewBox="0 0 2099 812" fill="none" xmlns="http://www.w3.org/2000/svg">
<path d="M5.89456 206.232H251.005L301.005 213.232C301.005 213.232 346.475 71.7516 292.515 36.2316C238.555 0.711628 -44.0754 -73.7684 5.89456 206.232Z" transform="translate(154.203 516.854)" fill="#0A0A0A"/>
<path d="M43.3799 0C43.3799 0 65.06 75.4499 62.23 104.67C59.4 133.89 33 129.18 33 129.18L0 22.0698L43.3799 0Z" transform="translate(436.327 600.396)" fill="#575757"/>
<path d="M32 0H0V74H32V0Z" transform="translate(1216.21 622.085)" fill="#0A0A0A"/>
<path d="M74 0H0V36H74V0Z" transform="translate(1185.21 660.085)" fill="#0A0A0A"/>
<path d="M54.0659 10.1765C54.0659 10.1765 6.06595 22.0763 1.33595 88.7663C-3.39405 155.456 5.95583 142.447 5.95583 142.447L34.7258 148.947L231.346 146.786L241.656 149.237L245.726 153.627H255.466C255.466 153.627 269.606 33.0462 188.276 10.1662C106.946 -12.7138 54.0659 10.1765 54.0659 10.1765Z" transform="translate(1507.38 589.449)" fill="#0A0A0A"/>
<path d="M2.60231 144.107C2.60231 144.107 -23.2175 6.84745 87.8025 1.24745C198.823 -4.35255 191.942 10.7172 191.942 10.7172C191.942 10.7172 255.622 57.6172 241.422 152.717L228.422 146.717L2.60231 144.107Z" transform="translate(1278.26 591.268)" fill="#0A0A0A"/>
<path d="M0 0L1455.5 8.7998C1455.5 8.7998 1535.04 41.48 1581.04 44V81.71L14.8799 89.23L0 0Z" transform="translate(483.207 532.855)" fill="#232222"/>
<path d="M672 0H0V79H672V0Z" transform="translate(527.207 609.085)" fill="#7C7A7A"/>
<path d="M479.81 23.4204C479.81 23.4204 486.42 142.67 479.81 143.56C473.2 144.45 428.38 143.35 428.38 143.35L422.17 148.56L417.23 150.72L357.46 84.6602L199.68 86.6602L146.5 153.83L132.76 230.09H29.23L7.62012 205.67L0 167.08V85.8403L153 0L479.81 23.4204Z" transform="translate(23.3975 485.365)" fill="#575757"/>
<path d="M6.8274 0C4.0074 30 -2.83264 109.57 1.28736 150.28L27.7673 138.66V0H6.8274Z" transform="translate(15.4395 258.085)" fill="#788D9E"/>
<path d="M32.0598 0H1.11987C1.11987 0 0.67 6 0 12H20.9299V150.65L28.98 146.7L32.0598 0Z" transform="translate(22.2773 246.085)" fill="#3F3F3F"/>
<path d="M13.79 0L0 24.51H32.45L37.71 0H13.79Z" transform="translate(9.25781 228.015)" fill="#575757"/>
<path d="M473.596 174.76L361.086 0L344.136 1.28979C335.446 1.28979 319.136 0 298.346 0C225.886 0 99.4659 7.99986 55.6159 60.6099C2.70592 124.1 31.726 165.03 31.726 165.03L22.2661 181.38H46.186L40.926 207.38H47.426V338.81C47.426 338.81 9.56598 347.64 7.67598 362.09C5.78598 376.54 8.30611 457.66 8.30611 457.66H7.66598C5.50598 457.66 -0.563927 459.07 1.51607 474.17C4.03607 492.4 -2.48408 514.75 1.10592 519.17C4.69592 523.59 8.436 531.38 8.436 531.38H149.856C149.856 531.38 183.396 487.58 206.516 482.67C229.636 477.76 304.316 476.79 304.316 476.79L435.936 468.35C435.936 468.35 449.756 467.35 449.656 464.53C447.216 464.53 450.286 456.35 450.286 456.35L473.596 174.76Z" transform="translate(0.771484 45.7056)" fill="#C4C8D1"/>
<path d="M148.444 2.41623C133.364 -7.01377 95.0241 13.7262 76.7941 20.6462C58.5641 27.5662 46.624 30.0763 27.144 30.7063C17.084 31.0363 7.38419 32.0863 0.344188 33.0363L0.104198 35.4763C-2.3158 60.3463 38.174 178.476 42.894 185.806C46.6654 191.819 49.3939 198.425 50.9641 205.346V205.426V205.506C51.1741 206.886 72.374 343.356 76.704 365.026C80.704 384.956 84.2842 480.406 85.0642 502.156C104.064 502.296 152.574 502.596 161.634 502.096C172.944 501.466 170.434 492.036 170.434 492.036C170.434 492.036 166.664 142.576 171.064 102.346C175.464 62.1162 163.524 11.8462 148.444 2.41623Z" transform="translate(355.463 11.8992)" fill="#C4C8D1"/>
<path d="M107.72 215.44C167.212 215.44 215.44 167.212 215.44 107.72C215.44 48.2279 167.212 0 107.72 0C48.2279 0 0 48.2279 0 107.72C0 167.212 48.2279 215.44 107.72 215.44Z" transform="translate(197.598 596.125)" fill="#27262C"/>
<path d="M0 81.3696C1.21528e-07 97.4627 4.77204 113.195 13.7126 126.576C22.6533 139.957 35.3609 150.386 50.2288 156.545C65.0966 162.704 81.4568 164.316 97.2407 161.177C113.025 158.038 127.524 150.289 138.904 138.911C150.284 127.532 158.034 113.034 161.175 97.2505C164.316 81.4669 162.706 65.1064 156.549 50.2378C150.392 35.3692 139.964 22.6605 126.584 13.7183C113.204 4.77601 97.4729 0.00197838 81.3799 6.14574e-07C70.6934 -0.00131271 60.1115 2.10228 50.238 6.19092C40.3646 10.2796 31.3931 16.2731 23.8362 23.8291C16.2792 31.3851 10.2847 40.3556 6.19482 50.2285C2.10497 60.1014 -8.07008e-08 70.6831 0 81.3696V81.3696Z" transform="translate(224.207 622.476)" fill="#C3BFBE"/>
<path d="M0.734562 10.96L19.5646 32.3599C19.5646 32.3599 22.8146 37.4902 27.2646 37.4902C31.7146 37.4902 34.9748 33.8999 34.9748 33.8999L54.6647 10.96C54.6647 10.96 57.4047 7.69998 54.6647 5.47998C51.9247 3.25998 42.3246 0 28.9846 0C15.6446 0 -4.05544 3.58996 0.734562 10.96Z" transform="translate(276.603 638.335)" fill="#27262C"/>
<path d="M0.733962 26.5303L19.564 5.13037C19.564 5.13037 22.824 0 27.274 0C31.724 0 34.984 3.59033 34.984 3.59033L54.6741 26.5303C54.6741 26.5303 57.4141 29.78 54.6741 32C51.9341 34.22 42.324 37.48 28.994 37.48C15.664 37.48 -4.05604 33.9003 0.733962 26.5303Z" transform="translate(276.604 731.865)" fill="#27262C"/>
<path d="M26.54 0.734861L5.13989 19.5649C5.13989 19.5649 0 22.8151 0 27.2651C0 31.7151 3.58984 34.9751 3.58984 34.9751L26.53 54.665C26.53 54.665 29.78 57.405 32 54.665C34.22 51.925 37.48 42.3151 37.48 28.9751C37.48 15.6351 33.95 -4.05514 26.54 0.734861Z" transform="translate(334.258 675.9)" fill="#27262C"/>
<path d="M10.97 0.735175L32.3699 19.5653C32.3699 19.5653 37.5 22.8154 37.5 27.2654C37.5 31.7154 33.8999 34.9652 33.8999 34.9652L10.96 54.6556C10.96 54.6556 7.70997 57.3956 5.46997 54.6556C3.22997 51.9156 0 42.3052 0 28.9652C0 15.6252 3.60997 -4.05483 10.97 0.735175Z" transform="translate(240.717 675.9)" fill="#27262C"/>
<path d="M0 0H47.8401V120.5C47.8401 120.5 20.4701 119.58 9.84009 103.63C-0.789912 87.6799 0.0500488 63 0.0500488 63L0 0Z" transform="translate(7.36719 609.085)" fill="#3F3F3F"/>
<path d="M36 0H0V11H36V0Z" transform="translate(11.207 630.085)" fill="#FF9F06"/>
<path d="M2.62263 170H17.7025L25.6326 82.29L72.6326 22H228.912C228.912 22 299.103 56 299.103 170H319.422C319.422 170 310.622 26 233.952 0H74.2725C74.2725 0 -16.3974 55 2.62263 170Z" transform="translate(149.935 559.085)" fill="#262626"/>
<path d="M62.3908 0C62.3908 0 17.6707 0.0600882 8.80074 12.3401C-0.0692625 24.6201 -2.58919 113.07 2.87081 150.59L5.7607 157.06L184.861 131.06V0H62.3908Z" transform="translate(54.3359 227.085)" fill="#3F3F3F"/>
<path d="M167.657 1.37142V116.371L3.21719 139.811C3.21719 139.811 -8.15292 28.6113 11.8571 11.5513C31.8671 -5.50865 167.657 1.37142 167.657 1.37142Z" transform="translate(59.5498 234.184)" fill="#788D9E"/>
<path d="M7.60111 19.7616C10.2402 14.6478 11.199 8.83178 10.3411 3.14148C8.8111 -6.07852 -0.108991 7.29169 0.00100871 13.8517C0.111009 20.4117 -0.258894 19.7616 7.60111 19.7616Z" transform="translate(54.3359 380.104)" fill="#3F3F3F"/>
<path d="M22.7343 84.8601V0H9.73431C9.73431 0 -1.17557 18.5201 0.104426 39.6201C1.38443 60.7201 -2.26569 84.8601 22.7343 84.8601Z" transform="translate(50.4727 309.085)" fill="#232222"/>
<path d="M0 2.81629C0 2.81629 13.2901 116.636 12.0801 132.616C12.0801 132.616 94.64 124.306 112.54 103.836C130.44 83.3663 119.54 9.20631 108.7 2.83631C97.86 -3.53369 0 2.81629 0 2.81629Z" transform="translate(252.667 221.849)" fill="#788D9E"/>
<path d="M75.6899 3.78003C100.89 3.78003 105.86 5.5601 106.79 6.1001C108.44 7.1001 112.85 15.24 115.93 34.26C119.87 58.66 119.6 90.0801 109.7 101.39C96.61 116.39 41.0901 125.54 15.9001 128.44C15.4401 105.07 6.38995 25.4401 4.19995 6.36011C15.64 5.67011 49.5799 3.77002 75.6899 3.77002V3.78003ZM75.6899 0C43.4799 0 0 2.84009 0 2.84009C0 2.84009 13.2901 116.66 12.0801 132.64C12.0801 132.64 94.64 124.33 112.54 103.86C130.44 83.3901 119.54 9.23011 108.7 2.86011C105.08 0.730107 91.79 0.0200195 75.7 0.0200195L75.6899 0Z" transform="translate(252.667 221.815)" fill="#3F3F3F"/>
<path d="M0 25.9502C0 25.9502 14.56 0 30.53 0H45.75V26.3701L0 25.9502Z" transform="translate(197.457 458.085)" fill="#373737"/>
<path opacity="0.7" d="M29.05 0C29.05 0 34 12.7901 0 18.0801V12.3701C0 12.3701 20.65 16.05 29.05 0Z" transform="translate(9.20703 485.295)" fill="#A3A8AC"/>
<path d="M0 47.8398C1.077 46.7223 2.24427 45.6957 3.48999 44.77L5.55005 43.28C6.36348 42.6625 7.22268 42.1074 8.12012 41.6199C10.2585 40.2687 12.4908 39.0724 14.8 38.04C17.6215 36.6535 20.531 35.4542 23.51 34.45C26.9717 33.1372 30.512 32.0417 34.1101 31.1699C41.7601 28.9999 50.6301 27.67 60.3101 26.46L91.46 23.46L126.24 20.27L163.44 17.02L201.86 13.8198L240.3 10.8198L277.54 8.05005C301.7 6.30005 324.26 4.77983 343.61 3.57983C362.96 2.37983 379.1 1.57988 390.38 0.879883L403.49 0.219971L408.13 0L403.52 0.530029L390.52 1.97998C379.27 3.12998 363.22 4.97982 343.93 6.81982C324.64 8.65982 302.13 10.82 278.01 13.02L240.8 16.27L202.38 19.47L163.94 22.47L126.7 25.23L91.77 27.6399L60.54 29.6399C50.97 30.5399 42.18 31.4099 34.54 33.1599C30.9537 33.846 27.4135 34.7544 23.9399 35.8799C20.9583 36.7278 18.0354 37.7701 15.1899 39C11.1428 40.6159 7.26429 42.6256 3.61011 45C2.33134 45.8466 1.12387 46.7963 0 47.8398V47.8398Z" transform="translate(15.4375 380.146)" fill="#A3A8AC"/>
<path d="M0.111111 361.97C0.111111 359.18 -0.138889 82.2299 0.111111 48.1899C0.371111 13.0599 13.2511 5.59004 13.8011 5.29004L14.201 5.07007H14.6609L200.741 0L200.861 1.81006L221.661 308.53L217.901 308.78L197.241 3.84985L15.3211 8.84985C13.4811 10.2399 4.12091 18.77 3.90091 48.26C3.65091 82.26 3.90091 359.26 3.90091 362.01L0.111111 361.97Z" transform="translate(44.9668 214.885)" fill="#3F3F3F"/>
<path d="M0 37.5901L20 36.46L72.6499 33.6799L147.05 29.8401L189 27.5801C203.28 26.8301 217.79 25.9901 232.29 25.0801C246.79 24.1701 261.29 23.3399 275.56 22.3799L296.76 20.9099L317.43 19.3699C331 18.2599 344.12 17.2301 356.54 16.0601C362.75 15.4601 368.79 14.91 374.62 14.27C380.45 13.63 386.1 13.12 391.5 12.45C396.9 11.78 402.09 11.22 407 10.53C411.91 9.84003 416.59 9.31009 421 8.59009C429.75 7.30009 437.33 5.90996 443.57 4.70996L451.85 2.90991C454.28 2.43991 456.27 1.77011 457.93 1.36011L462.93 0L458 1.75C454.81 2.98 450 4.41992 443.87 6.16992C437.74 7.91992 430.18 9.68993 421.47 11.4299C412.76 13.1699 402.91 15.06 392.11 16.74C381.31 18.42 369.59 20.1399 357.16 21.6599C344.73 23.1799 331.62 24.66 318.03 25.99C304.44 27.32 290.39 28.5999 276.1 29.6499C261.81 30.6999 247.29 31.7199 232.76 32.6499C218.23 33.5799 203.69 34.2299 189.39 34.8899C175.09 35.5499 160.99 36.03 147.39 36.5C133.79 36.97 120.57 37.26 108.07 37.5C95.5701 37.74 83.7501 37.91 72.8401 38.01C51.0201 38.22 32.8401 38.12 20.0901 38.01C13.7201 38.01 8.72006 37.82 5.31006 37.76L0 37.5901Z" transform="translate(43.207 86.5955)" fill="#D4D8DD"/>
<path d="M61.5 172.47V172.39V172.31C59.9298 165.388 57.2014 158.782 53.4299 152.77C48.7099 145.43 8.22014 27.3099 10.6401 2.43994L10.8801 0C4.29013 0.89 0.01 1.66993 0 1.67993C4.44 1.90993 6.89014 2.07983 6.89014 2.07983C4.38014 27.8498 44.6 146.02 50.26 154.82C53.7721 160.437 56.3206 166.602 57.8 173.06C57.8 173.06 79.1701 310.74 83.5701 332.73C87.4601 352.2 91.0701 447.43 91.8501 469.09H95.6201C94.8501 447.34 91.25 351.89 87.26 331.97C82.91 310.32 61.72 173.85 61.5 172.47Z" transform="translate(344.938 44.9456)" fill="black"/>
<path d="M772.97 45H0V0H799.99L772.97 45Z" transform="translate(512.207 577.075)" fill="#8A8685"/>
<path d="M796 0H0V48H796V0Z" transform="translate(475.207 681.085)" fill="#8A8685"/>
<path d="M107.72 215.44C167.212 215.44 215.44 167.212 215.44 107.72C215.44 48.2279 167.212 0 107.72 0C48.2279 0 0 48.2279 0 107.72C0 167.212 48.2279 215.44 107.72 215.44Z" transform="translate(1291.25 596.125)" fill="#27262C"/>
<path d="M81.3699 162.74C126.309 162.74 162.74 126.31 162.74 81.3701C162.74 36.4307 126.309 0 81.3699 0C36.4305 0 0 36.4307 0 81.3701C0 126.31 36.4305 162.74 81.3699 162.74Z" transform="translate(1317.86 622.475)" fill="#C3BFBE"/>
<path d="M0.729836 10.96L19.5599 32.3599C19.5599 32.3599 22.8099 37.4902 27.2599 37.4902C31.7099 37.4902 34.9698 33.8999 34.9698 33.8999L54.6498 10.96C54.6498 10.96 57.3898 7.69998 54.6498 5.47998C51.9098 3.25998 42.3098 0 28.9698 0C15.6298 0 -4.04016 3.58996 0.729836 10.96Z" transform="translate(1370.25 638.335)" fill="#27262C"/>
<path d="M0.729239 26.5303L19.5593 5.13037C19.5593 5.13037 22.8193 0 27.2693 0C31.7193 0 34.9792 3.59033 34.9792 3.59033L54.6592 26.5303C54.6592 26.5303 57.3992 29.78 54.6592 32C51.9192 34.22 42.3092 37.48 28.9792 37.48C15.6492 37.48 -4.04076 33.9003 0.729239 26.5303Z" transform="translate(1370.25 731.865)" fill="#27262C"/>
<path d="M26.54 0.734861L5.14014 19.5649C5.14014 19.5649 0 22.8151 0 27.2651C0 31.7151 3.6001 34.9751 3.6001 34.9751L26.54 54.665C26.54 54.665 29.79 57.405 32.01 54.665C34.23 51.925 37.49 42.3151 37.49 28.9751C37.49 15.6351 33.9 -4.05514 26.54 0.734861Z" transform="translate(1427.9 675.9)" fill="#27262C"/>
<path d="M10.97 0.735175L32.3701 19.5653C32.3701 19.5653 37.5 22.8154 37.5 27.2654C37.5 31.7154 33.9001 34.9652 33.9001 34.9652L10.9602 54.6556C10.9602 54.6556 7.70998 57.3956 5.47998 54.6556C3.24998 51.9156 0 42.3052 0 28.9652C0 15.6252 3.60997 -4.05483 10.97 0.735175Z" transform="translate(1334.37 675.9)" fill="#27262C"/>
<path d="M107.72 215.44C167.212 215.44 215.44 167.212 215.44 107.72C215.44 48.2279 167.212 0 107.72 0C48.2279 0 0 48.2279 0 107.72C0 167.212 48.2279 215.44 107.72 215.44Z" transform="translate(1530.72 596.125)" fill="#27262C"/>
<path d="M81.3699 162.74C126.309 162.74 162.74 126.31 162.74 81.3701C162.74 36.4307 126.309 0 81.3699 0C36.4305 0 0 36.4307 0 81.3701C0 126.31 36.4305 162.74 81.3699 162.74Z" transform="translate(1557.33 622.475)" fill="#C3BFBE"/>
<path d="M0.734876 10.96L19.5645 32.3599C19.5645 32.3599 22.8247 37.4902 27.2647 37.4902C31.7047 37.4902 34.9746 33.8999 34.9746 33.8999L54.6548 10.96C54.6548 10.96 57.3948 7.69998 54.6548 5.47998C51.9148 3.25998 42.3146 0 28.9746 0C15.6346 0 -4.05512 3.58996 0.734876 10.96Z" transform="translate(1609.71 638.335)" fill="#27262C"/>
<path d="M0.734267 26.5303L19.5639 5.13037C19.5639 5.13037 22.8238 0 27.2738 0C31.7238 0 34.9843 3.59033 34.9843 3.59033L54.664 26.5303C54.664 26.5303 57.404 29.78 54.664 32C51.924 34.22 42.3143 37.48 28.9843 37.48C15.6543 37.48 -4.05573 33.9003 0.734267 26.5303Z" transform="translate(1609.71 731.865)" fill="#27262C"/>
<path d="M26.54 0.734861L5.13965 19.5649C5.13965 19.5649 0 22.8151 0 27.2651C0 31.7151 3.58984 34.9751 3.58984 34.9751L26.54 54.665C26.54 54.665 29.7898 57.405 32.0098 54.665C34.2298 51.925 37.4897 42.3151 37.4897 28.9751C37.4897 15.6351 33.9 -4.05514 26.54 0.734861Z" transform="translate(1667.37 675.9)" fill="#27262C"/>
<path d="M10.9702 0.735175L32.3701 19.5653C32.3701 19.5653 37.5 22.8154 37.5 27.2654C37.5 31.7154 33.8999 34.9652 33.8999 34.9652L10.9602 54.6556C10.9602 54.6556 7.71021 57.3956 5.47021 54.6556C3.23021 51.9156 0 42.3052 0 28.9652C0 15.6252 3.60021 -4.05483 10.9702 0.735175Z" transform="translate(1573.84 675.9)" fill="#27262C"/>
<path d="M1574 0H0V537H1574V0Z" transform="translate(524.207 0.0854492)" fill="#EDEDED"/>
<path d="M1570 4V534H3V4H1570ZM1574 0H0V537H1574V0Z" transform="translate(524.207 0.0854492)" fill="#262626"/>
</svg>
