<svg width="12" height="12" viewBox="0 0 12 12" fill="none" xmlns="http://www.w3.org/2000/svg">
<path fill-rule="evenodd" clip-rule="evenodd" d="M5.86309 0.85733L7.53848 4.5724H11.1685L8.65541 7.14438L9.21387 11.1452L5.86309 8.81044L2.51231 11.1452L3.35 7.14438L0.836914 4.5724H4.1877L5.86309 0.85733ZM5.86316 0C5.53699 0.00028628 5.24064 0.194305 5.10365 0.497248L3.65164 3.71507H0.836983C0.498396 3.71538 0.19328 3.92425 0.0637488 4.24441C-0.0657826 4.56458 0.00574306 4.93306 0.245012 5.17824L2.43419 7.41871L1.68864 10.9623C1.61686 11.3049 1.75595 11.6577 2.03992 11.8533C2.32389 12.0489 2.6956 12.0481 2.97869 11.8511L5.86036 9.85066L8.73645 11.8511C9.0106 12.0423 9.36919 12.05 9.65088 11.8706C9.93256 11.6912 10.0842 11.3585 10.0377 11.0223L9.54064 7.44443L11.7577 5.17538C11.9947 4.93031 12.0651 4.56383 11.9366 4.24517C11.808 3.9265 11.5054 3.71766 11.1686 3.71507H8.07467L6.62267 0.497248C6.48568 0.194305 6.18933 0.00028628 5.86316 0Z" fill="black"/>
</svg>
