<svg width="39" height="39" viewBox="0 0 39 39" fill="none" xmlns="http://www.w3.org/2000/svg">
<path d="M19.5 0C8.74747 0 0 8.74747 0 19.5C0 30.2525 8.74747 39 19.5 39C30.2525 39 39 30.2525 39 19.5C39 8.74747 30.2525 0 19.5 0ZM19.5 36.7059C10.0127 36.7059 2.29412 28.9873 2.29412 19.5C2.29412 10.0127 10.0127 2.29412 19.5 2.29412C28.9873 2.29412 36.7059 10.0127 36.7059 19.5C36.7059 28.9873 28.9885 36.7059 19.5 36.7059Z" fill="#1BB7CD"/>
<path d="M13.5135 6.46139L10.3235 0L7.13356 6.46139L0 7.50062L5.16176 12.5305L3.94473 19.6354L10.3235 16.2814L16.7035 19.6354L15.4853 12.5305L20.6471 7.50062L13.5135 6.46139Z" transform="translate(8.88965 8.24182)" fill="#23CF5F"/>
</svg>
