<svg width="44" height="37" viewBox="0 0 44 37" fill="none" xmlns="http://www.w3.org/2000/svg">
<path d="M9.69231 35V1.59091C9.69231 0.712274 8.96908 0 8.07692 0H1.61538C0.723233 0 0 0.712274 0 1.59091V35" transform="translate(30.0771 1)" stroke="#23CF5F" stroke-width="2" stroke-miterlimit="10" stroke-linecap="round" stroke-linejoin="round"/>
<path d="M9.69231 23.8636V1.59091C9.69231 0.712274 8.96908 0 8.07692 0H1.61538C0.723232 0 0 0.712274 0 1.59091V23.8636" transform="translate(17.1538 12.1362)" stroke="#00AEEF" stroke-width="2" stroke-miterlimit="10" stroke-linecap="round" stroke-linejoin="round"/>
<path d="M9.69231 12.7273V1.59091C9.69231 0.712275 8.96908 0 8.07692 0H1.61538C0.723232 0 0 0.712275 0 1.59091V12.7273" transform="translate(4.23096 23.2728)" stroke="#1BB7CD" stroke-width="2" stroke-miterlimit="10" stroke-linecap="round" stroke-linejoin="round"/>
<path d="M0 0H42" transform="translate(1 36)" stroke="#00AEEF" stroke-width="2" stroke-miterlimit="10" stroke-linecap="round" stroke-linejoin="round"/>
</svg>
