<svg width="18" height="18" viewBox="0 0 18 18" fill="none" xmlns="http://www.w3.org/2000/svg">
<path fill-rule="evenodd" clip-rule="evenodd" d="M16.5723 0.531058C15.9866 -0.0538483 15.0379 -0.0538483 14.4523 0.531058L8.76225 6.45106L2.57225 0.451058C2.19003 0.0603682 1.62555 -0.0914962 1.09889 0.0546722C0.572236 0.200841 0.166768 0.621903 0.0405709 1.1537C-0.0856267 1.6855 0.0874231 2.24384 0.492254 2.61106L6.64225 8.53106L0.492254 14.4511C0.0874231 14.8183 -0.0856267 15.3766 0.0405709 15.9084C0.166768 16.4402 0.572236 16.8613 1.09889 17.0074C1.62555 17.1536 2.19003 17.0017 2.57225 16.6111L8.76225 10.6111L14.4523 16.5311C14.8195 16.9359 15.3778 17.1089 15.9096 16.9827C16.4414 16.8565 16.8625 16.4511 17.0086 15.9244C17.1548 15.3978 17.0029 14.8333 16.6123 14.4511L10.8823 8.45106L16.6123 2.45106C17.064 1.88528 17.0472 1.07753 16.5723 0.531058Z" transform="translate(0.187744 0.78894)" fill="black"/>
</svg>
