<svg width="44" height="41" viewBox="0 0 44 41" fill="none" xmlns="http://www.w3.org/2000/svg">
<path fill-rule="evenodd" clip-rule="evenodd" d="M42.6545 16.7117L23.7945 0.711682C22.6752 -0.237227 21.0338 -0.237227 19.9145 0.711682L1.05451 16.7117C0.117938 17.5097 -0.236419 18.7986 0.160607 19.9632C0.557634 21.1279 1.62554 21.932 2.85451 21.9917V37.9917C2.85451 39.6485 4.19766 40.9917 5.85451 40.9917H37.8545C39.5114 40.9917 40.8545 39.6485 40.8545 37.9917V22.0017C42.0835 21.942 43.1514 21.1379 43.5484 19.9732C43.9454 18.8086 43.5911 17.5197 42.6545 16.7217V16.7117ZM20.8545 38.0017H18.8545V29.0017H24.8545V38.0017H20.8545ZM37.8541 19.0017V38.0017H27.8541V29.0017C27.8541 27.3448 26.511 26.0017 24.8541 26.0017H18.8541C17.1973 26.0017 15.8541 27.3448 15.8541 29.0017V38.0017H5.85414V19.0017H2.99414L21.8541 3.00168L40.7141 19.0017H37.8541Z" fill="#00AEEF"/>
</svg>
