<svg width="36" height="44" viewBox="0 0 36 44" fill="none" xmlns="http://www.w3.org/2000/svg">
<path fill-rule="evenodd" clip-rule="evenodd" d="M18 0C8.16313 0.247287 0.247287 8.16313 0 18C0.166892 20.9084 0.969035 23.7449 2.35 26.31L2.49 26.56C13.37 44 16.62 44 18 44C20.16 44 22.49 42.48 28 34.73C30.89 30.73 33.37 26.73 33.47 26.55L33.61 26.31C35.0049 23.7482 35.8207 20.9115 36 18C35.7527 8.16313 27.8369 0.247287 18 0V0ZM31 25C31 25 21 41 18 41C15 41 5 25 5 25C3.83744 22.8377 3.15524 20.4501 3 18C3 9.71573 9.71573 3 18 3C26.2843 3 33 9.71573 33 18C32.8355 20.4523 32.143 22.8401 30.97 25H31Z" fill="#00AEEF"/>
<path fill-rule="evenodd" clip-rule="evenodd" d="M8 0C3.58172 0 0 3.58172 0 8C0 12.4183 3.58172 16 8 16C12.4183 16 16 12.4183 16 8C16 3.58172 12.4183 0 8 0ZM8 13C5.23858 13 3 10.7614 3 8C3 5.23858 5.23858 3 8 3C10.7614 3 13 5.23858 13 8C13 10.7614 10.7614 13 8 13Z" transform="translate(10 9)" fill="#23CF5F"/>
</svg>
