<svg width="22" height="24" viewBox="0 0 22 24" fill="none" xmlns="http://www.w3.org/2000/svg">
<path fill-rule="evenodd" clip-rule="evenodd" d="M21.067 21.61L16.0204 16.4445C19.5565 12.783 19.6642 6.90528 16.2648 3.10907C12.8654 -0.687144 7.16426 -1.05583 3.32983 2.27258C-0.504595 5.601 -1.11266 11.4463 1.95023 15.5346C5.01312 19.6229 10.6609 20.5046 14.7642 17.5349L19.9091 22.8297C20.2319 23.1393 20.735 23.1301 21.047 22.8091C21.3589 22.488 21.3678 21.9703 21.067 21.6381V21.61ZM1.78162 9.69959C1.78162 5.35361 5.20506 1.83051 9.42809 1.83051C13.6511 1.83051 17.0746 5.35361 17.0746 9.69959C17.0746 14.0456 13.6511 17.5687 9.42809 17.5687C5.20506 17.5687 1.78162 14.0456 1.78162 9.69959Z" transform="translate(0 0.686218)" fill="black"/>
</svg>
