<svg width="15" height="15" viewBox="0 0 15 15" fill="none" xmlns="http://www.w3.org/2000/svg">
<path fill-rule="evenodd" clip-rule="evenodd" d="M14.4079 6.9079H8.09211V0.592105C8.09211 0.265095 7.82701 0 7.5 0C7.17299 0 6.9079 0.265095 6.9079 0.592105V6.9079H0.592105C0.265095 6.9079 0 7.17299 0 7.5C0 7.82701 0.265095 8.09211 0.592105 8.09211H6.9079V14.4079C6.9079 14.7349 7.17299 15 7.5 15C7.82701 15 8.09211 14.7349 8.09211 14.4079V8.09211H14.4079C14.7349 8.09211 15 7.82701 15 7.5C15 7.17299 14.7349 6.9079 14.4079 6.9079Z" fill="white"/>
</svg>
