<svg width="145" height="145" viewBox="0 0 145 145" fill="none" xmlns="http://www.w3.org/2000/svg">
<rect x="11.5" y="109.5" width="22" height="22" fill="#31E16E" stroke="#42D475"/>
<circle cx="72.5" cy="72.5" r="72" fill="#23CF5F"/>
<circle cx="72.5" cy="72.5" r="72" fill="url(#paint0_linear)"/>
<circle cx="72.5" cy="72.5" r="72" stroke="#30CB66"/>
<path d="M34.4434 52.6074H35.7764C37.4365 52.6074 38.6084 52.3828 39.292 51.9336C39.9854 51.4746 40.332 50.708 40.332 49.6338C40.332 48.4619 40.0146 47.6416 39.3799 47.1729C38.7451 46.6943 37.5439 46.4551 35.7764 46.4551H34.4434V52.6074ZM34.4434 62.085H35.6445C36.8652 62.085 37.7783 62.0361 38.3838 61.9385C38.9893 61.8408 39.4678 61.6699 39.8193 61.4258C40.249 61.1426 40.5811 60.7617 40.8154 60.2832C41.0498 59.8047 41.167 59.2773 41.167 58.7012C41.167 58.0176 41.0254 57.4219 40.7422 56.9141C40.459 56.4062 40.0537 56.0107 39.5264 55.7275C39.1943 55.5615 38.8135 55.4395 38.3838 55.3613C37.9639 55.2832 37.4023 55.2441 36.6992 55.2441H35.6445H34.4434V62.085ZM31.0303 65V43.5547H36.4355C37.9785 43.5547 39.1162 43.6377 39.8486 43.8037C40.5908 43.9697 41.2207 44.2432 41.7383 44.624C42.4023 45.1123 42.915 45.752 43.2764 46.543C43.6475 47.334 43.833 48.208 43.833 49.165C43.833 50.3076 43.5693 51.2646 43.042 52.0361C42.5146 52.7979 41.748 53.3301 40.7422 53.6328C41.9922 53.8281 42.9736 54.3994 43.6865 55.3467C44.4092 56.2842 44.7705 57.4707 44.7705 58.9062C44.7705 59.7754 44.6191 60.6006 44.3164 61.3818C44.0137 62.1631 43.584 62.8271 43.0273 63.374C42.4414 63.9697 41.7139 64.3896 40.8447 64.6338C39.9756 64.8779 38.5156 65 36.4648 65H31.0303ZM66.6699 54.3213C66.6699 53.2373 66.4697 52.207 66.0693 51.2305C65.6787 50.2539 65.1123 49.3848 64.3701 48.623C63.6475 47.8711 62.8076 47.2949 61.8506 46.8945C60.9033 46.4844 59.9023 46.2793 58.8477 46.2793C57.793 46.2793 56.7871 46.4795 55.8301 46.8799C54.8828 47.2803 54.0381 47.8613 53.2959 48.623C52.5537 49.375 51.9873 50.2393 51.5967 51.2158C51.2061 52.1924 51.0107 53.2275 51.0107 54.3213C51.0107 55.4053 51.2061 56.4307 51.5967 57.3975C51.9873 58.3643 52.5537 59.2285 53.2959 59.9902C54.0381 60.752 54.8828 61.333 55.8301 61.7334C56.7773 62.1338 57.7832 62.334 58.8477 62.334C59.8926 62.334 60.8838 62.1338 61.8213 61.7334C62.7686 61.333 63.6182 60.752 64.3701 59.9902C65.1123 59.2285 65.6787 58.3643 66.0693 57.3975C66.4697 56.4209 66.6699 55.3955 66.6699 54.3213ZM70.3027 54.3213C70.3027 55.8447 70.0146 57.2852 69.4385 58.6426C68.8721 60 68.042 61.2109 66.9482 62.2754C65.8447 63.3398 64.5996 64.1553 63.2129 64.7217C61.8262 65.2881 60.3711 65.5713 58.8477 65.5713C57.3047 65.5713 55.8301 65.2881 54.4238 64.7217C53.0273 64.1455 51.792 63.3301 50.7178 62.2754C49.624 61.2109 48.7939 60.0049 48.2275 58.6572C47.6611 57.3096 47.3779 55.8643 47.3779 54.3213C47.3779 52.7881 47.6611 51.3428 48.2275 49.9854C48.7939 48.6279 49.624 47.4121 50.7178 46.3379C51.8115 45.2734 53.0518 44.4629 54.4385 43.9062C55.8252 43.3496 57.2949 43.0713 58.8477 43.0713C60.3906 43.0713 61.8506 43.3496 63.2275 43.9062C64.6143 44.4629 65.8545 45.2734 66.9482 46.3379C68.042 47.4219 68.8721 48.6475 69.4385 50.0146C70.0146 51.3721 70.3027 52.8076 70.3027 54.3213ZM92.6562 54.3213C92.6562 53.2373 92.4561 52.207 92.0557 51.2305C91.665 50.2539 91.0986 49.3848 90.3564 48.623C89.6338 47.8711 88.7939 47.2949 87.8369 46.8945C86.8896 46.4844 85.8887 46.2793 84.834 46.2793C83.7793 46.2793 82.7734 46.4795 81.8164 46.8799C80.8691 47.2803 80.0244 47.8613 79.2822 48.623C78.54 49.375 77.9736 50.2393 77.583 51.2158C77.1924 52.1924 76.9971 53.2275 76.9971 54.3213C76.9971 55.4053 77.1924 56.4307 77.583 57.3975C77.9736 58.3643 78.54 59.2285 79.2822 59.9902C80.0244 60.752 80.8691 61.333 81.8164 61.7334C82.7637 62.1338 83.7695 62.334 84.834 62.334C85.8789 62.334 86.8701 62.1338 87.8076 61.7334C88.7549 61.333 89.6045 60.752 90.3564 59.9902C91.0986 59.2285 91.665 58.3643 92.0557 57.3975C92.4561 56.4209 92.6562 55.3955 92.6562 54.3213ZM96.2891 54.3213C96.2891 55.8447 96.001 57.2852 95.4248 58.6426C94.8584 60 94.0283 61.2109 92.9346 62.2754C91.8311 63.3398 90.5859 64.1553 89.1992 64.7217C87.8125 65.2881 86.3574 65.5713 84.834 65.5713C83.291 65.5713 81.8164 65.2881 80.4102 64.7217C79.0137 64.1455 77.7783 63.3301 76.7041 62.2754C75.6104 61.2109 74.7803 60.0049 74.2139 58.6572C73.6475 57.3096 73.3643 55.8643 73.3643 54.3213C73.3643 52.7881 73.6475 51.3428 74.2139 49.9854C74.7803 48.6279 75.6104 47.4121 76.7041 46.3379C77.7979 45.2734 79.0381 44.4629 80.4248 43.9062C81.8115 43.3496 83.2812 43.0713 84.834 43.0713C86.377 43.0713 87.8369 43.3496 89.2139 43.9062C90.6006 44.4629 91.8408 45.2734 92.9346 46.3379C94.0283 47.4219 94.8584 48.6475 95.4248 50.0146C96.001 51.3721 96.2891 52.8076 96.2891 54.3213ZM100.288 65V43.5547H103.774V52.4316L111.479 43.5547H115.742L107.246 53.0908L116.753 65H112.256L103.774 54.043V65H100.288ZM35.8203 101V78.7051L49.4434 91.8154C49.8145 92.1865 50.1904 92.582 50.5713 93.002C50.9521 93.4219 51.3525 93.8955 51.7725 94.4229V79.5547H54.9951V101.835L41.0938 88.4902C40.7227 88.1289 40.3613 87.748 40.0098 87.3477C39.668 86.9473 39.3408 86.5273 39.0283 86.0879V101H35.8203ZM78.2861 90.3213C78.2861 89.2373 78.0859 88.207 77.6855 87.2305C77.2949 86.2539 76.7285 85.3848 75.9863 84.623C75.2637 83.8711 74.4238 83.2949 73.4668 82.8945C72.5195 82.4844 71.5186 82.2793 70.4639 82.2793C69.4092 82.2793 68.4033 82.4795 67.4463 82.8799C66.499 83.2803 65.6543 83.8613 64.9121 84.623C64.1699 85.375 63.6035 86.2393 63.2129 87.2158C62.8223 88.1924 62.627 89.2275 62.627 90.3213C62.627 91.4053 62.8223 92.4307 63.2129 93.3975C63.6035 94.3643 64.1699 95.2285 64.9121 95.9902C65.6543 96.752 66.499 97.333 67.4463 97.7334C68.3936 98.1338 69.3994 98.334 70.4639 98.334C71.5088 98.334 72.5 98.1338 73.4375 97.7334C74.3848 97.333 75.2344 96.752 75.9863 95.9902C76.7285 95.2285 77.2949 94.3643 77.6855 93.3975C78.0859 92.4209 78.2861 91.3955 78.2861 90.3213ZM81.9189 90.3213C81.9189 91.8447 81.6309 93.2852 81.0547 94.6426C80.4883 96 79.6582 97.2109 78.5645 98.2754C77.4609 99.3398 76.2158 100.155 74.8291 100.722C73.4424 101.288 71.9873 101.571 70.4639 101.571C68.9209 101.571 67.4463 101.288 66.04 100.722C64.6436 100.146 63.4082 99.3301 62.334 98.2754C61.2402 97.2109 60.4102 96.0049 59.8438 94.6572C59.2773 93.3096 58.9941 91.8643 58.9941 90.3213C58.9941 88.7881 59.2773 87.3428 59.8438 85.9854C60.4102 84.6279 61.2402 83.4121 62.334 82.3379C63.4277 81.2734 64.668 80.4629 66.0547 79.9062C67.4414 79.3496 68.9111 79.0713 70.4639 79.0713C72.0068 79.0713 73.4668 79.3496 74.8438 79.9062C76.2305 80.4629 77.4707 81.2734 78.5645 82.3379C79.6582 83.4219 80.4883 84.6475 81.0547 86.0146C81.6309 87.3721 81.9189 88.8076 81.9189 90.3213ZM83.3691 79.5547H86.8115L90.8691 90.3799C91.1328 91.0928 91.3525 91.7178 91.5283 92.2549C91.7139 92.792 91.875 93.2949 92.0117 93.7637C92.3535 92.6309 92.71 91.5225 93.0811 90.4385C93.1299 90.3018 93.1641 90.209 93.1836 90.1602L97.4902 78.7051L102.031 90.3799C102.246 90.9463 102.446 91.5127 102.632 92.0791C102.827 92.6455 103.008 93.2168 103.174 93.793C103.271 93.3535 103.403 92.8701 103.569 92.3428C103.735 91.8154 103.95 91.1904 104.214 90.4678L108.242 79.5547H111.714L103.408 101.835L98.5156 89.6035C98.3008 89.0566 98.1055 88.5342 97.9297 88.0361C97.7539 87.5283 97.5977 87.0498 97.4609 86.6006C97.2949 87.1768 97.1289 87.7188 96.9629 88.2266C96.7969 88.7246 96.626 89.2031 96.4502 89.6621L91.6455 101.835L83.3691 79.5547Z" fill="white"/>
<defs>
<linearGradient id="paint0_linear" x1="72.5" y1="0" x2="72.5" y2="145" gradientUnits="userSpaceOnUse">
<stop offset="0.480663" stop-color="white" stop-opacity="0.17"/>
<stop offset="0.618785" stop-color="white" stop-opacity="0"/>
</linearGradient>
</defs>
</svg>
