<svg width="785" height="362" viewBox="0 0 785 362" fill="none" xmlns="http://www.w3.org/2000/svg">
<rect width="784.94" height="361.025" fill="black" fill-opacity="0"/>
<path d="M37.63 131.945H72.34L69.01 205.805L91.92 131.945H119.92L119.58 205.805L139.5 131.945H174.21L130.3 256.755H98.24L98.58 178.755L74.22 256.755H42.22L37.63 131.945Z" fill="#383838"/>
<path d="M199.92 256.755L201.29 247.095C198.11 250.78 194.326 253.898 190.1 256.315C186.599 258.223 182.677 259.223 178.69 259.225C171.797 259.225 166.427 256.558 162.58 251.225C158.733 245.892 156.81 238.398 156.81 228.745C156.81 211.078 160.317 196.332 167.33 184.505C174.343 172.678 183.033 166.765 193.4 166.765C197.107 166.676 200.761 167.662 203.92 169.605C207.315 171.957 210.11 175.075 212.08 178.705L213.7 169.215H245.16L231.31 256.755H199.92ZM201.29 194.095C198.097 194.095 195.347 196.762 193.04 202.095C190.733 207.428 189.567 213.835 189.54 221.315C189.54 224.648 190.04 227.212 191.04 229.005C191.433 229.813 192.048 230.491 192.813 230.961C193.579 231.43 194.462 231.671 195.36 231.655C198.493 231.655 201.2 228.948 203.48 223.535C205.76 218.122 206.907 211.642 206.92 204.095C206.92 200.762 206.45 198.268 205.51 196.615C205.118 195.829 204.507 195.174 203.752 194.727C202.996 194.28 202.127 194.06 201.25 194.095H201.29Z" fill="#383838"/>
<path d="M251.35 225.985C254.309 228.775 257.649 231.132 261.27 232.985C264.097 234.472 267.227 235.29 270.42 235.375C272.197 235.474 273.957 234.978 275.42 233.965C276.012 233.528 276.488 232.954 276.809 232.292C277.129 231.63 277.284 230.9 277.26 230.165C277.26 227.545 274.78 224.695 269.82 221.615C268.793 220.988 268.023 220.505 267.51 220.165C261.637 216.352 257.447 212.618 254.94 208.965C252.409 205.239 251.095 200.819 251.18 196.315C251.18 187.595 254.23 180.485 260.33 174.985C266.43 169.485 274.41 166.735 284.27 166.735C288.653 166.74 293.02 167.284 297.27 168.355C301.475 169.39 305.526 170.97 309.32 173.055L303.92 196.315C301.332 194.247 298.505 192.498 295.5 191.105C293.182 190.028 290.665 189.446 288.11 189.395C286.3 189.305 284.511 189.815 283.02 190.845C282.418 191.268 281.928 191.831 281.593 192.487C281.258 193.142 281.089 193.869 281.1 194.605C281.1 196.485 282.837 198.622 286.31 201.015C287.643 201.928 288.643 202.642 289.31 203.155C296.717 208.628 301.46 213.132 303.54 216.665C305.682 220.44 306.76 224.726 306.66 229.065C306.66 238.072 303.54 245.325 297.3 250.825C291.06 256.325 282.753 259.075 272.38 259.075C267.113 259.053 261.88 258.231 256.86 256.635C251.701 255.039 246.792 252.722 242.28 249.755L251.35 225.985Z" fill="#383838"/>
<path d="M311.61 256.755L333.15 120.575H364.62L355.38 178.315C357.8 175.061 360.889 172.364 364.44 170.405C367.723 168.63 371.398 167.706 375.13 167.715C381.91 167.715 387.14 169.425 390.82 172.845C394.5 176.265 396.337 181.139 396.33 187.465C396.33 188.945 396.243 190.612 396.07 192.465C395.897 194.319 395.583 196.712 395.13 199.645L386.13 256.755H354.53L362.74 205.125C362.751 204.79 362.781 204.457 362.83 204.125C363.003 202.985 363.09 202.319 363.09 202.125C363.162 201.422 363.077 200.712 362.84 200.047C362.603 199.381 362.221 198.776 361.72 198.277C361.22 197.778 360.615 197.397 359.949 197.161C359.283 196.926 358.573 196.842 357.87 196.915C357.041 196.908 356.223 197.103 355.486 197.483C354.749 197.863 354.115 198.416 353.64 199.095C352.361 200.994 351.58 203.185 351.37 205.465L343.16 256.755H311.61Z" fill="#383838"/>
<path d="M624.58 184.605H669.2C668.233 209.938 663.39 228.702 654.67 240.895C645.95 253.088 633.07 259.202 616.03 259.235C602.81 259.235 592.737 255.175 585.81 247.055C578.883 238.935 575.42 227.182 575.42 211.795C575.367 200.2 576.819 188.647 579.74 177.425C582.62 166.545 586.653 157.285 591.84 149.645C596.068 143.222 601.905 138.019 608.77 134.555C616.044 131.053 624.039 129.31 632.11 129.465C643.05 129.465 651.953 132.015 658.82 137.115C665.687 142.215 670.02 149.525 671.82 159.045L639.76 170.925C638.847 166.992 637.663 164.242 636.21 162.675C635.434 161.88 634.498 161.259 633.463 160.853C632.429 160.448 631.32 160.268 630.21 160.325C627.596 160.303 625.079 161.317 623.21 163.145C621.21 165.025 619.5 167.932 618.08 171.865C615.782 178.823 614.056 185.956 612.92 193.195C611.561 200.601 610.819 208.107 610.7 215.635C610.7 220.422 611.367 223.798 612.7 225.765C614.033 227.732 616.3 228.732 619.5 228.765C621.37 228.804 623.22 228.365 624.873 227.49C626.527 226.616 627.93 225.333 628.95 223.765C631.317 220.432 632.7 215.645 633.1 209.405H621.25L624.58 184.605Z" fill="#383838"/>
<path d="M709.47 259.405C697.217 259.405 687.883 256.158 681.47 249.665C675.057 243.172 671.85 233.682 671.85 221.195C671.85 204.668 675.683 191.462 683.35 181.575C691.017 171.688 701.317 166.745 714.25 166.745C726.503 166.745 735.807 169.978 742.16 176.445C748.513 182.912 751.69 192.415 751.69 204.955C751.69 221.542 747.887 234.765 740.28 244.625C732.673 254.485 722.403 259.412 709.47 259.405ZM703.4 223.315C703.4 226.508 703.857 228.902 704.77 230.495C705.143 231.23 705.717 231.845 706.425 232.268C707.133 232.691 707.946 232.905 708.77 232.885C711.79 232.885 714.457 229.908 716.77 223.955C719.19 217.169 720.349 209.998 720.19 202.795C720.19 199.548 719.733 197.142 718.82 195.575C718.413 194.829 717.804 194.213 717.063 193.797C716.322 193.382 715.479 193.183 714.63 193.225C711.663 193.225 709.057 196.225 706.81 202.225C704.421 208.994 703.266 216.138 703.4 223.315Z" fill="#383838"/>
<path d="M507.79 230.485C513.349 231.739 518.69 233.811 523.64 236.635C527.839 239.041 531.686 242.016 535.07 245.475C537.935 248.412 540.399 251.714 542.4 255.295C543.964 258.066 545.228 260.996 546.17 264.035C546.8 265.909 547.091 267.879 547.03 269.855C546.883 271.188 546.38 271.585 545.52 271.045C544.66 270.505 543.327 269.505 541.52 268.045C539.243 266.339 536.739 264.959 534.08 263.945C530.284 262.48 526.341 261.431 522.32 260.815C516.852 260.016 511.299 259.979 505.82 260.705C498.383 261.685 491.055 263.359 483.93 265.705C474.239 268.885 464.824 272.851 455.78 277.565C452.727 277.02 449.846 275.763 447.37 273.895C444.087 271.652 441.068 269.045 438.37 266.125C435.557 263.102 433.129 259.743 431.14 256.125C429.271 252.948 428.239 249.349 428.14 245.665C428.017 245.011 428.094 244.335 428.36 243.725C429.22 240.705 431.593 238.188 435.48 236.175C438.5 232.442 442.167 227.662 446.48 221.835C450.793 216.009 455.323 209.715 460.07 202.955C464.817 196.195 469.483 189.292 474.07 182.245C478.657 175.198 482.817 168.555 486.55 162.315C490.217 156.135 493.217 150.742 495.55 146.135C497.883 141.528 499.033 138.222 499 136.215C497 135.782 494.483 136.392 491.45 138.045C488.037 139.966 484.789 142.166 481.74 144.625C478.287 147.358 474.763 150.378 471.17 153.685C467.577 156.992 464.197 160.048 461.03 162.855C457.863 165.662 455.13 167.995 452.83 169.855C450.53 171.715 448.863 172.505 447.83 172.225C446.128 171.729 444.548 170.884 443.19 169.745C441.295 168.293 439.532 166.677 437.92 164.915C436.236 163.104 434.754 161.116 433.5 158.985C432.371 157.208 431.739 155.16 431.67 153.055C431.67 150.755 432.857 147.842 435.23 144.315C437.947 140.378 441.017 136.697 444.4 133.315C448.358 129.307 452.538 125.525 456.92 121.985C461.297 118.404 465.911 115.124 470.73 112.165C474.803 109.626 479.097 107.46 483.56 105.695C487.513 104.188 490.787 103.722 493.38 104.295C497.488 105.309 501.417 106.944 505.03 109.145C513.771 114.379 520.555 122.336 524.34 131.795C526.483 137.25 527.474 143.089 527.25 148.945C527.25 152.538 525.847 157.465 523.04 163.725C519.833 170.726 516.22 177.535 512.22 184.115C507.833 191.448 502.833 198.998 497.22 206.765C491.607 214.532 485.94 221.722 480.22 228.335C485.827 228.335 491.077 228.515 495.97 228.875C499.945 229.11 503.897 229.648 507.79 230.485V230.485Z" fill="#55B748"/>
<path d="M0 131.375C8.46 119.375 19.31 109.245 30.93 100.205C42.6913 91.2179 55.4163 83.5675 68.87 77.3952C96.0582 65.29 125.377 58.6961 155.13 57.9952C169.8 57.6352 184.49 57.6452 199.13 58.3552C213.79 59.2252 228.44 60.5552 242.92 62.6052C257.42 64.4852 271.73 66.9752 286.12 67.8852C300.597 68.8964 315.141 68.3432 329.5 66.2352C315.343 70.193 300.72 72.2378 286.02 72.3152C271.25 72.4252 256.64 70.8652 242.17 69.6052C227.7 68.3452 213.27 67.2552 198.81 66.8952C184.35 66.5352 169.88 66.5152 155.41 67.0152C151.77 67.0152 148.25 67.4352 144.67 67.6252C141.09 67.8152 137.52 68.0752 133.96 68.3852L123.34 69.9252L118.03 70.6952C116.26 70.9552 114.53 71.4052 112.78 71.7552L102.28 73.9752C98.8 74.7952 95.4 75.9152 91.95 76.8752L86.79 78.3652C85.09 78.9052 83.43 79.5852 81.74 80.1652C78.38 81.3952 74.96 82.4952 71.64 83.8352L61.77 88.1152C58.48 89.5552 55.36 91.3352 52.12 92.8852C48.88 94.4352 45.8 96.3052 42.67 98.0852C41.12 99.0052 39.52 99.8452 38.02 100.825L33.49 103.825C21.2563 111.624 10.0113 120.875 0 131.375V131.375Z" fill="#383838"/>
<path d="M282.49 69.0551C301.99 57.6151 321.94 47.1351 342.13 37.1551C362.32 27.1751 382.79 17.8551 404.26 10.2751C406.97 9.38513 409.7 8.51515 412.49 7.73515C415.28 6.95515 418.16 6.26515 420.88 5.73515C426.393 4.48849 431.957 3.41847 437.57 2.52513C460.168 -1.1948 483.252 -0.801824 505.71 3.68514C516.81 6.0394 527.779 8.97682 538.57 12.4852C544.091 14.1347 549.519 16.0809 554.83 18.3151C560.15 20.5451 565.24 23.0951 570.34 25.6151C580.47 30.7351 590.41 36.0751 600.34 41.4051C620.19 52.0151 639.79 62.9651 659.78 73.0051C669.78 78.0051 679.78 83.0051 689.93 87.6051C700.08 92.2051 710.32 96.6051 720.69 100.605C741.44 108.465 762.79 114.955 784.94 117.085C773.783 117.158 762.644 116.154 751.68 114.085C740.653 112.069 729.759 109.38 719.06 106.035C708.31 102.785 697.72 98.9851 687.25 94.8651C676.78 90.7451 666.38 86.4151 656.14 81.7151C635.66 72.3351 615.44 62.3651 595.46 52.0951C585.46 47.0151 575.46 41.9351 565.46 37.1651C560.46 34.8251 555.46 32.5051 550.46 30.4151C545.483 28.3305 540.391 26.5309 535.21 25.0251C524.787 21.7603 514.199 19.0465 503.49 16.8951C492.954 14.7095 482.246 13.4514 471.49 13.1351C460.708 12.9171 449.924 13.5087 439.23 14.9051C433.85 15.5718 428.473 16.4251 423.1 17.4651C420.37 17.9451 417.81 18.4651 415.23 19.1151C412.65 19.7651 410.02 20.4851 407.41 21.2551C396.93 24.3151 386.41 27.9951 376.05 31.8751C365.69 35.7551 355.21 39.7151 344.86 43.8751C323.99 52.1551 303.3 60.7151 282.49 69.0551Z" fill="#383838"/>
<path d="M404.51 53.6152C404.51 53.6152 360.92 72.4452 356.17 90.5252C354.85 95.5252 358.46 101.435 363.36 101.435L456.16 100.545C456.16 100.545 398.63 98.1053 384.16 96.2653C382.777 96.089 381.473 95.5262 380.395 94.6418C379.318 93.7574 378.512 92.5871 378.07 91.2653C376.13 85.3753 377.86 73.4152 404.51 53.6152Z" fill="#383838"/>
<path d="M46.34 295.155H63.85L67.58 348.315H52.58L52.65 340.495H43.92L41.57 348.315H26.37L46.34 295.155ZM52.97 329.725L53.12 310.055L47.01 329.725H52.97Z" fill="#383838"/>
<path d="M74.5799 311.025H86.7199L86.1199 314.895C87.279 313.484 88.7347 312.346 90.3836 311.561C92.0324 310.776 93.8339 310.365 95.6599 310.355C101.4 310.355 104.75 313.405 104.75 318.775C104.707 320.526 104.533 322.27 104.23 323.995L100.43 348.315H86.9199L90.4199 326.315C90.4899 325.715 90.5699 325.195 90.5699 325.045C90.6092 324.742 90.5783 324.433 90.4796 324.144C90.3809 323.854 90.217 323.591 90.0007 323.374C89.7843 323.158 89.5212 322.994 89.2315 322.896C88.9419 322.797 88.6334 322.766 88.3299 322.805C86.9099 322.805 85.9499 324.075 85.5699 326.455L82.0999 348.315H68.6899L74.5799 311.025Z" fill="#383838"/>
<path d="M132.46 295.155H158.76L156.76 308.045H145.28L144.16 314.825H154.52L152.58 327.315H142.22L141.03 334.615H152.5L150.34 348.315H124.04L132.46 295.155Z" fill="#383838"/>
<path d="M169.34 349.315C161.34 349.315 156.53 344.175 156.53 335.155C156.53 320.035 164.13 309.975 175.75 309.975C178.041 309.997 180.3 310.505 182.38 311.465L180.59 322.865C179.651 322.212 178.534 321.863 177.39 321.865C174.34 321.865 171.8 326.035 171.8 331.995C171.8 335.425 172.8 336.835 175.38 336.835C176.473 336.81 177.545 336.529 178.51 336.015L176.65 347.935C174.315 348.826 171.839 349.294 169.34 349.315Z" fill="#383838"/>
<path d="M182.45 333.155C182.45 319.295 189.3 309.985 200.45 309.985C210.88 309.985 216.39 315.575 216.39 326.225C216.39 340.225 209.54 349.395 198.39 349.395C188.04 349.395 182.45 343.805 182.45 333.155ZM198.17 338.155C200.63 338.155 203.01 332.565 203.01 325.345C203.01 322.585 202.26 321.245 200.63 321.245C198.17 321.245 195.86 327.135 195.86 334.065C195.86 336.805 196.68 338.145 198.17 338.145V338.155Z" fill="#383838"/>
<path d="M244.13 295.155H270.43L268.43 308.045H256.92L255.73 315.715H265.73L263.79 328.235H253.67L250.47 348.235H235.71L244.13 295.155Z" fill="#383838"/>
<path d="M271.17 311.025H283.92L283.1 316.235C284.389 314.453 286.049 312.971 287.965 311.89C289.881 310.81 292.008 310.156 294.2 309.975L292.11 323.085H291.81C284.88 323.085 282.5 325.545 281.53 331.655L278.92 348.315H265.29L271.17 311.025Z" fill="#383838"/>
<path d="M297.84 311.025H311.32L305.44 348.315H291.92L297.84 311.025ZM305.59 306.105C301.94 306.105 299.41 303.575 299.41 299.475C299.41 294.185 302.99 290.165 307.83 290.165C311.56 290.165 314.01 292.775 314.01 296.875C314.01 302.085 310.51 306.105 305.59 306.105V306.105Z" fill="#383838"/>
<path d="M328.39 349.395C318.26 349.395 312.74 343.735 312.74 333.075C312.74 319.215 319.89 309.975 331.37 309.975C340.68 309.975 346.27 315.335 346.27 323.535C346.235 326.102 346.035 328.664 345.67 331.205H325.92C325.7 333.145 325.55 334.635 325.55 335.605C325.55 338.215 326.74 339.405 329.05 339.405C331.58 339.405 332.92 338.065 333.15 335.235H344.47C343.74 344.185 337.7 349.395 328.39 349.395ZM334.87 324.955C334.94 323.955 335.02 323.015 335.02 322.275C335.02 319.895 334.02 318.625 331.89 318.625C329.13 318.625 327.72 320.625 326.89 324.955H334.87Z" fill="#383838"/>
<path d="M352.92 311.025H365.06L364.46 314.895C365.619 313.484 367.075 312.346 368.724 311.561C370.373 310.776 372.174 310.365 374 310.355C379.74 310.355 383.09 313.405 383.09 318.775C383.047 320.526 382.873 322.27 382.57 323.995L378.75 348.315H365.26L368.76 326.315C368.83 325.715 368.91 325.195 368.91 325.045C368.949 324.742 368.918 324.433 368.82 324.144C368.721 323.854 368.557 323.591 368.341 323.374C368.124 323.158 367.861 322.994 367.572 322.896C367.282 322.797 366.973 322.766 366.67 322.805C365.25 322.805 364.29 324.075 363.91 326.455L360.42 348.315H347.01L352.92 311.025Z" fill="#383838"/>
<path d="M404.23 344.185C401.1 347.615 398.23 349.255 394.69 349.255C388.8 349.255 385.3 344.635 385.3 336.365C385.3 321.095 392.15 310.065 400.87 310.065C404.37 310.065 406.76 311.635 408.87 315.135L412.79 290.315H426.2L417.04 348.315H403.63L404.23 344.185ZM404.16 321.385C401.55 321.385 399.32 326.385 399.32 333.385C399.32 336.385 400.14 337.705 401.93 337.705C404.61 337.705 406.85 332.565 406.85 325.785C406.83 322.875 405.92 321.385 404.15 321.385H404.16Z" fill="#383838"/>
<path d="M431.42 290.315H444.92L435.76 348.315H422.25L431.42 290.315Z" fill="#383838"/>
<path d="M448.92 347.535L443.48 311.025H457.48L458.3 331.365L466.2 311.025H479.83L454.83 361.025H442.14L448.92 347.535Z" fill="#383838"/>
<path d="M523.35 307.525C516.64 307.525 511.8 314.375 511.8 325.705C511.8 332.635 514.26 336.065 519.55 336.065C521.051 336.027 522.536 335.75 523.95 335.245L521.71 348.065C519.35 348.936 516.844 349.34 514.33 349.255C502.33 349.255 495.85 342.105 495.85 328.835C495.85 308.275 506.06 294.195 522.15 294.195C524.997 294.186 527.822 294.691 530.49 295.685L528.18 308.795C526.696 307.987 525.039 307.552 523.35 307.525V307.525Z" fill="#383838"/>
<path d="M546.37 344.185C543.24 347.615 540.26 349.325 536.76 349.325C530.95 349.325 527.45 344.635 527.45 336.325C527.45 321.055 534.3 309.955 543.02 309.955C546.52 309.955 548.91 311.515 551.02 315.025L551.69 311.025H565.1L559.18 348.315H545.77L546.37 344.185ZM541.37 333.185C541.37 336.095 542.26 337.585 543.83 337.585C546.44 337.585 548.75 332.445 548.75 325.815C548.75 322.985 547.93 321.565 546.37 321.565C543.68 321.605 541.37 326.745 541.37 333.225V333.185Z" fill="#383838"/>
<path d="M569.98 311.025H582.72L581.9 316.235C583.189 314.453 584.849 312.971 586.765 311.89C588.681 310.81 590.808 310.156 593 309.975L590.92 323.095H590.62C583.69 323.095 581.31 325.555 580.34 331.665L577.73 348.315H564.09L569.98 311.025Z" fill="#383838"/>
<path d="M623.84 311.025V334.025L630.77 311.025H641.77L641.4 334.025L648.7 311.025H661.14L646.04 348.315H634.04L633.82 326.485L626.67 348.315H614.67L611.39 311.065L623.84 311.025Z" fill="#383838"/>
<path d="M677.92 344.185C674.79 347.615 671.81 349.325 668.31 349.325C662.5 349.325 659 344.635 659 336.325C659 321.055 665.85 309.955 674.57 309.955C678.07 309.955 680.46 311.515 682.57 315.025L683.24 311.025H696.65L690.74 348.315H677.33L677.92 344.185ZM672.92 333.185C672.92 336.095 673.81 337.585 675.38 337.585C677.99 337.585 680.3 332.445 680.3 325.815C680.3 322.985 679.48 321.565 677.92 321.565C675.25 321.605 672.92 326.745 672.92 333.225V333.185Z" fill="#383838"/>
<path d="M707.35 339.185C709.14 339.185 710.26 338.295 710.26 336.945C710.26 335.005 708.4 334.185 706.09 332.695C701.25 329.565 699.16 326.695 699.16 322.565C699.16 315.265 704.67 309.975 713.24 309.975C716.967 309.977 720.636 310.901 723.92 312.665L721.61 322.575C719.15 320.635 716.92 319.575 714.9 319.575C712.88 319.575 711.9 320.575 711.9 321.815C711.9 323.385 713.32 323.905 715.4 325.465C719.65 328.595 722.78 330.975 722.78 336.465C722.78 343.845 717.27 349.205 708.18 349.205C703.622 349.168 699.171 347.817 695.36 345.315L699.24 335.185C702.14 337.845 704.92 339.185 707.35 339.185Z" fill="#383838"/>
<path d="M734.02 290.315H747.43L743.48 314.905C745.79 311.905 748.69 310.365 751.9 310.365C757.64 310.365 760.9 313.415 760.9 318.785C760.857 320.536 760.683 322.281 760.38 324.005L756.6 348.315H743.11L746.61 326.315C746.68 325.715 746.76 325.195 746.76 325.045C746.799 324.742 746.768 324.433 746.67 324.144C746.571 323.854 746.407 323.591 746.191 323.374C745.974 323.158 745.711 322.994 745.422 322.896C745.132 322.797 744.823 322.766 744.52 322.805C743.1 322.805 742.14 324.075 741.76 326.455L738.27 348.315H724.86L734.02 290.315Z" fill="#383838"/>
</svg>
