<svg width="49" height="36" viewBox="0 0 49 36" fill="none" xmlns="http://www.w3.org/2000/svg">
<path d="M1.37765 14.8825C1.45844 14.8825 1.54027 14.8733 1.62263 14.854C2.18245 14.723 2.52699 14.1746 2.39251 13.6292C2.18818 12.8024 2.08497 11.9564 2.08497 11.1139C2.08497 6.10615 6.06727 2.03132 10.9617 2.03132C16.0272 2.03132 19.739 5.46933 19.7885 10.2064C19.7947 10.7635 20.2592 11.2114 20.831 11.2114C21.4028 11.2114 21.8672 10.763 21.8735 10.2064C21.9235 5.46984 25.6358 2.03132 30.7007 2.03132C35.5957 2.03132 39.578 6.10564 39.578 11.1139C39.578 11.9442 39.4785 12.776 39.2809 13.587C39.148 14.1324 39.4946 14.6798 40.0549 14.8093C40.6137 14.9358 41.1767 14.6016 41.3096 14.0552C41.5436 13.0914 41.663 12.1016 41.663 11.1139C41.663 4.98588 36.7451 0 30.7007 0C26.1831 0 22.5354 2.2309 20.831 5.69024C19.127 2.2309 15.4799 0 10.9617 0C4.91741 0 0 4.98537 0 11.1139C0 12.1163 0.123014 13.1223 0.365392 14.1045C0.480065 14.5702 0.906963 14.8825 1.37765 14.8825Z" transform="translate(4.14062)" fill="#1BB7CD"/>
<path d="M28.6921 0.295878L15.1893 13.3883L1.7777 0.382718C1.36957 -0.0118661 0.710197 -0.0113583 0.303106 0.386273C-0.102421 0.783904 -0.100857 1.42732 0.306755 1.82292L14.4543 15.5415C14.6581 15.7385 14.9235 15.837 15.1898 15.837C15.4562 15.837 15.722 15.7385 15.9253 15.5415L30.1631 1.73609C30.5707 1.34049 30.5727 0.697064 30.1667 0.299433C29.7591 -0.098198 29.1002 -0.100229 28.6921 0.295878Z" transform="translate(9.78174 20.163)" fill="#1BB7CD"/>
<path d="M48.4756 7.66062V7.65706H48.4746C48.2312 7.4646 47.9252 7.34475 47.5869 7.34475C47.2497 7.34475 46.9442 7.4646 46.7013 7.65706H31.5123C31.2694 7.4646 30.9634 7.34475 30.6262 7.34475C29.8443 7.34475 29.2126 7.96075 29.2126 8.72198C29.2126 8.74992 29.2193 8.77531 29.2209 8.80273L25.1495 14.071L18.7939 1.72865C18.8247 1.61541 18.8466 1.49911 18.8466 1.37673C18.8466 0.617013 18.2138 0 17.4335 0C16.6527 0 16.0199 0.617013 16.0199 1.37673C16.0199 1.41177 16.0282 1.44478 16.0308 1.47931L11.2599 7.65706H2.30025C2.05683 7.4646 1.75138 7.34475 1.41413 7.34475C0.631747 7.34475 0 7.96075 0 8.72198C0 9.48271 0.631747 10.0992 1.41413 10.0992C1.80767 10.0992 2.16316 9.94129 2.41961 9.68839H11.7801C12.108 9.68839 12.4165 9.53858 12.6136 9.28314L17.2558 3.27144L23.63 15.6508C23.5873 15.7829 23.5576 15.9205 23.5576 16.0662C23.5576 16.8264 24.1899 17.443 24.9712 17.443C25.752 17.443 26.3859 16.8264 26.3859 16.0662C26.3859 16.0002 26.3749 15.9372 26.3661 15.8738L30.8456 10.0769C31.1505 10.0302 31.4242 9.89304 31.6317 9.68788H46.5825C46.8384 9.94078 47.1939 10.0987 47.5874 10.0987C48.3698 10.0987 49 9.48221 49 8.72148C48.9995 8.29185 48.9969 7.91301 48.4756 7.66062Z" transform="translate(0 8.81946)" fill="#23CF5F"/>
</svg>
