<svg width="103" height="72" viewBox="0 0 103 72" fill="none" xmlns="http://www.w3.org/2000/svg">
<path d="M58.0033 0.00213911C57.8323 0.25144 57.646 0.355502 57.4253 0.432476C56.7079 0.682741 56.0498 0.798021 55.2098 0.901351C53.926 1.05927 52.5435 1.32006 51.2796 1.59503C49.6628 1.94676 48.0763 2.42273 46.5017 2.931C45.0753 3.39145 43.6663 3.9094 42.2825 4.48535C40.9661 5.03325 39.6741 5.64913 38.4037 6.29662C37.3215 6.84816 36.2608 7.43944 35.2184 8.06293C34.1486 8.70281 33.0978 9.3784 32.0717 10.0862C30.8969 10.8965 29.7612 11.7536 28.6295 12.6232C27.9734 13.1274 27.3116 13.6313 26.6901 14.1776C26.2706 14.5463 26.311 14.6049 25.7654 14.974C25.3471 15.2569 24.8364 15.2165 24.3654 14.9933C23.8944 14.77 23.1131 14.306 23.1131 14.306C23.1131 14.306 24.051 13.6048 24.7892 13.0921C24.7757 13.0943 24.7568 13.1032 24.7443 13.1049C24.2752 13.1697 23.6714 12.9947 23.203 12.9251C22.9186 12.8829 22.6231 12.8706 22.3361 12.8866C21.7116 12.9214 21.1001 13.0667 20.4865 13.1884C17.4636 13.7882 14.4422 14.4339 11.483 15.2952C9.3512 15.9156 7.24112 16.6274 5.19599 17.4918C4.51588 17.7793 3.82654 18.0691 3.21805 18.4874C2.65695 18.8731 2.13269 19.3289 1.7089 19.8619C1.30876 20.3651 1.0325 20.9631 0.758458 21.5447C0.502729 22.0874 0.234841 22.6329 0.116268 23.2211C-0.0682683 24.1364 0.0207263 25.0877 0.0263613 26.0215C0.0324325 27.0275 0.0625328 28.0391 0.161221 29.0403C0.262421 30.0669 0.411702 30.9577 0.456629 31.9884C0.46603 32.2041 0.462328 32.5562 0.373144 32.7527C0.306027 32.9007 0.291775 32.9312 0.244706 33.0867C0.202279 33.2269 0.270629 33.3824 0.328191 33.5171C0.465988 33.8394 0.684016 34.1299 0.93185 34.3777C1.05577 34.5017 1.23483 34.5591 1.36212 34.6796C1.54779 34.8553 1.65552 35.1037 1.83734 35.2834C2.22337 35.6649 2.64652 36.0223 3.12814 36.2725C3.80914 36.6263 4.57584 36.7974 5.32443 36.9662C6.13055 37.1479 6.96046 37.2387 7.78402 37.3066C8.35652 37.3538 8.84266 37.4154 9.50509 37.3516C9.97886 37.3427 9.90362 37.3468 10.3335 37.3387C9.98242 36.3323 9.78765 35.247 9.78765 34.1208C9.78765 28.7345 14.1571 24.3708 19.5425 24.3708C24.928 24.3708 29.291 28.7345 29.291 34.1208C29.291 35.1129 29.1424 36.0706 28.8671 36.9726C29.1751 36.9674 29.1157 36.9718 29.4451 36.9662C33.1585 36.921 36.4783 36.8685 39.6495 36.8185C39.6796 35.8975 39.7309 34.9801 39.8036 34.063C41.6924 33.3865 43.8217 33.8745 45.8081 33.7483C46.4542 32.15 47.0534 30.2615 47.9723 28.6806C47.9037 27.8965 46.7207 27.6512 46.3604 26.9464C45.6845 25.8299 43.6196 25.1592 44.1834 23.5743C47.3756 20.528 50.3363 17.1643 53.6685 14.2611C53.4303 14.2763 53.1601 14.291 52.9621 14.306C50.0135 14.5295 47.0701 14.8326 44.132 15.1667C43.0244 15.2926 40.9853 15.4493 40.9853 15.4493C40.9853 15.4493 40.9956 14.6411 40.8825 14.2611C40.7689 13.8794 40.3238 13.2077 40.3238 13.2077L42.0192 6.38012C42.0192 6.38012 43.9269 5.55074 44.909 5.21757C46.433 4.70058 47.9929 4.29866 49.5585 3.92656C51.1391 3.5509 52.7362 3.21683 54.3428 2.97596C55.5988 2.78767 56.8658 2.69112 58.1317 2.59059C58.8915 2.53025 60.4115 2.46213 60.4115 2.46213C60.4115 2.46213 59.7264 6.26364 59.2941 8.14643C58.839 10.1288 57.74 14.0491 57.74 14.0491C57.74 14.0491 56.1422 14.1206 54.6446 14.2033C56.1522 15.1486 57.2258 16.7545 58.5684 17.9286C60.1394 17.2482 61.863 16.3678 63.5968 15.8925C63.9862 15.2045 63.7283 14.0671 63.783 13.2141C63.9073 12.0742 63.3811 10.4848 64.3096 9.66867C64.3354 9.66657 64.3609 9.66425 64.3867 9.66225L65.1059 2.43643C65.1059 2.43643 67.1015 2.43934 68.0985 2.4814C69.5364 2.54203 70.9741 2.65583 72.4076 2.78327C73.8747 2.9137 75.342 3.0512 76.8002 3.25857C77.8611 3.40945 78.9654 3.59764 79.9662 3.81737C80.206 3.87002 80.5414 4.02157 80.5506 4.26697C80.6071 5.77683 80.6164 7.21399 80.6341 8.68596C80.653 10.2582 80.6534 13.4004 80.6534 13.4004C80.6534 13.4004 79.5788 13.4062 78.791 13.4132C78.759 14.1996 78.7231 14.9917 78.7717 15.7576C80.3442 16.4206 82.2405 16.9532 83.7744 17.9157C84.6108 17.8811 84.8558 16.6829 85.5661 16.3228C86.6728 15.6256 87.3544 13.5753 88.9376 14.1326C92.1134 17.4661 95.6318 20.5255 98.6218 24.0432C97.9888 25.3762 96.8162 26.3511 95.7191 27.3703C97.2346 29.0646 98.1662 31.2908 98.198 33.7354C98.6521 33.6657 99.1161 33.5979 99.5209 33.7419C99.7571 33.7816 100.031 33.768 100.317 33.7483C100.397 33.6856 100.477 33.6258 100.555 33.562C101.073 33.1372 101.542 32.6547 101.974 32.1425C102.246 31.8198 102.594 31.5157 102.706 31.1085C102.847 30.5944 102.605 30.7116 102.578 29.5091C102.534 27.6138 102.58 25.7162 102.449 23.8248C102.398 23.075 102.383 22.2212 102.192 21.5832C102.126 21.3592 101.911 21.1401 101.762 20.9602C101.625 20.7945 101.355 20.7633 101.332 20.5491C101.246 19.7346 101.237 18.8836 101.197 18.0506C101.171 17.5131 101.202 16.974 101.158 16.4384C101.153 16.4745 101.144 16.5124 101.133 16.5476C101.078 16.7233 100.878 16.8154 100.792 16.978C100.701 17.1506 100.652 17.3442 100.619 17.5368C100.555 17.9122 100.557 18.2997 100.574 18.6801C100.592 19.0777 100.697 19.465 100.728 19.8619C100.748 20.1125 100.85 20.3901 100.747 20.6198C100.671 20.7919 100.491 20.914 100.317 20.9859C99.9778 21.126 99.5835 21.1151 99.2191 21.0694C98.8429 21.0222 98.4654 20.8981 98.1402 20.7033C97.4997 20.3197 97.0275 19.7057 96.5026 19.1746C95.6418 18.3036 94.7693 17.4342 94.0302 16.4577C93.8414 16.2083 93.5891 15.9695 93.5357 15.6613C93.4893 15.3935 93.5455 15.0865 93.7027 14.8648C94.0047 14.439 94.5677 14.2747 95.0384 14.0491C95.5954 13.7822 96.1825 13.5545 96.7852 13.4197C97.2215 13.322 97.6738 13.2942 98.1209 13.2912C98.5531 13.2883 98.9961 13.282 99.4117 13.4004C99.7915 13.5086 100.185 13.6611 100.465 13.9399C100.502 13.977 100.537 14.0195 100.568 14.062C100.292 13.4058 99.8776 12.8281 99.4695 12.2443C99.3905 12.2153 98.4916 11.8818 97.9925 11.7625C97.6321 11.6765 96.9586 11.679 96.9586 11.679C96.9586 11.679 96.0873 10.4159 95.6036 9.82282C95.0157 9.10205 94.3945 8.41013 93.7284 7.76105C93.0028 7.05408 92.2335 6.38393 91.4229 5.77637C90.6215 5.17568 88.9055 4.13851 88.9055 4.13851L90.3183 3.43841C90.1082 3.20591 90.3972 2.60319 90.177 2.33367C90.01 2.12925 89.7306 2.12921 89.3807 2.12171C88.4333 2.1014 87.5456 2.05011 86.6 1.98683C85.3883 1.90572 84.1886 1.7152 82.9845 1.55649C81.7908 1.39915 80.6043 1.16758 79.4075 1.03623C76.9317 0.764513 74.4459 0.597029 71.9581 0.477437C69.2329 0.346431 66.4972 0.39034 63.7702 0.304017C62.7505 0.271738 61.7322 0.228926 60.7133 0.175559C59.8084 0.128156 58.909 -0.0194338 58.0033 0.00213911ZM83.1322 4.63308C83.1322 4.63308 84.5279 4.9712 85.2001 5.21757C86.1411 5.56249 87.0709 5.95718 87.9358 6.46362C89.0175 7.097 90.0311 7.85928 90.9734 8.68596C91.6146 9.24853 92.2869 9.81255 92.7394 10.5358C93.1396 11.1755 92.9347 11.1465 92.3476 11.4221C91.1257 11.9958 89.7649 12.2169 88.4495 12.5205C87.1914 12.8108 84.6414 13.2077 84.6414 13.2077L83.1322 4.63308ZM41.0302 6.81046C40.5738 8.67785 39.9173 10.6926 39.4568 12.559C39.4568 12.559 38.7467 12.3955 38.4037 12.4305C38.1092 12.4606 37.5697 12.6369 37.1771 12.8416C36.8345 13.0202 36.4225 13.2837 36.1239 13.5289C35.8021 13.7931 35.4329 14.2645 35.2826 14.6529C35.0644 15.2167 35.2826 16.2843 35.2826 16.2843C35.2826 16.2843 34.4299 16.3616 33.8826 16.4192C33.3384 16.4764 32.2451 16.5476 32.2451 16.5476C32.2451 16.5476 32.776 14.3403 33.1505 13.2719C33.4038 12.5496 34.056 11.1588 34.056 11.1588C34.056 11.1588 34.8562 10.3789 35.3019 10.0412C36.1559 9.39416 37.0858 8.84732 38.0183 8.31985C38.9964 7.76668 41.0302 6.81046 41.0302 6.81046ZM13.2105 17.1C13.3629 17.0961 13.5109 17.1135 13.6408 17.1899C13.7682 17.2649 13.8644 17.4344 13.8527 17.5817C13.8324 17.8366 13.5572 18.0037 13.3775 18.1855C12.7816 18.7883 12.0632 19.2511 11.3996 19.7784C10.4708 20.5163 9.58145 21.3094 8.5996 21.975C8.1736 22.2638 7.7429 22.5577 7.26385 22.7458C6.83914 22.9125 6.37957 22.9818 5.92809 23.0477C5.088 23.1703 4.24034 23.2327 3.39144 23.2211C3.08861 23.2169 2.74111 23.3007 2.48595 23.1376C2.31791 23.0301 2.31108 22.7712 2.18412 22.6173C1.98983 22.3819 1.73725 22.1933 1.49056 22.0136C1.35523 21.915 1.08916 21.9216 1.06029 21.7566C0.974052 21.264 1.66761 20.9579 2.01073 20.5941C2.33148 20.254 2.60904 19.8194 3.04466 19.6499C3.24536 19.5718 3.47726 19.6994 3.68685 19.6499C4.21799 19.5245 4.64894 19.1316 5.15104 18.9177C5.78188 18.649 6.43928 18.4388 7.09046 18.224C7.74604 18.0078 8.40274 17.7779 9.07482 17.6203C9.66998 17.4807 10.2728 17.3941 10.8794 17.3184C11.394 17.2542 11.9153 17.2115 12.4335 17.1899C12.6845 17.1795 12.9565 17.1065 13.2105 17.1ZM19.5425 25.5911C14.833 25.5911 11.0142 29.4105 11.0142 34.1208C11.0142 38.8311 14.833 42.6505 19.5425 42.6505C24.2521 42.6505 28.0644 38.8311 28.0644 34.1208C28.0644 29.4105 24.2521 25.5911 19.5425 25.5911ZM19.5425 27.9163C22.9678 27.9163 25.7397 30.695 25.7397 34.1208C25.7397 37.5467 22.9678 40.3254 19.5425 40.3254C16.1172 40.3254 13.339 37.5467 13.339 34.1208C13.339 30.695 16.1172 27.9163 19.5425 27.9163ZM94.8458 28.2246C94.7577 28.318 94.6729 28.4176 94.5889 28.5136C95.2538 30.083 96.1495 31.8308 96.6375 33.5749C96.7427 33.6564 96.8531 33.7104 96.9714 33.7483C96.943 31.6319 96.1479 29.7009 94.8458 28.2246ZM71.1297 29.2008C69.1502 29.2474 67.23 29.7364 65.5041 30.691C63.1108 31.9236 61.3139 34.0091 60.2767 36.4331C66.0439 36.314 71.6905 36.2011 78.1167 36.1055C78.4018 36.1013 78.6768 36.092 78.958 36.0862C78.7914 35.3718 78.7011 34.629 78.7011 33.8639C78.7011 33.2109 78.7651 32.5732 78.8873 31.9563C76.8288 30.2557 74.2424 29.2056 71.5278 29.2008C71.3954 29.2001 71.2616 29.1977 71.1297 29.2008ZM79.9726 32.9583C79.9413 33.2556 79.9213 33.5582 79.9213 33.8639C79.9213 36.6458 81.2512 39.1151 83.312 40.6722C83.2372 37.7584 81.9526 35.0243 79.9726 32.9583Z" transform="translate(0 0.5)" fill="#23CF5F"/>
<path d="M24.1464 5.2347C23.8339 6.47996 22.2251 6.1623 21.3336 6.73767C19.8536 7.28446 18.433 7.98805 17.0694 8.79943C15.6985 7.40448 14.3079 6.02914 12.9273 4.64379C10.1659 7.40565 7.40445 10.1675 4.64304 12.9294C6.0282 14.3101 7.40321 15.7012 8.79801 17.0722C7.47595 19.2713 6.48313 21.675 5.85678 24.1503C3.90452 24.1503 1.95226 24.1503 0 24.1503C0 28.0554 0 31.9606 0 35.8657C1.95226 35.8657 3.90452 35.8657 5.85678 35.8657C6.49423 38.3529 7.45593 40.7437 8.79159 42.9374C7.40873 44.3205 6.02589 45.7035 4.64304 47.0866C7.40445 49.8506 10.1659 52.6146 12.9273 55.3786C14.3068 53.9943 15.6954 52.619 17.0694 51.2294C19.2738 52.5459 21.6695 53.5329 24.1464 54.1583C24.1464 56.1108 24.1464 58.0634 24.1464 60.016C28.0509 60.016 31.9554 60.016 35.8599 60.016C35.8599 58.0634 35.8599 56.1108 35.8599 54.1583C38.3368 53.5342 40.7323 52.5453 42.9368 51.2294C44.3111 52.6189 45.6993 53.9945 47.079 55.3786C49.8425 52.6146 52.6061 49.8506 55.3696 47.0866C53.9868 45.7035 52.604 44.3205 51.2211 42.9374C52.5415 40.7338 53.5194 38.3564 54.1495 35.8657C56.1017 35.8657 58.054 35.8657 60.0063 35.8657C60.0063 31.9606 60.0063 28.0554 60.0063 24.1503C58.054 24.1503 56.1017 24.1503 54.1495 24.1503C53.5205 21.6631 52.5368 19.28 51.2211 17.0722C52.6103 15.6977 53.9857 14.3092 55.3696 12.9294C52.6061 10.1675 49.8425 7.40565 47.079 4.64379C45.6985 6.02918 44.3076 7.40441 42.9368 8.79943C40.7329 7.47573 38.3391 6.4803 35.8599 5.87057C35.8599 3.91371 35.8599 1.95686 35.8599 0C31.9554 0 28.0509 0 24.1464 0C24.1464 1.7449 24.1464 3.4898 24.1464 5.2347ZM30.0031 16.34C36.921 16.1787 43.2591 22.0506 43.649 28.9666C44.2263 35.4588 39.5706 41.9023 33.2269 43.3163C27.2146 44.8186 20.4454 41.7215 17.7758 36.1547C14.8725 30.5225 16.5259 22.9385 21.6547 19.1853C24.031 17.3625 26.9938 16.3252 30.0031 16.34Z" transform="translate(41.2778 11.7341)" fill="#36BED2"/>
</svg>
