<svg width="76" height="72" viewBox="0 0 76 72" fill="none" xmlns="http://www.w3.org/2000/svg">
<path fill-rule="evenodd" clip-rule="evenodd" d="M36.4211 0.00340249C20.1182 0.630493 6.04902 11.6389 1.50275 27.3253C-3.04352 43.0117 2.95516 59.8494 16.3909 69.115C18.4072 70.5054 20.7979 71.25 23.2462 71.25C32.9987 71.25 42.7513 71.25 52.5038 71.25C54.9521 71.25 57.3428 70.5054 59.3591 69.115C72.7948 59.8494 78.7935 43.0117 74.2473 27.3253C69.701 11.6389 55.6318 0.630493 39.3289 0.00340249C38.2508 0.00248406 37.4748 -0.00377142 36.4211 0.00340249ZM37.7623 8.98554H37.7635H37.7647C37.8405 8.99198 37.9148 8.98868 37.9853 8.98554H37.9865H37.9877C50.9587 9.03624 62.3044 17.7411 65.7254 30.2671C65.6165 30.2971 65.6163 30.2972 65.7254 30.2673C65.945 31.0715 65.3386 31.8669 64.5058 31.8669H37.875H11.2442C10.4113 31.8669 9.80492 31.0715 10.0246 30.2673C10.1336 30.2971 10.1335 30.2971 10.0246 30.2671C13.4456 17.7411 24.7913 9.03624 37.7623 8.98554ZM10.509 40.4631C10.6135 40.4612 10.7208 40.4724 10.8289 40.4984C21.0794 42.9555 29.3263 50.5548 32.6201 60.5785C32.8887 61.3959 32.2784 62.2402 31.4189 62.2402H23.2462C22.6212 62.2402 22.011 62.0502 21.4963 61.6952C14.8361 57.1023 10.4054 49.9233 9.2822 41.9053C9.17409 41.1336 9.77698 40.4764 10.509 40.4631ZM65.241 40.4631C65.973 40.4764 66.5759 41.1336 66.4678 41.9053C65.3446 49.9233 60.9139 57.1023 54.2537 61.6952C53.739 62.0502 53.1288 62.2402 52.5038 62.2402H44.3311C43.4716 62.2402 42.8612 61.3959 43.1299 60.5785C46.4237 50.5548 54.6706 42.9555 64.9211 40.4984C65.0292 40.4724 65.1365 40.4612 65.241 40.4631Z" transform="translate(0 0.75)" fill="#23CF5F"/>
<path fill-rule="evenodd" clip-rule="evenodd" d="M36.4211 0.00340249C20.1182 0.630493 6.04902 11.6389 1.50275 27.3253C-3.04352 43.0117 2.95516 59.8494 16.3909 69.115C18.4072 70.5054 20.7979 71.25 23.2462 71.25C32.9987 71.25 42.7513 71.25 52.5038 71.25C54.9521 71.25 57.3428 70.5054 59.3591 69.115C72.7948 59.8494 78.7935 43.0117 74.2473 27.3253C69.701 11.6389 55.6318 0.630493 39.3289 0.00340249C38.2508 0.00248406 37.4748 -0.00377142 36.4211 0.00340249ZM37.7623 8.98554H37.7635H37.7647C37.8405 8.99198 37.9148 8.98868 37.9853 8.98554H37.9865H37.9877C50.9587 9.03624 62.3044 17.7411 65.7254 30.2671C65.6165 30.2971 65.6163 30.2972 65.7254 30.2673C65.945 31.0715 65.3386 31.8669 64.5058 31.8669H37.875H11.2442C10.4113 31.8669 9.80492 31.0715 10.0246 30.2673C10.1336 30.2971 10.1335 30.2971 10.0246 30.2671C13.4456 17.7411 24.7913 9.03624 37.7623 8.98554ZM10.509 40.4631C10.6135 40.4612 10.7208 40.4724 10.8289 40.4984C21.0794 42.9555 29.3263 50.5548 32.6201 60.5785C32.8887 61.3959 32.2784 62.2402 31.4189 62.2402H23.2462C22.6212 62.2402 22.011 62.0502 21.4963 61.6952C14.8361 57.1023 10.4054 49.9233 9.2822 41.9053C9.17409 41.1336 9.77698 40.4764 10.509 40.4631ZM65.241 40.4631C65.973 40.4764 66.5759 41.1336 66.4678 41.9053C65.3446 49.9233 60.9139 57.1023 54.2537 61.6952C53.739 62.0502 53.1288 62.2402 52.5038 62.2402H44.3311C43.4716 62.2402 42.8612 61.3959 43.1299 60.5785C46.4237 50.5548 54.6706 42.9555 64.9211 40.4984C65.0292 40.4724 65.1365 40.4612 65.241 40.4631Z" transform="translate(0 0.75)" fill="url(#paint0_linear)"/>
<defs>
<linearGradient id="paint0_linear" x2="1" gradientUnits="userSpaceOnUse" gradientTransform="translate(75.75) scale(75.75 71.25) rotate(90)">
<stop stop-color="white" stop-opacity="0.23"/>
<stop offset="1" stop-color="white" stop-opacity="0"/>
</linearGradient>
</defs>
</svg>
