<svg width="1379" height="613" viewBox="0 0 1379 613" fill="none" xmlns="http://www.w3.org/2000/svg">
<path d="M39.8198 98.1599L43.3799 107.44C43.3799 107.44 69.2999 113.8 75.3799 112.91C81.4599 112.02 152.69 107.07 152.69 107.07L196.63 98.1599H210.26C214.43 98.1599 224.72 108 233.06 106C241.4 104 229.44 20 229.44 20L93.4399 0L0 70.6399L39.8198 98.1599Z" transform="translate(882.787 445.595)" fill="black"/>
<path d="M19.1899 99.2698L36.4399 117.95C36.4399 117.95 43.1099 102.89 61.1799 105.95C79.2499 109.01 186.6 125.7 186.6 125.7C198.746 122.676 209.369 115.318 216.47 105.01C228.03 87.87 210.79 12.24 210.79 12.24L82.25 0L0 72.72L19.1899 99.2698Z" transform="translate(59.6973 429.196)" fill="black"/>
<path d="M68.8 137.6C106.797 137.6 137.6 106.797 137.6 68.8C137.6 30.8029 106.797 0 68.8 0C30.8029 0 0 30.8029 0 68.8C0 106.797 30.8029 137.6 68.8 137.6Z" transform="translate(945.457 474.945)" fill="#27262C"/>
<path d="M51.97 103.94C80.6722 103.94 103.94 80.6722 103.94 51.97C103.94 23.2677 80.6722 0 51.97 0C23.2677 0 0 23.2677 0 51.97C0 80.6722 23.2677 103.94 51.97 103.94Z" transform="translate(962.457 491.775)" fill="#C3BFBE"/>
<path d="M0.470335 7L12.4703 20.6699C12.4703 20.6699 14.5505 23.95 17.3905 23.95C19.262 23.8316 21.0194 23.01 22.3104 21.6499L34.8805 7C34.8805 7 36.6305 4.92 34.8805 3.5C33.1305 2.08 27.0003 0 18.4803 0C9.96034 0 -2.58967 2.3 0.470335 7Z" transform="translate(995.917 501.906)" fill="#27262C"/>
<path d="M0.470643 16.95L12.4706 3.28003C12.4706 3.28003 14.5508 0 17.3908 0C19.262 0.119306 21.0191 0.940803 22.3107 2.30005L34.8808 16.95C34.8808 16.95 36.6308 19.03 34.8808 20.45C33.1308 21.87 26.9906 23.95 18.4706 23.95C9.95064 23.95 -2.58936 21.65 0.470643 16.95Z" transform="translate(995.916 561.646)" fill="#27262C"/>
<path d="M16.95 0.470335L3.28003 12.4703C3.28003 12.4703 0 14.5503 0 17.3903C0.117352 19.262 0.939166 21.0198 2.30005 22.3102L16.95 34.8903C16.95 34.8903 19.03 36.6403 20.45 34.8903C21.87 33.1403 23.95 27.0003 23.95 18.4803C23.95 9.96034 21.65 -2.58967 16.95 0.470335Z" transform="translate(1032.75 525.905)" fill="#27262C"/>
<path d="M7 0.470335L20.6699 12.4703C20.6699 12.4703 23.95 14.5503 23.95 17.3903C23.8326 19.262 23.0108 21.0198 21.6499 22.3102L7 34.8903C7 34.8903 4.92 36.6403 3.5 34.8903C2.08 33.1403 0 27.0003 0 18.4803C0 9.96034 2.3 -2.58967 7 0.470335Z" transform="translate(973.008 525.905)" fill="#27262C"/>
<path d="M1.12726 136.582L7.46735 131.282C12.042 129.86 16.7238 128.811 21.4673 128.142C21.4673 128.142 130.937 17.062 150.027 7.47202C169.117 -2.11798 175.707 0.261818 175.707 0.261818L112.957 109.942C112.957 109.942 -13.1527 170.072 1.12726 136.582Z" transform="translate(154.36 195.704)" fill="#788D9E"/>
<path d="M140.98 3.16992C140.98 3.16992 76.87 1.93992 26.3 3.16992C14.83 3.43992 6.3 2.17 0 0C3.49114 3.92408 7.84559 6.98431 12.7202 8.93994C39.1802 20.1099 35.6501 16.9399 35.6501 16.9399L147.65 16.6699V20.8301C147.65 20.1101 148.55 19.5101 148.51 19.0701C148.07 13.8801 140.98 3.16992 140.98 3.16992Z" transform="translate(156.598 160.855)" fill="#A3A2A2"/>
<path d="M1368.41 460.74H1364.7V67.2702C1364.7 67.2702 1364.95 51.2702 1360.7 48.5502C1356.45 45.8302 817.22 48.5502 817.22 48.5502C817.22 48.5502 687.73 47.4802 604.84 18.6002C521.95 -10.2798 275.38 3.09024 275.38 3.09024C275.38 3.09024 140.06 4.69008 140.06 138.92C139.483 146.75 142.02 154.491 147.12 160.46C153.44 162.61 161.95 163.9 173.42 163.63C223.99 162.43 288.09 163.63 288.09 163.63C288.09 163.63 295.19 174.34 295.59 179.52C295.59 179.95 294.73 180.52 294.73 181.28V203.74H309.31C309.31 203.74 224.01 286.45 180.7 331.37C180.7 331.37 159.84 332.75 152.36 326.87C152.36 326.87 17.5999 372.75 11.1799 410.18C11.1799 410.18 -1.65002 434.18 0.47998 463.6C0.351663 463.768 0.187714 463.904 0 464C2.62 464.453 5.27135 464.701 7.92993 464.74H122.93C135.63 454.74 152.93 450.04 176.46 450.04C195.2 450.04 210.12 453.74 222.01 460.74H453.7V498.74H256.42C269.42 526.74 268.37 556.49 268.37 556.49C268.37 556.49 277.46 559.74 281.2 552.74H910.9C910.9 552.74 926.68 556.14 930.42 538.49C934.16 520.84 932.56 497.27 944.86 486.04C957.16 474.81 1002.36 476.69 1002.36 476.69C1002.36 476.69 1070.53 473.69 1082.83 486.01C1095.13 498.33 1096.2 535.74 1096.2 535.74C1096.2 535.74 1095.13 550.18 1106.36 551.25C1117.59 552.32 1215.46 548.04 1234.17 545.36C1252.88 542.68 1336.85 527.71 1347.55 522.9C1358.25 518.09 1366.26 510 1368.41 491.82C1370.56 473.64 1368.41 460.74 1368.41 460.74Z" transform="translate(9.50781 0.345215)" fill="#CBC8C3"/>
<path d="M17.0698 0.77002C14.4104 0.722346 11.7589 0.464861 9.13989 0C7.18989 0.94 0 4.60001 0 8.76001C0 13.57 4.80981 24.2201 4.80981 29.5701C4.80981 34.9201 1.59994 53.5701 10.6899 60.5701C19.7799 67.5701 64.6898 81.95 74.3298 86.76C83.9698 91.57 92.5099 91.76 95.1899 86.95C97.1899 83.32 93.1898 27.77 132.04 0.77002H17.0398H17.0698Z" transform="translate(0.327148 464.315)" fill="#1A181D"/>
<path d="M64 0H0V105H64V0Z" transform="translate(567.207 196.085)" fill="#788D9E"/>
<path d="M146.03 60.48C145.999 62.73 145.091 64.8791 143.5 66.4702C141.909 68.0613 139.76 68.969 137.51 69H8.51001C6.26097 68.9689 4.11297 68.0609 2.52344 66.4695C0.933908 64.8781 0.0284546 62.7291 0 60.48V7.88989C0 3.26989 3.89001 0 8.51001 0H137.51C142.13 0 146.03 3.26989 146.03 7.88989V60.48Z" transform="translate(720.178 170.085)" fill="#788D9E"/>
<path d="M206.99 98.4299C206.99 105.8 201.99 112 195.34 112H11.6199C5.00987 112 0 105.8 0 98.4299V13.75C0 6.38 4.99988 0 11.6299 0H195.35C201.96 0 207 6.38 207 13.75L206.99 98.4299Z" transform="translate(1089.22 165.085)" fill="#788D9E"/>
<path d="M104.91 354H15.3101C6.78006 354 0 344.23 0 332.5V20.6899C0 9.04994 6.64006 0 15.3101 0H104.91C113.46 0 120 8.65994 120 20.6899V332.5C120 344.63 113.32 354 104.91 354ZM15.3101 2C7.96006 2 1 10.3799 1 20.6899V332.5C1 342.93 8.09006 352 15.3101 352H104.91C111.85 352 117 343.11 117 332.5V20.6899C117 10.1999 112 2 104.91 2H15.3101Z" transform="translate(542.207 161.085)" fill="#9B9B9B"/>
<path d="M27 0H0V27H27V0Z" transform="translate(624.207 334.085)" fill="#282425"/>
<path d="M148 70H0V0H148V70ZM3 67H146V3H3V67Z" transform="translate(1153.21 383.085)" fill="#9B9B9B"/>
<path d="M132 52H0V0H132V52ZM2 50H129V2H2V50Z" transform="translate(1161.21 393.085)" fill="#9B9B9B"/>
<path d="M777 25H0V0H777V25ZM3 22H774V3H3V22Z" transform="translate(529.207 116.085)" fill="#9B9B9B"/>
<path d="M0 155.803L89.47 56.4832C89.47 56.4832 125.47 18.2831 139.26 11.8731C153.05 5.46312 178.45 0.0430392 207.53 0.293039C236.61 0.543039 241.3 -1.70696 243.53 3.29304C245.76 8.29304 243.53 43.9631 237.86 67.6231C232.19 91.2831 236.13 112.973 189.06 121.623C141.99 130.273 0 155.803 0 155.803Z" transform="translate(195.558 207.712)" fill="#252326"/>
<path d="M85.55 0L75.4302 106.36L0 120.9V89.5801L85.55 0Z" transform="translate(239.377 231.515)" fill="#788D9E"/>
<path d="M10.3801 11.9412L0 123.591L64.6001 111.021C64.6001 111.021 86.5399 104.611 93.1899 94.7512C99.8399 84.8912 109.7 14.6511 109.7 14.6511C109.7 14.6511 111.42 4.0513 107.7 1.5913C103.98 -0.868697 65.3401 -2.35884 10.3801 11.9412Z" transform="translate(324.928 212.814)" fill="#788D9E"/>
<path d="M19 338H0V0H19V338ZM3 335H17V3H3V335Z" transform="translate(1308.21 116.085)" fill="#9B9B9B"/>
<path d="M19 338H0V0H19V338ZM3 335H17V3H3V335Z" transform="translate(506.207 116.085)" fill="#9B9B9B"/>
<path d="M712.88 0H0V2.40991H712.88V0Z" transform="translate(660.962 464.17) rotate(-0.33)" fill="#9B9B9B"/>
<path d="M192.92 358H56.3601L56.4199 356.56C58.4199 315.5 43.12 287.47 29.99 271.25C15.77 253.7 0.869971 245.72 0.719971 245.64L0 245.26V163H3V243.82C5 245.56 19.0601 253.47 32.0801 269.53C45.3501 285.9 60.4999 314 58.8799 355H190.83C192.35 344 205.33 247.64 203.51 222.34V221.76L204.02 221.39C207.967 217.769 210.562 212.913 211.38 207.62C212.97 198.46 217.3 19.0801 217.7 2.32007C205.49 2.40007 107.2 3.49002 93.29 16.52C90.88 18.78 87.0001 22.1201 82.0901 26.3601C56.0901 48.7501 2.08996 95.36 5.20996 119.76L2.83008 120.07C-0.459922 94.3701 54.24 47.21 80.53 24.54C85.42 20.33 89.2799 17.0401 91.6599 14.8101C107.11 0.340058 214.39 0 218.95 0H220.18V1.18994C219.99 9.18994 215.49 198.33 213.8 208.07C212.904 213.729 210.179 218.938 206.04 222.9C207.73 250.78 193.75 352.44 193.16 356.78L192.92 358Z" transform="translate(235.207 192.085)" fill="#9B9B9B"/>
<path d="M231.76 0H0C16.88 8 27.64 24 34.49 38H231.76V0Z" transform="translate(231.447 461.085)" fill="#1A181D"/>
<path d="M0.854815 52.944C0.854815 52.944 5.74481 23.9441 23.8548 11.3041C41.9648 -1.33587 73.2849 -3.17589 76.1849 4.78411C79.0849 12.7441 43.9548 46.4241 37.0748 50.7841C30.1948 55.1441 4.73482 65.2839 0.864825 59.8339C-1.07517 57.1339 0.854815 52.944 0.854815 52.944Z" transform="translate(15.0625 390.141)" fill="#788D9E"/>
<path d="M68.8 137.6C106.797 137.6 137.6 106.797 137.6 68.8C137.6 30.8029 106.797 0 68.8 0C30.8029 0 0 30.8029 0 68.8C0 106.797 30.8029 137.6 68.8 137.6Z" transform="translate(114.417 474.945)" fill="#27262C"/>
<path d="M51.97 103.94C80.6722 103.94 103.94 80.6722 103.94 51.97C103.94 23.2677 80.6722 0 51.97 0C23.2677 0 0 23.2677 0 51.97C0 80.6722 23.2677 103.94 51.97 103.94Z" transform="translate(131.407 491.775)" fill="#C3BFBE"/>
<path d="M0.470643 7L12.4706 20.6699C12.4706 20.6699 14.5508 23.95 17.3908 23.95C19.2623 23.8316 21.0197 23.01 22.3107 21.6499L34.8808 7C34.8808 7 36.6308 4.92 34.8808 3.5C33.1308 2.08 26.9906 0 18.4706 0C9.95064 0 -2.58936 2.3 0.470643 7Z" transform="translate(164.866 501.906)" fill="#27262C"/>
<path d="M0.470643 16.95L12.4706 3.28003C12.4706 3.28003 14.5508 0 17.3908 0C19.262 0.119306 21.0191 0.940803 22.3107 2.30005L34.8808 16.95C34.8808 16.95 36.6308 19.03 34.8808 20.45C33.1308 21.87 26.9906 23.95 18.4706 23.95C9.95064 23.95 -2.58936 21.65 0.470643 16.95Z" transform="translate(164.866 561.646)" fill="#27262C"/>
<path d="M16.95 0.470335L3.28003 12.4703C3.28003 12.4703 0 14.5503 0 17.3903C0.117352 19.262 0.939166 21.0198 2.30005 22.3102L16.95 34.8903C16.95 34.8903 19.03 36.6403 20.45 34.8903C21.87 33.1403 23.95 27.0003 23.95 18.4803C23.95 9.96034 21.65 -2.58967 16.95 0.470335Z" transform="translate(201.697 525.905)" fill="#27262C"/>
<path d="M7 0.470335L20.6699 12.4703C20.6699 12.4703 23.95 14.5503 23.95 17.3903C23.8316 19.2617 23.01 21.0192 21.6499 22.3102L7 34.8903C7 34.8903 4.92 36.6403 3.5 34.8903C2.08 33.1403 0 27.0003 0 18.4803C0 9.96034 2.25 -2.58967 7 0.470335Z" transform="translate(141.957 525.905)" fill="#27262C"/>
<path d="M51 4C51 5.06087 50.5785 6.07822 49.8284 6.82837C49.0782 7.57851 48.0609 8 47 8H4C2.93913 8 1.92178 7.57851 1.17163 6.82837C0.421485 6.07822 0 5.06087 0 4C0 2.93913 0.421485 1.92178 1.17163 1.17163C1.92178 0.421485 2.93913 0 4 0H47C48.0609 0 49.0782 0.421485 49.8284 1.17163C50.5785 1.92178 51 2.93913 51 4Z" transform="translate(386.207 366.085)" fill="#353336"/>
<path d="M123 51.27C123.007 52.1711 122.832 53.0643 122.485 53.896C122.138 54.7277 121.627 55.4806 120.981 56.1094C120.335 56.7381 119.569 57.2298 118.729 57.5547C117.888 57.8796 116.991 58.0311 116.09 58H7.1499C6.23644 58.0361 5.32502 57.8898 4.46875 57.5696C3.61248 57.2494 2.82852 56.7618 2.16284 56.1353C1.49717 55.5087 0.963173 54.7558 0.591797 53.9204C0.220421 53.0851 0.019219 52.184 0 51.27V7.34009C0.0143958 5.43044 0.766578 3.60013 2.09912 2.23218C3.43166 0.864224 5.24129 0.0644628 7.1499 0H116.09C117.973 0.0755303 119.752 0.886666 121.044 2.25903C122.336 3.6314 123.038 5.45565 123 7.34009V51.27Z" transform="translate(270.207 54.0854)" fill="#788D9E"/>
<path d="M109 14C109 17.713 107.525 21.2739 104.899 23.8994C102.274 26.5249 98.713 28 95 28H14C10.287 28 6.7261 26.5249 4.10059 23.8994C1.47508 21.2739 0 17.713 0 14V14C0 10.287 1.47508 6.7261 4.10059 4.10059C6.7261 1.47508 10.287 0 14 0H95C98.713 0 102.274 1.47508 104.899 4.10059C107.525 6.7261 109 10.287 109 14V14Z" transform="translate(542.207 533.085)" fill="#DBDAD9"/>
</svg>
