<svg width="1013" height="534" viewBox="0 0 1013 534" fill="none" xmlns="http://www.w3.org/2000/svg">
<path d="M0 0L90.1704 10.8101L86.5703 25.8101L0 5.46997V0Z" transform="translate(645.066 419.305)" fill="#050102"/>
<path d="M0.00314716 66.7284C0.00314716 66.7284 -1.38662 120.538 54.2434 121.448C109.873 122.358 143.953 94.0886 143.953 94.0886H213.243L233.243 88.8586L282.323 82.5886C282.323 82.5886 290.323 58.7686 285.323 52.6586C280.323 46.5486 264.323 27.7785 264.323 27.7785C264.323 27.7785 62.5831 -55.6816 0.00314716 66.7284Z" transform="translate(650.624 310.767)" fill="#050102"/>
<path d="M0 0C0 0 40.3303 57.4201 50.7603 55.5901C61.1903 53.7601 54.9301 -8.00993 88.3101 1.32007C121.69 10.6501 0 0 0 0Z" transform="translate(598.467 374.485)" fill="#D5D2BF"/>
<path d="M0 38.1036C0 38.1036 6.10352e-05 51.3036 66.0601 49.9236C132.12 48.5436 260.06 54.4336 315.7 15.6736C371.34 -23.0864 3.46 20.0236 0 38.1036Z" transform="translate(355.087 358.162)" fill="#D5D2BF"/>
<path d="M601 0H0V165H315C315 165 322 163.29 324.39 153.55C326.78 143.81 331.69 108.02 412.01 108.02C492.33 108.02 488.5 152.18 493.37 153.57C498.24 154.96 513.19 151.49 518.37 148.01C523.55 144.53 591.73 124.72 591.73 124.72C591.73 124.72 601.12 115.33 602.16 104.55C603.2 93.77 602.16 78.47 602.16 78.47C602.16 78.47 608.07 65.6101 606.68 61.0801L606.89 23.4099C606.89 23.4099 601 12 601 0Z" transform="translate(405.207 220.085)" fill="#E8E5DE"/>
<path d="M601.66 2.66016L0 0V5.32007H601C601.297 4.45444 601.518 3.56444 601.66 2.66016V2.66016Z" transform="translate(405.207 214.765)" fill="#9C9C9E"/>
<path d="M1.14498 50.2151H24.0947C24.0947 50.2151 49.4748 42.5652 50.1748 10.5752C50.8748 -21.4148 -8.93502 27.2151 1.14498 50.2151Z" transform="translate(336.202 373.87)" fill="#020100"/>
<path d="M0.0159653 86.221L24.4159 117.321C24.4159 117.321 34.5459 104.981 44.7459 109.161C54.9459 113.341 169.146 125.841 169.146 125.841C169.146 125.841 240.276 143.241 241.146 137.681C242.016 132.121 241.146 98.741 241.146 98.741C241.146 98.741 187.076 -11.8192 137.706 1.04079C88.3359 13.9008 -1.37403 43.101 0.0159653 86.221Z" transform="translate(95.6816 298.925)" fill="#020100"/>
<path d="M9 0V65.72L0 50.76V28.1599V4.16992L9 0Z" transform="translate(332.207 412.255)" fill="#020100"/>
<path d="M36.8219 0L20.9718 4C20.9718 4 -1.85827 15.7698 0.121728 20.7998C2.10173 25.8298 3.12189 35.5099 3.04189 40.4099C2.96189 45.3099 7.43188 91.8799 60.2819 83.8999C113.132 75.9199 36.8219 0 36.8219 0Z" transform="translate(0.995117 331.426)" fill="#020100"/>
<path d="M15.7756 0L10.6955 5C10.6955 5 8.49551 2.51008 6.19551 13.3301C3.89551 24.1501 -4.80463 74.7001 3.55537 95.9001C11.9154 117.1 21.9855 102.2 21.9855 101.49C21.9855 100.78 15.7756 0 15.7756 0Z" transform="translate(9.03125 201.795)" fill="#292325"/>
<path d="M387.21 385.321V167.321L381.76 7.73059C381.76 7.73059 380.35 -0.0793896 369.18 0.000610428C358.01 0.0806104 215.9 4.94056 188.78 11.2006C161.66 17.4606 158.56 18.5006 144.13 31.5406C129.7 44.5806 39.3999 160.011 39.3999 160.011C39.3999 160.011 15.86 198.261 7.52002 199.651V205.911C7.52002 205.911 13.3401 205.221 13.3401 213.211C13.3401 221.201 10.6899 293.531 10.6899 293.531L0 295.221C2.21931 303.859 5.01889 312.339 8.37988 320.6C13.5999 333.12 9.79004 334.511 9.79004 334.511C12.3076 336.013 14.4376 338.085 16.0093 340.559C17.581 343.034 18.5507 345.843 18.8401 348.761C19.8401 358.841 20.9299 400.921 26.1499 405.761C31.3699 410.601 37.0199 414.761 60.6599 414.761C84.2999 414.761 111.66 418.931 112.73 411.981C113.8 405.031 116.9 318.101 216.34 329.921C315.78 341.741 283.79 421.361 317.87 418.241C317.84 418.351 351.57 416.611 387.21 385.321Z" transform="translate(12.207 0.864746)" fill="#E8E5DE"/>
<path d="M607 0H0V9H607V0Z" transform="translate(405.207 209.085)" fill="#D3D2D1"/>
<path d="M179.58 89.79C179.58 107.548 174.314 124.908 164.448 139.674C154.583 154.439 140.56 165.948 124.154 172.744C107.747 179.54 89.6939 181.319 72.2766 177.855C54.8593 174.392 38.8602 165.841 26.3025 153.285C13.7447 140.728 5.19225 124.73 1.72655 107.313C-1.73914 89.8963 0.0375614 71.8429 6.83202 55.4358C13.6265 39.0286 25.1336 25.0047 39.8982 15.1372C54.6628 5.26975 72.0217 0.00197832 89.78 5.56896e-07C101.572 -0.00131276 113.249 2.32025 124.144 6.83203C135.039 11.3438 144.939 17.9575 153.278 26.2954C161.616 34.6333 168.231 44.532 172.744 55.4265C177.257 66.321 179.58 77.9978 179.58 89.79Z" transform="translate(133.117 353.845)" fill="#27262C"/>
<path d="M0 67.8301C1.45787e-07 81.2452 3.97785 94.3591 11.4307 105.513C18.8835 116.668 29.4764 125.362 41.8701 130.496C54.2638 135.63 67.9019 136.974 81.0593 134.357C94.2168 131.741 106.303 125.282 115.79 115.797C125.276 106.311 131.737 94.2262 134.355 81.0691C136.974 67.912 135.632 54.2741 130.5 41.8796C125.367 29.4852 116.675 18.8907 105.521 11.4363C94.3682 3.98182 81.2549 0.00197849 67.8398 7.37197e-07C58.9314 -0.00131261 50.1101 1.75221 41.8794 5.1604C33.6487 8.56859 26.17 13.5648 19.8704 19.8635C13.5707 26.1623 8.57346 33.6402 5.16406 41.8704C1.75466 50.1005 -9.68116e-08 58.9217 0 67.8301V67.8301Z" transform="translate(155.287 375.805)" fill="#C3BFBE"/>
<path d="M0.611565 9.14014L16.3115 26.98C16.3115 26.98 19.0214 31.26 22.7314 31.26C26.4414 31.26 29.1614 28.26 29.1614 28.26L45.5715 9.14014C45.5715 9.14014 47.8515 6.43007 45.5715 4.57007C43.2915 2.71007 35.2814 0 24.1614 0C13.0414 0 -3.37844 3.00014 0.611565 9.14014Z" transform="translate(198.966 389.025)" fill="#27262C"/>
<path d="M0.611565 22.1201L16.3015 4.28003C16.3015 4.28003 19.0214 0 22.7314 0C26.4414 0 29.1614 3 29.1614 3L45.5715 22.1201C45.5715 22.1201 47.8515 24.8302 45.5715 26.6802C43.2915 28.5302 35.2814 31.25 24.1614 31.25C13.0414 31.25 -3.37844 28.2901 0.611565 22.1201Z" transform="translate(198.966 466.965)" fill="#27262C"/>
<path d="M22.1199 0.61469L4.28003 16.3149C4.28003 16.3149 0 19.0248 0 22.7348C0.152592 25.1771 1.22448 27.4708 3 29.1547L22.1199 45.5649C22.1199 45.5649 24.8299 47.8449 26.6799 45.5649C28.5299 43.2849 31.25 35.2647 31.25 24.1447C31.25 13.0247 28.2599 -3.38531 22.1199 0.61469Z" transform="translate(247.027 420.351)" fill="#27262C"/>
<path d="M9.12988 0.61469L26.97 16.3149C26.97 16.3149 31.25 19.0248 31.25 22.7348C31.25 26.4448 28.25 29.1547 28.25 29.1547L9.12988 45.5649C9.12988 45.5649 6.41981 47.8449 4.55981 45.5649C2.69981 43.2849 0 35.2647 0 24.1447C0 13.0247 2.98988 -3.38531 9.12988 0.61469Z" transform="translate(169.077 420.351)" fill="#27262C"/>
<path d="M84.5801 169.16C131.292 169.16 169.16 131.292 169.16 84.5801C169.16 37.8678 131.292 0 84.5801 0C37.8678 0 0 37.8678 0 84.5801C0 131.292 37.8678 169.16 84.5801 169.16Z" transform="translate(720.367 345.495)" fill="#27262C"/>
<path d="M63.8901 127.78C99.1756 127.78 127.78 99.1756 127.78 63.8901C127.78 28.6047 99.1756 0 63.8901 0C28.6047 0 0 28.6047 0 63.8901C0 99.1756 28.6047 127.78 63.8901 127.78Z" transform="translate(741.268 366.185)" fill="#C3BFBE"/>
<path d="M0.58078 8.61987L15.3708 25.4199C15.3708 25.4199 17.9208 29.4199 21.3708 29.4199C23.6711 29.2772 25.8322 28.2698 27.4206 26.5999L42.8806 8.59985C42.8806 8.59985 45.0306 6.04005 42.8806 4.30005C40.7306 2.56005 33.1907 0 22.7107 0C12.2307 0 -3.18922 2.83987 0.58078 8.61987Z" transform="translate(782.396 378.625)" fill="#27262C"/>
<path d="M0.579251 20.8L15.359 4C15.359 4 17.9193 0 21.4093 0C23.7091 0.14464 25.8695 1.15178 27.4591 2.82007L42.9191 20.8201C42.9191 20.8201 45.0691 23.3699 42.9191 25.1199C40.7691 26.8699 33.2192 29.4199 22.7492 29.4199C12.2792 29.4199 -3.19075 26.58 0.579251 20.8Z" transform="translate(782.398 452.115)" fill="#27262C"/>
<path d="M20.7998 0.577951L4 15.368C4 15.368 0 17.918 0 21.368C0.14171 23.6686 1.14908 25.8302 2.81982 27.418L20.8198 42.878C20.8198 42.878 23.3801 45.028 25.1201 42.878C26.8601 40.728 29.4199 33.1781 29.4199 22.7081C29.4199 12.2381 26.5798 -3.18205 20.7998 0.577951Z" transform="translate(827.707 408.137)" fill="#27262C"/>
<path d="M8.63965 0.577951L25.4399 15.368C25.4399 15.368 29.4399 17.918 29.4399 21.368C29.2946 23.6697 28.2835 25.8312 26.6099 27.418L8.60986 42.878C8.60986 42.878 6.0598 45.028 4.2998 42.878C2.5398 40.728 0 33.1781 0 22.7081C0 12.2381 2.85965 -3.18205 8.63965 0.577951Z" transform="translate(754.197 408.137)" fill="#27262C"/>
<path d="M0 0H41.6201V9.15991C41.6201 9.15991 0 18 0 0Z" transform="translate(294.587 209.085)" fill="#090600"/>
<path d="M6.26001 12.52C9.71731 12.52 12.52 9.71731 12.52 6.26001C12.52 2.80271 9.71731 0 6.26001 0C2.80271 0 0 2.80271 0 6.26001C0 9.71731 2.80271 12.52 6.26001 12.52Z" transform="translate(324.838 228.675)" fill="#5B5851"/>
<path d="M0 1.849V28.4491H16.1699C16.1699 28.4491 21.9 -8.571 0 1.849Z" transform="translate(370.207 43.2363)" fill="#3E0300"/>
<path opacity="0.5" d="M604.7 0H0V2.09009H604.7V0Z" transform="translate(406.732 294.991) rotate(-1.61)" fill="#9D9990"/>
<path opacity="0.5" d="M604.76 0H0V2.09009H604.76V0Z" transform="translate(406.825 305.356) rotate(-1.72)" fill="#9D9990"/>
<path d="M15.3296 32.52C23.7961 32.52 30.6597 25.2402 30.6597 16.26C30.6597 7.27986 23.7961 0 15.3296 0C6.86306 0 0 7.27986 0 16.26C0 25.2402 6.86306 32.52 15.3296 32.52Z" transform="translate(909.678 323.665)" fill="#0D090A"/>
<path d="M20.3396 40.6799C16.3168 40.6799 12.3842 39.4872 9.03934 37.2522C5.69444 35.0172 3.08761 31.8404 1.54812 28.1237C0.00863779 24.4071 -0.393926 20.3174 0.390898 16.3718C1.17572 12.4262 3.1127 8.80208 5.9573 5.95748C8.8019 3.11288 12.4263 1.17566 16.3719 0.390835C20.3174 -0.393989 24.4072 0.00881886 28.1238 1.54831C31.8405 3.08779 35.0167 5.69486 37.2517 9.03976C39.4867 12.3847 40.68 16.3172 40.68 20.3401C40.6747 25.7329 38.5299 30.9034 34.7166 34.7168C30.9032 38.5301 25.7325 40.6746 20.3396 40.6799V40.6799ZM20.3396 2.08004C16.7305 2.08202 13.2033 3.15407 10.2034 5.16061C7.20352 7.16715 4.86588 10.0181 3.48611 13.353C2.10635 16.6879 1.74662 20.357 2.45193 23.8965C3.15724 27.4359 4.89581 30.6869 7.44851 33.2382C10.0012 35.7896 13.2534 37.5266 16.7932 38.2299C20.3331 38.9333 24.002 38.5715 27.3362 37.1899C30.6704 35.8083 33.5198 33.469 35.5247 30.468C37.5296 27.467 38.5999 23.9391 38.5999 20.33C38.5919 15.4905 36.6654 10.8517 33.2425 7.43063C29.8195 4.00952 25.1791 2.08533 20.3396 2.08004V2.08004Z" transform="translate(907.396 316.825)" fill="#9D9990"/>
<path d="M9.52002 20.9202C14.7778 20.9202 19.04 16.2369 19.04 10.46C19.04 4.68306 14.7778 0 9.52002 0C4.26227 0 0 4.68306 0 10.46C0 16.2369 4.26227 20.9202 9.52002 20.9202Z" transform="translate(918.337 327.925)" fill="#345781"/>
<path d="M90.045 382.19L7.83503 379.04L7.64509 378.28C-4.12491 331.18 0.644995 206.16 2.79499 186.75C5.22499 164.84 120.225 28.5202 121.385 27.1602C142.385 2.49016 167.725 3.67002 169.195 3.77002L325.785 0L325.705 1.14014L316.015 140.96C318.205 143.2 329.405 155.46 329.905 172.96C330.435 191.52 325.745 327.96 325.705 329.38C325.705 329.52 325.075 344.25 304.985 345.91C285.835 347.5 261.345 350.91 261.105 350.91L260.815 348.84C261.065 348.84 285.605 345.43 304.815 343.84C323.075 342.33 323.625 329.45 323.625 329.32C323.625 327.94 328.355 191.52 327.825 173.02C327.305 154.94 314.355 142.28 314.225 142.15L313.875 141.81V141.32L323.515 2.17017L169.115 5.89014H169.055C168.805 5.89014 143.735 4.12005 122.945 28.55C100.005 55.55 6.94504 168.41 4.84504 187.02C2.71504 206.27 -2.01509 329.62 9.45491 377.02L90.1051 380.11L90.045 382.19Z" transform="translate(36.6328 18.4854)" fill="#76736E"/>
<path d="M0 129.001V111.001L78.0801 12.5607C81.7225 8.5749 86.1606 5.39754 91.1077 3.23406C96.0547 1.07058 101.401 -0.0309404 106.8 0.000661195H259.8L250.44 129.001H0Z" transform="translate(94.207 30.0847)" fill="#788D9E"/>
<path d="M12.6389 0L16.9187 51.8999C16.9187 51.8999 6.91881 42.7899 5.76881 39.6299C4.61881 36.4699 0.188803 36.4699 0.00880306 34.4199C-0.171197 32.3699 2.4288 28.81 6.0088 25.95C9.5888 23.09 6.31893 3.13 12.6389 0Z" transform="translate(103.179 95.1655)" fill="#090600"/>
<path d="M12.8341 38.03L9.7142 37.8699C9.9742 32.6399 5.35408 20.8699 2.59408 13.8699C1.59408 11.2299 0.744044 9.15005 0.304044 7.80005C0.0368963 7.08161 -0.0560909 6.30994 0.0325598 5.54858C0.12121 4.78723 0.388984 4.05776 0.814054 3.41992C2.81405 0.419922 7.98405 0.03 8.56405 0L8.77401 3.11987L8.67416 1.56006L8.77401 3.11987C7.16401 3.22987 4.27414 3.88994 3.40414 5.18994C3.2479 5.43492 3.15507 5.71507 3.13412 6.00488C3.11317 6.29469 3.16464 6.58495 3.28402 6.84985C3.68402 8.10985 4.534 10.25 5.504 12.74C8.544 20.43 13.1041 32.13 12.8341 38.03Z" transform="translate(97.1035 127.885)" fill="#090600"/>
<path d="M9.36541 0.121682C7.54833 1.22135 5.61694 2.12015 3.6054 2.80186C0.445396 3.80186 -4.76459 12.5819 9.36541 12.5819C23.4954 12.5819 21.4452 6.35166 21.4452 6.35166C21.4452 6.35166 15.4954 -1.02832 9.36541 0.121682Z" transform="translate(98.6416 163.114)" fill="#090600"/>
</svg>
