<svg width="967" height="374" viewBox="0 0 967 374" fill="none" xmlns="http://www.w3.org/2000/svg">
<path d="M4.53405 111.009L17.5341 118.719C17.5341 118.719 29.0041 111.97 35.7441 114.87C42.4841 117.77 162.454 114.219 162.454 114.219C162.454 114.219 187.294 117.529 191.554 102.379C195.814 87.2294 206.774 -18.2607 90.7542 2.75929C-25.2658 23.7793 2.05405 89.3593 4.53405 111.009Z" transform="translate(710.243 198.186)" fill="black"/>
<path d="M0 114.874L23.37 132.684C23.37 132.684 40.46 126.224 44.72 127.684C48.98 129.144 170 137.903 170 137.903C170 137.903 202.3 140.904 211.53 132.684C220.76 124.464 171.78 -12.5563 101.86 0.933668C31.94 14.4237 0 114.874 0 114.874Z" transform="translate(81.207 189.712)" fill="black"/>
<path d="M5 61.2982L0 46.5184C0 46.5184 28 -5.38168 79.47 0.458318C130.94 6.29832 5 61.2982 5 61.2982Z" transform="translate(22.0869 159.997)" fill="#CBCDCC"/>
<path d="M0 0L58.1399 128.21H84.98C78.47 96.4302 58.83 44.49 0 0Z" transform="translate(875.478 21.7454)" fill="#FF5963"/>
<path d="M0 0L12.78 28.1797L23.3501 29.8999C23.3501 29.8999 27.84 29.9901 28.55 29.3101C29.63 28.3101 30.5501 18.03 26.8401 0H0Z" transform="translate(933.617 149.956)" fill="#FF331B"/>
<path d="M0 120.408L5.17004 111.098C5.17004 111.098 176.61 -2.04194 246.29 0.0280619C315.97 2.09806 18.63 155.938 0 120.408Z" transform="translate(178.087 16.4973)" fill="#788D9E"/>
<path d="M961.39 256.23C961.39 256.23 959.78 249.02 960.79 231.68H890.14C878.91 231.68 865.26 222.84 865.26 214.95C865.26 207.06 869.5 208.26 869.5 208.26H956.22V178.66L951.91 178.14C951.91 178.14 952.56 160.38 946.03 129.82C939.5 99.2601 911.03 61.1201 894.83 37.3501C878.63 13.5801 867.93 15.4099 825.35 9.13989C782.77 2.86989 599.14 0 599.14 0C599.14 0 487.6 3.65998 435.62 11.23C383.64 18.8 330.09 47.5402 311.28 57.7302C292.47 67.9202 218.14 124.22 218.14 124.22C214.33 126.6 186.14 124.22 186.14 124.22C150.28 126.72 73.7999 161.74 73.7999 161.74C76.0599 161.5 87.37 164 87.37 164C96.42 169.6 81.87 179.13 76.75 183.06C71.63 186.99 45.39 202.12 36.45 205.06C30.9222 206.836 25.0237 207.122 19.35 205.89C16.13 209.7 11.12 227.57 11.12 227.57C11.12 227.57 3.93 231.06 0 237.9L95.09 236.68C95.09 236.68 103.97 236.14 103.09 240.3C102.21 244.46 95.84 256.96 83.89 257.87C73.75 258.64 17.08 258.87 0.119995 258.94C1.46158 261.947 3.26687 264.724 5.46997 267.17V281.3C4.22416 282.782 3.28693 284.498 2.71338 286.348C2.13983 288.197 1.94154 290.143 2.13 292.07C7.05 321.61 101.93 321.78 101.93 321.78C93.6399 265.11 110.48 212.85 183.62 212.85C249.71 212.85 263.54 275.76 265.62 295.79L726.54 293.73C730.91 264.11 747.92 215.73 812.38 215.2C905.38 214.42 889.11 309.76 889.11 309.76C889.11 309.76 937.11 301.92 953.3 293.3C969.49 284.68 961.39 256.23 961.39 256.23Z" transform="translate(2.74707 0.595459)" fill="#A71A10"/>
<path d="M105.591 3.64363C106.501 -0.526367 97.5913 0.024004 97.5913 0.024004L2.50132 1.24373C1.026 3.75548 0.175498 6.58482 0.0213434 9.49373C-0.151684 13.9008 0.729326 18.2856 2.59129 22.2838C19.5913 22.2238 76.2213 21.9839 86.3613 21.2139C98.3413 20.3039 104.681 7.80363 105.591 3.64363Z" transform="translate(0.195312 237.282)" fill="#2C2D32"/>
<path d="M0.0799561 4.0498C0.0799561 14.7598 5.82996 30.4297 5.82996 30.4297L459.29 19.7197C459.08 13.1301 459.414 6.53457 460.29 0L0 2.06006C0.05 2.85006 0.0799561 3.5398 0.0799561 4.0498Z" transform="translate(268.518 297.186)" fill="#9B1310"/>
<path d="M0.240112 4.90039L460.53 2.84033C460.65 1.91367 460.78 0.966667 460.92 0L0 2.06006C0.12 3.15006 0.190112 4.08039 0.240112 4.90039Z" transform="translate(268.277 294.345)" fill="#BA1C19"/>
<path d="M5.51834 28.5116L434.688 17.5116C434.688 17.5116 454.798 19.0816 460.548 3.93157C460.548 3.93157 462.638 -0.248355 449.548 0.0116453C436.458 0.271645 1.82828 15.4218 1.82828 15.4218C1.82828 15.4218 -4.15166 22.2416 5.51834 28.5116Z" transform="translate(271.959 220.744)" fill="#28272D"/>
<path d="M115.72 5C115.72 9.54 89.82 10 57.86 10C25.9 10 0 10.27 0 5C0 0 25.9 0 57.86 0C89.82 0 115.72 0.48 115.72 5Z" transform="translate(440.487 160.925)" fill="#C1B8BD"/>
<path d="M0 6.91117C0 14.8012 15.48 25.1211 26.71 25.1211H97.3601C97.3541 24.3355 97.4008 23.5503 97.5 22.771C98.81 3.70103 92.8 0.0410481 92.8 0.0410481H6C6 0.0410481 0 -0.958835 0 6.91117Z" transform="translate(866.207 208.174)" fill="#2C2D32"/>
<path d="M0 136.619L278.87 120.619L643.17 105.799C643.17 105.799 679.44 106.309 682 95.0691C684.56 83.8291 666.5 37.3393 655.6 26.0693C644.7 14.7993 646.75 13.8093 640.11 11.7693C633.47 9.72928 505.75 1.03929 452.62 0.529292C399.49 0.0192919 235.5 -3.05067 185.44 14.3193C135.38 31.6893 47 80.0794 0 136.619Z" transform="translate(219.877 13.3362)" fill="#252428"/>
<path d="M0 70.3101C0 70.3101 70.4001 7.91 92.4701 0L85.39 65L0 70.3101Z" transform="translate(234.667 71.9253)" fill="#788D9E"/>
<path d="M5.21008 45.0002L0 115.6L148.71 107.27L164.16 0.00015881C164.16 0.00015881 65.1601 -0.439838 5.21008 45.0002Z" transform="translate(330.047 20.0852)" fill="#788D9E"/>
<path d="M5.20996 3.0002L0 108.18L178.7 102.18L163.08 1.18014C163.08 1.18014 41.87 -2.4398 5.20996 3.0002Z" transform="translate(527.487 17.0852)" fill="#788D9E"/>
<path d="M0 0L14.88 93.72H142.79C142.79 93.72 158.38 92.4698 162.79 87.0598C167.2 81.6498 165.71 68.4498 161.12 59.4998C156.53 50.5498 141.54 12.05 129.46 9.96997C117.38 7.88997 0 0 0 0Z" transform="translate(727.967 19.3655)" fill="#788D9E"/>
<path d="M0.525933 291.52C-1.89407 274.32 4.806 135.82 5.096 129.94V129.88L22.0159 0L23.466 0.190186L6.54595 130.04C6.41595 132.77 -0.454003 274.33 1.966 291.32L0.525933 291.52Z" transform="translate(492.921 3.97534)" fill="#1C1B21"/>
<path d="M9.35999 291.06L8.17004 290.2C27.39 263.53 35.92 182.68 36.62 162.2C37.34 141.26 23.16 121.5 23.02 121.31L22.91 121.16V120.98L7.34998 13.04L0 0.75L1.26001 0L8.76001 12.55L24.34 120.61C25.67 122.51 38.81 141.81 38.11 162.27C37.41 182.73 28.78 264.11 9.35999 291.06Z" transform="translate(705.587 3.71533)" fill="#1C1B21"/>
<path d="M0.477447 11C0.087447 11 0.617545 9.99994 0.577545 8.68994C0.537545 7.37994 -0.582499 6.47008 0.407501 6.33008L206.268 0H206.347C206.987 0.0125994 207.597 0.271088 208.052 0.72168C208.506 1.17227 208.77 1.7803 208.787 2.41992C208.794 2.73302 208.738 3.04433 208.621 3.33496C208.504 3.62559 208.33 3.88939 208.108 4.11084C207.887 4.33229 207.623 4.50685 207.333 4.62354C207.042 4.74022 206.731 4.79686 206.418 4.79004L0.547515 11H0.477447Z" transform="translate(742.3 151.085)" fill="#1C1B21"/>
<path d="M0.27002 21.8901L0 20.4502C0.9 20.2802 90.52 3.32 127.24 0L127.37 1.45996C90.72 4.79996 1.17002 21.7401 0.27002 21.8901Z" transform="translate(92.5674 149.195)" fill="#1C1B21"/>
<path d="M0 54.1103L23.2 23.4204C23.2 23.4204 30.14 2.59047 47.5 0.770474C64.86 -1.04953 86.7799 -0.86941 88.0599 15.3906C89.3399 31.6506 81.85 34.0303 74.72 33.8403C67.59 33.6503 39.09 36.9502 39.09 36.9502L41.47 49.7402C41.47 49.7402 2.01 61.0503 0 54.1103Z" transform="translate(274.848 102.915)" fill="#A71A10"/>
<path d="M73 146C113.317 146 146 113.317 146 73C146 32.6832 113.317 0 73 0C32.6832 0 0 32.6832 0 73C0 113.317 32.6832 146 73 146Z" transform="translate(112.967 227.565)" fill="#27262C"/>
<path d="M55.14 110.28C85.593 110.28 110.28 85.5931 110.28 55.1401C110.28 24.6872 85.593 0 55.14 0C24.687 0 0 24.6872 0 55.1401C0 85.5931 24.687 110.28 55.14 110.28Z" transform="translate(130.997 245.425)" fill="#C3BFBE"/>
<path d="M0.498617 7.42969L13.2586 21.9297C13.2586 21.9297 15.4686 25.4102 18.4786 25.4102C20.4642 25.285 22.329 24.4129 23.6986 22.9697L37.0385 7.41992C37.0385 7.41992 38.8985 5.20996 37.0385 3.70996C35.1785 2.20996 28.6686 0 19.6386 0C10.6086 0 -2.75138 2.43969 0.498617 7.42969Z" transform="translate(166.498 256.166)" fill="#27262C"/>
<path d="M0.499219 17.98L13.2592 3.47998C13.2592 3.47998 15.4692 0 18.4792 0C20.4643 0.127134 22.3284 0.998421 23.6992 2.43994L37.0391 17.98C37.0391 17.98 38.8991 20.1899 37.0391 21.6899C35.1791 23.1899 28.6692 25.4097 19.6292 25.4097C10.5892 25.4097 -2.75078 22.97 0.499219 17.98Z" transform="translate(166.498 319.556)" fill="#27262C"/>
<path d="M17.98 0.489171L3.47998 13.2489C3.47998 13.2489 0 15.4492 0 18.4692C0.124204 20.455 0.99609 22.3204 2.44006 23.6894L17.99 37.0292C17.99 37.0292 20.2 38.8792 21.7 37.0292C23.2 35.1792 25.42 28.6591 25.42 19.6191C25.42 10.5791 22.97 -2.72083 17.98 0.489171Z" transform="translate(205.577 281.596)" fill="#27262C"/>
<path d="M7.43005 0.489171L21.9301 13.2489C21.9301 13.2489 25.41 15.4492 25.41 18.4692C25.2849 20.4548 24.4131 22.3198 22.97 23.6894L7.43005 37.0292C7.43005 37.0292 5.21996 38.8792 3.70996 37.0292C2.19996 35.1792 0 28.6591 0 19.6191C0 10.5791 2.44005 -2.72083 7.43005 0.489171Z" transform="translate(142.188 281.596)" fill="#27262C"/>
<path d="M73 146C113.317 146 146 113.317 146 73C146 32.6832 113.317 0 73 0C32.6832 0 0 32.6832 0 73C0 113.317 32.6832 146 73 146Z" transform="translate(736.178 227.565)" fill="#27262C"/>
<path d="M55.14 110.28C85.593 110.28 110.28 85.5931 110.28 55.1401C110.28 24.6872 85.593 0 55.14 0C24.687 0 0 24.6872 0 55.1401C0 85.5931 24.687 110.28 55.14 110.28Z" transform="translate(754.207 245.425)" fill="#C3BFBE"/>
<path d="M0.498617 7.42969L13.2586 21.9297C13.2586 21.9297 15.4686 25.4102 18.4786 25.4102C20.4642 25.285 22.329 24.4129 23.6986 22.9697L37.0387 7.41992C37.0387 7.41992 38.8987 5.20996 37.0387 3.70996C35.1787 2.20996 28.6686 0 19.6386 0C10.6086 0 -2.75138 2.43969 0.498617 7.42969Z" transform="translate(789.709 256.166)" fill="#27262C"/>
<path d="M0.499219 17.98L13.2592 3.47998C13.2592 3.47998 15.4692 0 18.4792 0C20.4643 0.127134 22.3284 0.998421 23.6992 2.43994L37.0393 17.98C37.0393 17.98 38.8993 20.1899 37.0393 21.6899C35.1793 23.1899 28.6692 25.4097 19.6292 25.4097C10.5892 25.4097 -2.75078 22.97 0.499219 17.98Z" transform="translate(789.708 319.556)" fill="#27262C"/>
<path d="M17.9801 0.489171L3.4801 13.2489C3.4801 13.2489 0 15.4492 0 18.4692C0.124204 20.455 0.99609 22.3204 2.44006 23.6894L17.99 37.0292C17.99 37.0292 20.2001 38.8792 21.7001 37.0292C23.2001 35.1792 25.42 28.6591 25.42 19.6191C25.42 10.5791 22.9701 -2.72083 17.9801 0.489171Z" transform="translate(828.787 281.596)" fill="#27262C"/>
<path d="M7.43005 0.489171L21.9301 13.2489C21.9301 13.2489 25.41 15.4492 25.41 18.4692C25.2849 20.4548 24.4132 22.3198 22.9701 23.6894L7.43005 37.0292C7.43005 37.0292 5.22008 38.8792 3.71008 37.0292C2.20008 35.1792 0 28.6591 0 19.6191C0 10.5791 2.44005 -2.72083 7.43005 0.489171Z" transform="translate(765.397 281.596)" fill="#27262C"/>
</svg>
