<svg width="1233" height="399" viewBox="0 0 1233 399" fill="none" xmlns="http://www.w3.org/2000/svg">
<path d="M0 12.2481L5.53003 15.7182C5.53003 15.7182 37.5298 13.5882 42.0898 13.9782C46.6498 14.3682 56.8299 11.4182 66.6599 22.2282C66.6599 22.2282 83.3699 17.9681 84.6599 15.5081C85.9499 13.0481 71.2999 4.61817 64.6599 2.07817C58.0199 -0.461828 13.2298 -0.381887 8.31982 0.768113C3.40982 1.91811 0 12.2481 0 12.2481Z" transform="translate(1071.8 292.907)" fill="#C3BFBE"/>
<path d="M47.1479 0C47.1479 0 76.3082 0.779995 77.6182 5.37C78.9282 9.96 69.188 37.97 69.188 37.97C69.188 37.97 66.478 47.14 60.738 47.79C54.998 48.44 7.67794 45.17 0.637935 37.96C-6.40206 30.75 47.1479 0 47.1479 0Z" transform="translate(1153.7 248.345)" fill="black"/>
<path d="M67.0108 26.0399C67.0108 26.0399 36.5509 27.87 33.4109 27.38C30.2709 26.89 32.2209 24.99 34.9009 16.33C37.0009 9.55996 32.8009 2.67 30.9009 0C25.6209 1 20.9009 2.88 17.9009 6C17.9009 6 8.90085 17.9999 4.60085 28.5499C3.63415 30.7932 2.9359 33.1428 2.52077 35.5499C0.88077 46.7499 -1.65923 79.6099 1.52077 82.5499C4.70077 85.4899 41.1008 84.76 41.1008 84.76L65.1008 60.6L79.9309 27.3199L67.0108 26.0399Z" transform="translate(23.6162 156.625)" fill="#C5D6E2"/>
<path d="M4.02002 17.4949C1.33002 26.1549 -0.619971 28.055 2.53003 28.545C5.68003 29.035 36.1299 27.2049 36.1299 27.2049L49.02 28.5749L57.49 9.57488L30.6099 1.2149C30.6099 1.2149 13.53 -1.48503 0 1.16497C1.92 3.83497 6.12002 10.7249 4.02002 17.4949Z" transform="translate(54.5078 155.46)" fill="#B95E25"/>
<path d="M1.18239 0H57.4824L50.4026 33H2.7925C2.7925 33 -0.527474 21.75 0.0725258 13.09C0.672526 4.42997 -0.707611 0.83 1.18239 0Z" transform="translate(45.915 206.485)" fill="#B95E25"/>
<path d="M2.69019 5.26293L0 9.26293C0 9.26293 11.3501 5.51293 13.8901 5.26293C16.4301 5.01293 42.4101 2.12282 46.6001 13.7728C50.7901 25.4228 26.82 49.1029 24.02 83.3329L33.3101 79.0328L69.1501 32.4329L63.77 10.7728L50.3301 3.45288C50.3301 3.45288 13.7402 -5.05718 2.69019 4.64282" transform="translate(38.3574 158.132)" fill="black"/>
<path d="M0.810324 2.87025C0.59273 2.85759 0.387934 2.76278 0.23757 2.60499C0.0872051 2.4472 0.00243144 2.23823 0.000265063 2.02028C-0.00520951 1.80347 0.0743004 1.59307 0.221945 1.43422C0.369589 1.27536 0.573678 1.18068 0.790304 1.1703L53.0603 0.00025562C53.1654 -0.00240388 53.2699 0.015713 53.3679 0.0534783C53.466 0.0912435 53.5557 0.147912 53.6319 0.220348C53.708 0.292784 53.7692 0.379527 53.8118 0.475597C53.8544 0.571668 53.8778 0.675217 53.8804 0.780285C53.8862 1.00017 53.8074 1.21389 53.6604 1.37757C53.5135 1.54126 53.3096 1.64246 53.0904 1.66029L0.820333 2.87025H0.810324Z" transform="translate(29.1875 183.215)" fill="black"/>
<path d="M46.6401 1H0.800049C0.360049 1 0 0.94 0 0.5C0 0.06 0.360049 0 0.800049 0H46.6401C47.0901 0 47.4399 0.06 47.4399 0.5C47.4399 0.94 47.0901 1 46.6401 1Z" transform="translate(26.1875 203.085)" fill="black"/>
<path d="M1.60986 0H24.9399L18.4399 12.87H0L1.60986 0Z" transform="translate(53.5273 186.775)" fill="black"/>
<path d="M5.72035 87.67C5.72035 87.67 -1.71975 92.98 0.370247 101.67C2.46025 110.36 6.65028 126.58 6.65028 126.58C6.65028 126.58 6.41037 131.79 20.0004 133.58C33.5904 135.37 37.3602 136.58 37.3602 136.58V144.58C37.3602 144.58 27.0702 146.58 27.3602 150.9C27.6502 155.22 38.5103 158.67 80.9303 158.67L82.0304 144.03L114.46 144.33L264.86 141.49C264.86 141.49 295.78 150.75 307.28 152.99C318.78 155.23 333.72 157.71 337.45 157.52C341.18 157.33 344.92 128.65 344.92 128.65L299.08 10.16L115.83 0L92.4503 46L76.1102 67.65L72.2304 68.51L37.8502 68.24C37.8502 68.24 19.3602 75.24 15.6202 79.29C12.5712 82.367 9.2586 85.171 5.72035 87.67V87.67Z" transform="translate(0.486328 172.925)" fill="#010101"/>
<path d="M487.801 37.35L461.801 0C461.801 0 451.341 4.43 445.871 3.63C440.401 2.83 191.871 58.3201 191.871 58.3201L0.700655 167.89C0.700655 167.89 -3.47946 197.45 8.58054 202.28C20.6405 207.11 92.2207 207.91 92.2207 207.91L474.221 202.28C483.872 206.373 494.305 208.291 504.781 207.9C514.837 207.46 524.701 204.994 533.781 200.65H553.081C553.081 200.65 590.081 199.78 607.771 197.37C625.461 194.96 746.901 187.65 746.901 187.65H783.701V40.65L487.801 37.35Z" transform="translate(293.507 122.435)" fill="black"/>
<path d="M165.67 3L153.011 0C153.011 0 14.5804 83.8601 1.88038 121.7C-10.8196 159.54 44.9705 93.42 44.9705 93.42L165.67 3Z" transform="translate(289.227 17.1853)" fill="#C5D6E2"/>
<path d="M102.24 32.33C116.34 23.16 147.66 3.68994 147.66 3.68994L144.39 0C143.17 0.35 142.54 0.55 142.82 0.5C144.43 0.23 146.3 3.5 146.3 3.5C112.3 18.25 39.0599 79.37 33.1699 84.5C27.2799 89.63 6.08996 103.81 0.459961 104.86L0 104.94C7.49 109.33 82.27 45.33 102.24 32.33Z" transform="translate(299.428 16.7554)" fill="#222222"/>
<path d="M701.404 306.16C698.184 304.28 699.884 294.59 699.884 294.59L694.254 302.5C695.864 298.5 707.124 145.94 706.854 117.26C706.584 88.5803 699.344 22.0902 692.114 10.5602C684.884 -0.969796 656.194 -0.699718 571.474 0.640282C486.754 1.98028 442.794 9.22024 436.634 9.22024C431.534 9.22024 411.374 14.5502 405.494 16.2202L408.764 19.9102C408.764 19.9102 377.444 39.3802 363.344 48.5502C343.344 61.5502 268.604 125.61 261.104 121.07C254.904 122.07 235.384 121.82 228.854 121.07C222.144 120.27 72.8539 141.49 48.9539 145.77C25.0539 150.05 16.7539 152.18 7.95387 155.77C-0.846127 159.36 0.0236975 166.97 0.0236975 166.97C22.6537 152.05 46.5639 165.53 48.9739 169.29C51.3839 173.05 42.8038 191.54 37.1738 201.73C31.5438 211.92 24.0337 241 24.0337 241H59.1538C68.8038 215.26 81.4039 205.14 94.0039 199.51C106.604 193.88 200.434 181.35 224.294 198.51C248.154 215.67 256.464 294.22 257.004 299.85C257.544 305.48 262.094 310.04 262.094 310.04C262.26 311.9 262.927 313.68 264.024 315.191C265.121 316.701 266.607 317.887 268.324 318.62L708.844 314.62V308.18C706.246 308.061 703.705 307.372 701.404 306.16V306.16Z" transform="translate(38.3232 0.495117)" fill="#DEDEDE"/>
<path d="M17.9812 0L42.7612 13.6699C42.7612 13.6699 47.9412 26.2 48.2812 44.86C48.6212 63.52 49.8211 102.22 43.6611 109.75C37.5011 117.28 0.171187 87.1499 0.0011868 84.4099C-0.168813 81.6699 17.9812 0 17.9812 0Z" transform="translate(1164.05 124.646)" fill="#AE222F"/>
<path d="M15.953 4.39001C15.953 4.39001 11.3332 3.02001 11.3332 10.39C11.3332 17.76 10.2533 78.02 9.43327 97.73C8.61327 117.44 -2.43691 185.56 0.493088 187.35C3.42309 189.14 12.1833 190.72 12.1833 190.72L11.9133 198.01H79.8232C79.8232 198.01 90.8232 192.96 96.8232 192.96C102.823 192.96 104.763 188.74 104.763 184.91C104.763 181.08 112.433 102.44 148.303 86.8301C184.173 71.2201 275.823 72.1801 275.823 72.1801C275.823 72.1801 307.313 71.0001 317.443 104.68C327.573 138.36 331.133 171.68 325.653 182.4L392.463 174.17C392.463 174.17 448.593 171.97 457.353 154.72C466.113 137.47 469.673 113.64 469.673 113.64C469.673 113.64 458.443 110.08 455.163 94.4701C451.883 78.8601 444.483 58.8701 444.163 53.9401C443.843 49.0101 438.163 27.38 445.043 23.55C451.923 19.72 466.733 20.26 466.733 20.26V6.40002C466.733 6.40002 467.823 0 461.793 0C455.763 0 15.953 4.39001 15.953 4.39001Z" transform="translate(739.384 118.045)" fill="#DEDEDE"/>
<path d="M88.5157 0H24.1756C24.1756 0 2.4258 0.689941 0.6358 10.6899C-1.1542 20.6899 1.23579 24.4299 2.87579 24.6899C4.51579 24.9499 82.7757 24.6899 82.7757 24.6899C82.7757 24.6899 83.9457 10.81 88.5157 0Z" transform="translate(4.42188 245.896)" fill="#DEDEDE"/>
<path d="M0 0.130604V19.8306H66.3501C66.3501 19.8306 69.6201 19.8306 70.5901 18.8306C71.5601 17.8306 71.5901 14.4106 71.5901 14.4106V4.93065C71.5901 4.93065 71.4502 0.370584 68.1902 0.110584C64.9302 -0.149416 0 0.130604 0 0.130604Z" transform="translate(749.598 228.075)" fill="#222222"/>
<path d="M0 106.865C0 106.865 4.82008 110.495 12.3301 96.9552C19.8401 83.4152 31.63 30.8652 55.22 24.4352C78.81 18.0052 286.84 0.305153 286.84 0.305153C286.84 0.305153 67.5499 -3.9848 43.4199 19.6052C19.2899 43.1952 15.55 100.835 0 106.865Z" transform="translate(815.947 141.04)" fill="#D3D3D3"/>
<path d="M0.29232 109.409C0.29232 109.409 -2.53756 97.4593 9.41244 88.3493C21.3624 79.2393 82.9723 30.1893 82.9723 30.1893C82.9723 30.1893 111.892 6.9293 149.622 3.7793C187.352 0.629303 235.452 0.00928336 235.452 0.00928336C235.452 0.00928336 246.772 -0.620727 247.082 8.49927C247.392 17.6193 240.792 98.0993 240.792 98.0993C240.792 98.0993 242.682 104.699 237.022 108.159C231.362 111.619 218.792 110.989 218.792 110.989L19.1624 120.419C19.1624 120.419 2.49232 119.469 0.29232 109.409Z" transform="translate(343.375 16.3062)" fill="#1E1E1E"/>
<path d="M220.371 92.74L227.601 6.59998C227.601 6.59998 230.111 0 223.981 0C217.851 0 137.061 1.43051e-05 107.501 12.89C77.9408 25.78 11.931 65.08 2.18101 92.74C-7.56899 120.4 18.5309 103.43 18.5309 103.43L56.881 102.8L204.011 96.2C204.011 96.2 219.961 98.12 220.371 92.74Z" transform="translate(356.836 23.2354)" fill="#C5D6E2"/>
<path d="M99.6001 84.1C99.6001 97.01 89.13 109 76.22 109H26.48C13.57 109 0 95.49 0 82.58V19.16C0 6.25003 13.56 0 26.48 0H69.79C82.7 0 91.21 4.12995 95.52 21.3199L99.6001 84.1Z" transform="translate(614.207 16.0854)" fill="#C5D6E2"/>
<path d="M69.95 4.82996C80.28 4.82996 87.0399 7.57003 90.8899 22.53L94.8899 85.45C94.8099 96.02 86.1798 105.37 76.3398 105.37H26.5999C16.4099 105.37 4.81982 93.78 4.81982 83.6V20.1801C4.81982 10.3301 16.0899 4.83997 26.5999 4.83997H69.97L69.95 4.82996ZM69.9099 0.0100098H26.5999C13.6899 0.0100098 0 7.26004 0 20.17V83.59C0 96.5 13.6899 110.19 26.5999 110.19H76.3398C89.2498 110.19 99.72 98.1101 99.72 85.1901L95.6399 21.87C91.3299 4.67999 82.8199 0 69.9099 0V0.0100098Z" transform="translate(614.047 15.0752)" fill="#1E1E1E"/>
<path d="M6.69995 0.0100098C1.22995 0.0100098 0 4.45004 0 9.92004V10.2001C0 15.6701 1.21995 20.11 6.69995 20.11H266.21V0L6.69995 0.0100098Z" transform="translate(334.207 228.195)" fill="#222222"/>
<path d="M128.68 9.91003C128.68 4.44003 129.07 0 123.59 0H0V20.11H123.59C129.06 20.11 128.68 15.6701 128.68 10.2001V9.91003Z" transform="translate(606.848 228.175)" fill="#222222"/>
<path d="M0.121554 44.0058C0.121554 44.0058 -1.80836 32.8058 9.71164 30.0058L11.1015 15.6057C11.1015 15.6057 10.5716 8.13571 14.9416 6.21571C19.3116 4.29571 41.8215 -1.14429 51.1015 0.215712C60.3815 1.57571 57.6116 26.1357 57.3916 29.8757C57.1716 33.6157 58.3916 40.4358 52.1616 42.6758C45.9316 44.9158 25.1615 51.8458 22.2915 52.9158C19.4215 53.9858 -0.298446 57.3358 0.121554 44.0058Z" transform="translate(345.296 83.5596)" fill="#040404"/>
<path d="M1 287.92H0V153.85L3.42993 0L5.03003 0.039917L1 153.87V287.92Z" transform="translate(603.207 1.16553)" fill="#222222"/>
<path d="M12.8746 192.59L12.6747 192.06C9.01465 182.14 -1.92547 107.97 0.294528 80.73C2.42453 54.73 14.9145 1.97994 15.0345 1.43994L17.0345 0C16.9045 0.54 4.03464 55 1.90464 80.86C-0.225364 106.72 10.2847 179.39 14.0047 190.97L420.145 185.16V186.77L12.8746 192.59Z" transform="translate(314.072 102.375)" fill="#222222"/>
<path d="M86.1199 172.24C133.683 172.24 172.24 133.683 172.24 86.12C172.24 38.5572 133.683 0 86.1199 0C38.5571 0 0 38.5572 0 86.12C0 133.683 38.5571 172.24 86.1199 172.24Z" transform="translate(99.0879 226.416)" fill="#27262C"/>
<path d="M65.0498 130.1C100.976 130.1 130.1 100.976 130.1 65.05C130.1 29.1239 100.976 0 65.0498 0C29.1237 0 0 29.1239 0 65.05C0 100.976 29.1237 130.1 65.0498 130.1Z" transform="translate(120.357 247.485)" fill="#C3BFBE"/>
<path d="M0.587704 8.75L15.6475 25.86C15.6475 25.86 18.2477 29.9701 21.8077 29.9701C24.1465 29.8242 26.3435 28.7988 27.9576 27.1L43.7076 8.76001C43.7076 8.76001 45.8976 6.16 43.7076 4.38C41.5176 2.6 33.8375 0 23.1675 0C12.4975 0 -3.2423 2.91 0.587704 8.75Z" transform="translate(162.24 260.175)" fill="#27262C"/>
<path d="M0.588011 21.22L15.6378 4.10999C15.6378 4.10999 18.238 0 21.798 0C24.1398 0.145337 26.3401 1.17051 27.9579 2.87L43.6979 21.2101C43.6979 21.2101 45.8879 23.81 43.6979 25.59C41.5079 27.37 33.8278 29.97 23.1578 29.97C12.4878 29.97 -3.24199 27.15 0.588011 21.22Z" transform="translate(162.239 334.935)" fill="#27262C"/>
<path d="M21.2202 0.590525L4.11011 15.6406C4.11011 15.6406 0 18.2406 0 21.8006C0.144359 24.1427 1.16981 26.3433 2.87012 27.9605L21.2102 43.7005C21.2102 43.7005 23.8101 45.8905 25.5901 43.7005C27.3701 41.5105 29.9702 33.8306 29.9702 23.1606C29.9702 12.4906 27.1002 -3.24948 21.2202 0.590525Z" transform="translate(208.337 290.205)" fill="#27262C"/>
<path d="M8.76001 0.590525L25.8699 15.6406C25.8699 15.6406 29.97 18.2406 29.97 21.8006C29.8246 24.1425 28.7993 26.3428 27.0999 27.9605L8.76001 43.7005C8.76001 43.7005 6.15988 45.8905 4.37988 43.7005C2.59988 41.5105 0 33.8306 0 23.1606C0 12.4906 2.87001 -3.24948 8.76001 0.590525Z" transform="translate(133.567 290.205)" fill="#27262C"/>
<path d="M86.1199 172.24C133.683 172.24 172.24 133.683 172.24 86.12C172.24 38.5572 133.683 0 86.1199 0C38.5571 0 0 38.5572 0 86.12C0 133.683 38.5571 172.24 86.1199 172.24Z" transform="translate(99.0879 226.416)" fill="#27262C"/>
<path d="M65.0498 130.1C100.976 130.1 130.1 100.976 130.1 65.05C130.1 29.1239 100.976 0 65.0498 0C29.1237 0 0 29.1239 0 65.05C0 100.976 29.1237 130.1 65.0498 130.1Z" transform="translate(120.357 247.485)" fill="#C3BFBE"/>
<path d="M0.587704 8.75L15.6475 25.86C15.6475 25.86 18.2477 29.9701 21.8077 29.9701C24.1465 29.8242 26.3435 28.7988 27.9576 27.1L43.7076 8.76001C43.7076 8.76001 45.8976 6.16 43.7076 4.38C41.5176 2.6 33.8375 0 23.1675 0C12.4975 0 -3.2423 2.91 0.587704 8.75Z" transform="translate(162.24 260.175)" fill="#27262C"/>
<path d="M0.588011 21.22L15.6378 4.10999C15.6378 4.10999 18.238 0 21.798 0C24.1398 0.145337 26.3401 1.17051 27.9579 2.87L43.6979 21.2101C43.6979 21.2101 45.8879 23.81 43.6979 25.59C41.5079 27.37 33.8278 29.97 23.1578 29.97C12.4878 29.97 -3.24199 27.15 0.588011 21.22Z" transform="translate(162.239 334.935)" fill="#27262C"/>
<path d="M21.2202 0.590525L4.11011 15.6406C4.11011 15.6406 0 18.2406 0 21.8006C0.144359 24.1427 1.16981 26.3433 2.87012 27.9605L21.2102 43.7005C21.2102 43.7005 23.8101 45.8905 25.5901 43.7005C27.3701 41.5105 29.9702 33.8306 29.9702 23.1606C29.9702 12.4906 27.1002 -3.24948 21.2202 0.590525Z" transform="translate(208.337 290.205)" fill="#27262C"/>
<path d="M8.76001 0.590525L25.8699 15.6406C25.8699 15.6406 29.97 18.2406 29.97 21.8006C29.8246 24.1425 28.7993 26.3428 27.0999 27.9605L8.76001 43.7005C8.76001 43.7005 6.15988 45.8905 4.37988 43.7005C2.59988 41.5105 0 33.8306 0 23.1606C0 12.4906 2.87001 -3.24948 8.76001 0.590525Z" transform="translate(133.567 290.205)" fill="#27262C"/>
<path d="M86.1199 172.24C133.683 172.24 172.24 133.683 172.24 86.12C172.24 38.5572 133.683 0 86.1199 0C38.5571 0 0 38.5572 0 86.12C0 133.683 38.5571 172.24 86.1199 172.24Z" transform="translate(872.768 226.416)" fill="#27262C"/>
<path d="M65.05 130.1C100.976 130.1 130.1 100.976 130.1 65.05C130.1 29.1239 100.976 0 65.05 0C29.1239 0 0 29.1239 0 65.05C0 100.976 29.1239 130.1 65.05 130.1Z" transform="translate(894.037 247.485)" fill="#C3BFBE"/>
<path d="M0.590532 8.75L15.6506 25.86C15.6506 25.86 18.2505 29.9701 21.8105 29.9701C24.1491 29.8233 26.3457 28.798 27.9604 27.1L43.7004 8.76001C43.7004 8.76001 45.8904 6.16 43.7004 4.38C41.5104 2.6 33.8304 0 23.1604 0C12.4904 0 -3.24947 2.91 0.590532 8.75Z" transform="translate(935.927 260.175)" fill="#27262C"/>
<path d="M0.588003 21.22L15.6381 4.10999C15.6381 4.10999 18.238 0 21.798 0C24.1398 0.145337 26.3401 1.17051 27.9579 2.87L43.6979 21.2101C43.6979 21.2101 45.8879 23.81 43.6979 25.59C41.5079 27.37 33.8281 29.97 23.1581 29.97C12.4881 29.97 -3.242 27.15 0.588003 21.22Z" transform="translate(935.92 334.935)" fill="#27262C"/>
<path d="M21.22 0.590525L4.10986 15.6406C4.10986 15.6406 0 18.2406 0 21.8006C0.147006 24.1441 1.17589 26.3449 2.87988 27.9605L21.22 43.7005C21.22 43.7005 23.8199 45.8905 25.5999 43.7005C27.3799 41.5105 29.98 33.8306 29.98 23.1606C29.98 12.4906 27.13 -3.24948 21.22 0.590525Z" transform="translate(981.987 290.205)" fill="#27262C"/>
<path d="M8.76001 0.590525L25.8699 15.6406C25.8699 15.6406 29.97 18.2406 29.97 21.8006C29.8246 24.1425 28.7993 26.3428 27.0999 27.9605L8.76001 43.7005C8.76001 43.7005 6.15988 45.8905 4.37988 43.7005C2.59988 41.5105 0 33.8306 0 23.1606C0 12.4906 2.88001 -3.24948 8.76001 0.590525Z" transform="translate(907.247 290.205)" fill="#27262C"/>
<path d="M16.3073 0H37.2175C37.8791 0.0413872 38.5235 0.228101 39.1047 0.546875C39.6859 0.865649 40.1895 1.3087 40.5801 1.84436C40.9706 2.38002 41.2383 2.99512 41.364 3.646C41.4897 4.29687 41.4703 4.96743 41.3073 5.60999C40.4873 10.85 38.8274 33.61 28.8474 34.25C18.8674 34.89 0.687325 39.25 0.037325 36.61C-0.612675 33.97 7.40732 28.61 10.0373 22.53C12.6673 16.45 14.8973 0 16.3073 0Z" transform="translate(1191.31 253.085)" fill="#DEDEDE"/>
<path d="M0.152642 14.1217C0.152642 14.1217 0.45274 8.21165 3.75274 7.98165C7.05274 7.75165 12.2825 6.98165 12.2825 6.98165C12.2825 6.98165 17.6225 0.131676 23.5525 0.131676H36.1526C36.1526 0.131676 47.0126 -1.47839 51.9026 6.56161H62.6927C62.6927 6.56161 68.0725 6.7516 68.3025 14.0516C68.5325 21.3516 63.0626 19.9817 63.0626 19.9817L52.0626 20.1816C52.0626 20.1816 47.0626 27.4716 42.8426 27.4716H30.5726C30.5726 27.4716 18.9327 28.2916 16.1927 24.5316C13.4527 20.7716 10.8426 20.6616 10.8426 20.6616L4.92266 20.3216C4.92266 20.3216 -1.01736 18.4817 0.152642 14.1217Z" transform="translate(524.055 141.244)" fill="#1A1A1A"/>
</svg>
