<svg width="968" height="245" viewBox="0 0 968 245" fill="none" xmlns="http://www.w3.org/2000/svg">
<path d="M15.3601 125.1L28.9301 134.1C28.9301 134.1 42.71 126.72 50.25 127.01C57.79 127.3 152.41 129.67 152.41 129.67L171.58 131.07L201.82 92.4102L199.9 27.73L122.9 0L53.75 5.34009L21.0601 33.51L0 77L15.3601 125.1Z" transform="translate(107.407 86.9854)" fill="black"/>
<path d="M262.99 110.77L262.25 114.1C262.25 114.1 247.1 135.29 227.39 138.86C207.68 142.43 209.16 143.17 209.16 143.17C209.16 143.17 177.01 150.81 165.3 144.28C153.59 137.75 55.7799 152.28 55.7799 152.28L42.6 157.7L28.6 160.41C28.6 160.41 1 134.29 1 133.92C1 133.55 0 108.17 0 108.17L26.24 36.4702L81.0599 4.19019L108.29 0C108.29 0 190.21 27.8402 190.21 28.4602C190.21 29.0802 200.31 54.3301 200.31 54.3301L223.47 88.5801L242.56 98.0701L262.99 110.77Z" transform="translate(683.007 51.4753)" fill="#070707"/>
<path d="M42.8999 0C42.8999 0 45.9001 17.6201 44.1301 21.5601C44.1301 21.5601 14.9201 26.1799 11.1301 25.4099C7.34013 24.6399 0 13.4099 0 13.4099L42.8999 0Z" transform="translate(913.938 143.146)" fill="#332C2B"/>
<path d="M56.9301 9.86011C57.2586 9.17827 57.5361 8.47289 57.7602 7.75C58.6202 4.95 55.7602 2.36011 55.7602 2.36011L23.5903 0C23.5903 0 0.440206 31.45 0.0102063 32.2C-0.419794 32.95 12.8803 49.97 12.8803 49.97H26.0302L37.4902 9.25L56.9301 9.86011Z" transform="translate(884.917 82.5754)" fill="#473D3C"/>
<path d="M36.6499 33.9299L29.76 26.49L29.22 3.34009C29.8543 2.48217 30.4035 1.56451 30.8599 0.600098L11.46 0L0 40.72H25.5601L36.6499 33.9299Z" transform="translate(910.997 91.8354)" fill="#332C2B"/>
<path d="M42.1001 1.45996C42.1001 1.45996 42.96 8.45998 38.76 13.73C34.56 19 30.5601 28.5801 30.5601 28.5801L1.29004 29.5801L0 13L16.26 0L42.1001 1.45996Z" transform="translate(912.867 53.5554)" fill="#3D000D"/>
<path d="M15.14 60.8398L7 62.6299L0 61.73C0 61.73 74.07 24.14 181.8 0L183.99 20L23.5599 72.2L15.14 60.8398Z" transform="translate(215.337 12.1755)" fill="#636363"/>
<path d="M22.67 6.26001L0 19.8C3.8 22.19 13.94 23.69 32.74 24C54.26 24.36 127.36 25.23 127.36 25.23C127.36 25.23 127.73 24.8699 127.36 22.9099C125.473 15.6091 124.02 8.20281 123.01 0.72998L52.5 0L22.67 6.26001Z" transform="translate(8.9668 195.825)" fill="#C92505"/>
<path d="M966.74 126.435C964.32 117.045 960.1 120.075 960.1 120.075L942.54 119.465L939.54 113.705L939.24 122.185L944.09 125.825L922.28 127.035L904.71 117.945L914.1 85.8249L940.46 86.125L943.46 80.0649L915.59 80.365L921.04 64.0049C921.04 64.0049 950.13 55.215 953.16 56.125C956.19 57.035 958.31 54.005 957.1 53.125C955.89 52.245 707.45 9.79501 625.34 4.64501C543.23 -0.504993 439.62 -5.35496 388.11 13.435L389.93 17.0749C389.93 17.0749 260.07 49.3249 223.29 72.8249C223.29 72.8249 141.79 69.1849 48.78 124.335C48.78 124.335 20.3 133.125 0 159.175C0 159.175 13.8899 183.955 22.5499 188.685C22.5499 188.685 4.66998 211.015 6.97998 214.035C7.33233 214.47 7.75893 214.839 8.23999 215.125L30.9099 201.585L60.76 195.325L131.27 196.055C126.35 159.925 127.61 92.6549 207.27 95.2449C309.68 98.5749 276.96 218.555 276.96 218.555L712.04 211.885L698.71 170.075C698.71 170.075 698.33 80.0749 779.23 77.0749C860.13 74.0749 867.62 141.305 867.62 141.305V179.785L891.18 164.335C891.18 164.335 918.56 169.785 927.04 167.665C935.52 165.545 969.16 135.825 966.74 126.435Z" transform="translate(0.737305 0.520508)" fill="#D52A00"/>
<path d="M0 24.1401C0 24.1401 38.09 6.21 107 0C107 0 29.5299 15.23 29.4199 19C29.3099 22.77 54.73 61.4202 54.73 61.4202C54.73 61.4202 0.58 45.9301 0 24.1401Z" transform="translate(6.75684 135.245)" fill="#BC2304"/>
<path d="M282.087 30.7811L306.397 34.0011C306.397 34.0011 245.957 6.05102 233.687 4.69102C221.417 3.33102 64.847 -8.98886 10.757 12.8211C-43.333 34.6311 124.157 28.211 124.157 28.211L282.087 30.7811Z" transform="translate(376.5 10.6145)" fill="#7F0619"/>
<path d="M336.3 6.80728C336.3 6.80728 223.89 -10.1927 145.12 9.53727C66.35 29.2673 0 63.4674 0 63.4674C2.77333 64.1341 5.48 64.764 8.12 65.3573C22.84 59.0573 94.05 28.7073 103.01 26.8073C113.01 24.6873 198.45 -1.06268 289.95 5.59732C289.95 5.59732 335.09 7.41745 340.85 23.4775C342.547 28.0327 342.482 33.0569 340.67 37.5673L359.94 34.6874L336.3 6.80728Z" transform="translate(244.907 13.198)" fill="#484949"/>
<path d="M27.9199 15C25.0199 6.9 12.1 2.43 0 0L2.26001 32.9199L27.73 29.1099C29.5506 24.5948 29.6183 19.5625 27.9199 15V15Z" transform="translate(557.867 21.6655)" fill="#636363"/>
<path d="M281.83 1.09983C190.33 -5.57017 104.89 20.1898 94.89 22.3098C85.89 24.2098 14.72 54.5598 0 60.8598C72.17 77.1398 96.8701 68.8599 109.43 66.6999C117.59 65.2799 210.62 51.3098 279 41.0798L283.88 1.21995C282.57 1.12995 281.83 1.09983 281.83 1.09983Z" transform="translate(253.057 17.6956)" fill="#636363"/>
<path d="M4.88 0L0 39.8599L28.0701 35.6599L25.8101 2.73999C18.8988 1.38211 11.9079 0.466924 4.88 0Z" transform="translate(532.057 18.9055)" fill="#484949"/>
<path d="M86.35 25.45L24.5399 0L9.08997 1.33008L0 7.28003L19.14 31.6499C19.14 31.6499 57.89 23.03 86.35 25.45Z" transform="translate(584.857 16.3655)" fill="#484949"/>
<path d="M5.75 0L29.38 19.1902L19.6899 26.9702L0 4.43018L5.75 0Z" transform="translate(588.518 18.9053)" fill="#050505"/>
<path d="M69.64 0C69.64 0 34.83 8.20009 21 17.3401C7.17 26.4801 0 35.8601 0 35.8601C0 35.8601 9.60994 35.63 12.3099 33.52C15.0099 31.41 46.35 9.02 69.64 0Z" transform="translate(34.8574 102.545)" fill="#221411"/>
<path d="M15 0.206113L0 7.35601C0 7.35601 5.85991 10.516 6.90991 13.356C7.95991 16.196 10.9099 21.086 10.3099 24.136C9.70994 27.186 6.55994 44.136 6.55994 44.136L25.08 46.596L39.5 36.596C39.5 36.596 19.93 -3.19389 15 0.206113Z" transform="translate(21.9873 159.179)" fill="#221411"/>
<path d="M30.178 0C30.178 0 -0.571897 2.23012 0.00810293 7.62012C0.588103 13.0101 28.328 7.15015 28.328 7.15015L30.178 0Z" transform="translate(104.479 141.215)" fill="#FDD8C5"/>
<path d="M453.72 0C453.72 0 251.72 23.2101 198.17 31.6301C144.62 40.0501 0 63.1902 0 63.1902C0 63.1902 406.47 11.59 453.72 0Z" transform="translate(273.297 51.4954)" fill="#BC2304"/>
<path d="M276.76 0C276.76 0 341.85 0.640118 367.89 12.6201C367.89 12.6201 329.8 79.0501 322.33 84.1301C314.86 89.2101 251.92 105.6 242.89 107.05C233.86 108.5 0 120.05 0 120.05L237.71 104.14C237.71 104.14 278.59 98.3501 285.64 92.5701C292.69 86.7901 338.01 47.25 326.91 32.3C315.81 17.35 276.76 0 276.76 0Z" transform="translate(286.807 71.7654)" fill="#BC2304"/>
<path d="M46.4401 0L55 10C55 10 26.35 78.17 0 88.71C0 88.71 23.55 85.8299 30 80.9299C36.45 76.0299 79.8201 9.63002 79.8201 8.52002C79.8201 7.41002 57.1401 0.5 46.4401 0Z" transform="translate(574.897 76.9355)" fill="#121117"/>
<path d="M17.86 135.69C15.8 135.69 14.86 135.69 14.86 135.69H13.86L14 134.69C15.91 121.3 0.310024 56.18 0.150024 55.52L0 54.9102L32.41 32.9102L33.41 34.4199L2.04004 55.6699C3.70004 62.5999 17.04 118.95 15.88 133.89C22.94 133.98 70.9301 133.89 243.23 119.76L277.42 23.54L277.54 23.4102C280.77 19.7502 283.38 15.9199 283.33 14.9299C282.25 13.6599 272.62 6.03994 266.7 1.43994L267.81 0C269.42 1.25 283.62 12.2701 284.81 13.8901C286 15.5101 282.41 20.59 279 24.47L244.53 121.47H243.95C82.7701 134.7 30.01 135.69 17.86 135.69Z" transform="translate(285.787 54.5454)" fill="#0F0503"/>
<path d="M0 0L24.39 17.0898L201.46 14.7898L26.6901 13.8298L0 0Z" transform="translate(309.228 196.875)" fill="#0F0503"/>
<path d="M70.9601 141.92C110.15 141.92 141.92 110.15 141.92 70.96C141.92 31.7698 110.15 0 70.9601 0C31.77 0 0 31.7698 0 70.96C0 110.15 31.77 141.92 70.9601 141.92Z" transform="translate(137.067 102.505)" fill="#27262C"/>
<path d="M53.6 107.2C83.2024 107.2 107.2 83.2023 107.2 53.5999C107.2 23.9974 83.2024 0 53.6 0C23.9975 0 0 23.9974 0 53.5999C0 83.2023 23.9975 107.2 53.6 107.2Z" transform="translate(154.598 119.865)" fill="#C3BFBE"/>
<path d="M0.484493 7.21997L12.8845 21.3201C12.8845 21.3201 15.0245 24.7 17.9545 24.7C19.8864 24.5802 21.7014 23.7336 23.0344 22.3301L36.0344 7.21997C36.0344 7.21997 37.8344 5.08011 36.0344 3.61011C34.2344 2.14011 27.9045 0 19.1145 0C10.3245 0 -2.67551 2.36997 0.484493 7.21997Z" transform="translate(189.112 130.315)" fill="#27262C"/>
<path d="M0.484187 17.48L12.8842 3.37988C12.8842 3.37988 15.0342 0 17.9642 0C19.8959 0.12075 21.7105 0.967216 23.0441 2.36987L36.0441 17.48C36.0441 17.48 37.8541 19.6198 36.0441 21.0898C34.2341 22.5598 27.9142 24.7 19.1242 24.7C10.3342 24.7 -2.67581 22.32 0.484187 17.48Z" transform="translate(189.113 191.936)" fill="#27262C"/>
<path d="M17.48 0.484489L3.39001 12.8846C3.39001 12.8846 0 15.0245 0 17.9545C0.11879 19.8867 0.965697 21.7021 2.37 23.0345L17.48 36.0345C17.48 36.0345 19.62 37.8445 21.09 36.0345C22.56 34.2245 24.7 27.9046 24.7 19.1146C24.7 10.3246 22.32 -2.67551 17.48 0.484489Z" transform="translate(227.098 155.071)" fill="#27262C"/>
<path d="M7.21997 0.484796L21.3199 12.8849C21.3199 12.8849 24.7 15.0248 24.7 17.9548C24.5787 19.8835 23.732 21.6948 22.33 23.0248L7.21997 36.0248C7.21997 36.0248 5.06999 37.8348 3.60999 36.0248C2.14999 34.2148 0 27.8949 0 19.1049C0 10.3149 2.35997 -2.6752 7.21997 0.484796Z" transform="translate(165.487 155.071)" fill="#27262C"/>
<path d="M72.1 144.2C111.92 144.2 144.2 111.92 144.2 72.1001C144.2 32.2804 111.92 0 72.1 0C32.2802 0 0 32.2804 0 72.1001C0 111.92 32.2802 144.2 72.1 144.2Z" transform="translate(714.018 88.4153)" fill="#27262C"/>
<path d="M54.4601 108.92C84.5375 108.92 108.92 84.5374 108.92 54.46C108.92 24.3825 84.5375 0 54.4601 0C24.3827 0 0 24.3825 0 54.46C0 84.5374 24.3827 108.92 54.4601 108.92Z" transform="translate(731.827 106.055)" fill="#C3BFBE"/>
<path d="M0.482596 7.33984L13.0826 21.6599C13.0826 21.6599 15.2626 25.0999 18.2426 25.0999C20.2054 24.9775 22.0489 24.1166 23.4025 22.6899L36.5826 7.33984C36.5826 7.33984 38.4126 5.15992 36.5826 3.66992C34.7526 2.17992 28.3225 0 19.3925 0C10.4625 0 -2.6874 2.41984 0.482596 7.33984Z" transform="translate(766.895 116.666)" fill="#27262C"/>
<path d="M0.482898 17.76L13.0829 3.43994C13.0829 3.43994 15.2629 0 18.2429 0C20.2054 0.123283 22.0486 0.984358 23.4028 2.41016L36.5729 17.77C36.5729 17.77 38.4129 19.9502 36.5729 21.4302C34.7329 22.9102 28.3128 25.1001 19.3828 25.1001C10.4528 25.1001 -2.6871 22.68 0.482898 17.76Z" transform="translate(766.895 179.275)" fill="#27262C"/>
<path d="M17.76 0.495463L3.44006 13.0956C3.44006 13.0956 0 15.2755 0 18.2555C0.122304 20.2182 0.983416 22.0618 2.41003 23.4154L17.76 36.5956C17.76 36.5956 19.94 38.4256 21.42 36.5956C22.9 34.7656 25.09 28.3256 25.09 19.3956C25.09 10.4656 22.76 -2.72454 17.76 0.495463Z" transform="translate(805.447 141.81)" fill="#27262C"/>
<path d="M7.32996 0.495162L21.6499 13.0953C21.6499 13.0953 25.09 15.2752 25.09 18.2552C24.9677 20.2179 24.1065 22.0615 22.6799 23.4151L7.32996 36.5953C7.32996 36.5953 5.14991 38.4253 3.65991 36.5953C2.16991 34.7653 0 28.3351 0 19.4051C0 10.4751 2.40996 -2.72484 7.32996 0.495162Z" transform="translate(742.877 141.81)" fill="#27262C"/>
<path d="M35.83 0L23.8199 4.30005L0 42.99L15.8099 79.5898L34.11 81.1099L20.01 75.97L9.32996 44.3699L25.73 6.20996L35.83 0Z" transform="translate(671.887 121.315)" fill="#030400"/>
<path d="M0 10L30.05 0C30.05 0 33.26 3.77 31.97 5C30.68 6.23 4.19006 15.3601 4.19006 15.3601C4.19006 15.3601 1.14 10.72 0 10Z" transform="translate(843.807 81.8455)" fill="#FFD5BE"/>
</svg>
