<svg width="1075" height="443" viewBox="0 0 1075 443" fill="none" xmlns="http://www.w3.org/2000/svg">
<path d="M1.78598 151.76C1.78598 151.76 26.9159 170.76 28.4659 169.69C30.0159 168.62 27.2859 162 28.4659 160.83C29.6459 159.66 45.9859 155.64 45.9859 155.64L213.146 165.64C213.146 165.64 237.446 167.87 242.016 165.83C246.586 163.79 723.166 150.04 723.166 150.04L728.556 155.86C728.556 155.86 742.476 151.47 751.016 162.45C759.556 173.43 955.636 150.35 959.786 155.86C963.936 161.37 948.786 1.69 948.786 1.69L548.976 23L86.8458 0C86.8458 0 -14.574 75.5 1.78598 151.76Z" transform="translate(51.7812 211.485)" fill="#010101"/>
<path d="M0 22.7356C0 22.7356 19.7201 6.7356 43.6401 4.4856C67.5601 2.2356 378.74 -4.63437 450.98 4.97563C523.22 14.5856 243.62 87.8356 243.62 87.8356L0 22.7356Z" transform="translate(468.587)" fill="#C9CDD6"/>
<path d="M0 120.31C0 120.31 173.34 2.19987 186.16 0.229869C198.98 -1.74013 205.39 9.59986 205.39 9.59986L9.61987 136.09L0 120.31Z" transform="translate(260.478 28.1758)" fill="#9599A5"/>
<path d="M0 140.363C0 140.363 99.53 61.6526 162.95 21.6526L147.95 24.9026C147.95 24.9026 172.95 -5.34739 368.14 0.832614C563.33 7.01261 646.22 2.83262 695.99 8.31262C695.99 8.31262 703.75 6.85264 704.45 24.5726C704.45 24.5726 684.61 34.0026 685.26 39.2126C685.91 44.4226 593.87 129.633 593.87 129.633L206.18 151.423L0 140.363Z" transform="translate(288.137 8.08301)" fill="#2C3033"/>
<path d="M7.32946 49.85L9.8695 0C9.8695 0 23.2495 2.07998 25.0995 11.54C26.9495 21 37.5595 71.34 25.0995 77.08C12.6395 82.82 24.4095 98.31 24.4095 98.31L8.02917 118.16C8.02917 118.16 -9.56054 60.26 7.32946 49.85Z" transform="translate(1043.77 245.236)" fill="#222526"/>
<path d="M18.6572 0C18.6572 0 4.65712 1.81 2.34712 21.75C0.0371161 41.69 -2.65296 80.64 5.51704 102.84C13.687 125.04 20.467 107.19 20.467 107.19L18.6572 0Z" transform="translate(5.12012 253.156)" fill="#222526"/>
<path d="M2.80005 43.42C4.34645 43.42 5.6001 33.7001 5.6001 21.71C5.6001 9.71992 4.34645 0 2.80005 0C1.25365 0 0 9.71992 0 21.71C0 33.7001 1.25365 43.42 2.80005 43.42Z" transform="translate(3.04688 308.529) rotate(-3.59)" fill="#BABABA"/>
<path d="M0.015557 1.51556C0.015557 1.51556 7.47554 -1.89444 8.74554 1.51556C10.0155 4.92556 4.90558 8.67557 2.28558 9.02557C-0.334423 9.37557 0.015557 1.51556 0.015557 1.51556Z" transform="translate(1021.19 116.09)" fill="#252527"/>
<path d="M26.396 0.436151C26.396 0.436151 9.04607 -4.90384 3.93607 21.7862C-1.17393 48.4762 0.1558 117.196 0.1558 117.196L35.9659 170.126L71.5059 180.856C71.5059 180.856 67.7158 175.016 66.1558 158.786C66.1558 158.786 64.1558 156.116 64.1558 150.786C64.1558 145.456 55.9261 102.076 59.7061 100.966C59.7561 100.966 48.856 46.4762 26.396 0.436151Z" transform="translate(966.701 28.2793)" fill="#6C6A6B"/>
<path d="M28.6753 7.68273C28.6753 7.68273 13.3754 15.6027 11.7754 18.8027C10.1754 22.0027 -2.45465 42.6227 0.425347 63.4427C3.30535 84.2627 30.6253 72.8327 30.6253 72.8327L65.8453 52.6727L118.175 0.90273C118.175 0.90273 43.0853 -3.64727 28.6753 7.68273Z" transform="translate(35.0322 171.493)" fill="#B6B5BD"/>
<path d="M9.82299 0L19.7229 20.71C18.192 22.7173 17.1121 25.0311 16.5564 27.4937C16.0007 29.9563 15.9826 32.5097 16.5032 34.98C18.3432 43.26 28.9331 93.2 31.9231 98.04C34.9131 102.88 42.7331 110.93 42.9231 114.38C43.1131 117.83 45.6833 141.77 45.6833 141.77C45.6833 141.77 13.683 118.53 9.78295 107.94C5.88295 97.35 -2.21701 18.65 0.572991 11.28C2.4422 6.66963 5.66797 2.73593 9.82299 0V0Z" transform="translate(979.264 41.5356)" fill="#A93D3D"/>
<path d="M1.61094 0C1.61094 0 -1.09916 2.53 0.510845 9C2.12084 15.47 10.6607 60.07 13.6607 63.29C16.6607 66.51 17.8008 69.29 18.4908 67.66C19.1808 66.03 6.57094 8.38 1.61094 0Z" transform="translate(1000.55 73.5254)" fill="#E1E1EA"/>
<path d="M2.84676 29.9765C2.84676 29.9765 -1.553 1.20653 0.586997 0.0665283C2.727 -1.07347 7.9568 12.5765 9.8868 30.3165C11.8168 48.0565 11.3668 58.4065 8.8868 58.8565C6.4068 59.3065 4.13676 39.6365 2.84676 29.9765Z" transform="translate(1024.36 128.449)" fill="#861C1E"/>
<path d="M161.631 176.01C280.771 176.01 297.541 304.22 297.541 304.22L738.331 299.69C738.331 299.69 743.771 169.53 887.331 169.53C987.171 169.53 1014.64 280.66 1014.64 280.66L1036.78 279.48C1036.52 279.455 1036.27 279.455 1036.01 279.48C1035.25 277.95 1037.16 258.1 1038.3 254.66C1039.44 251.22 1040.59 233.66 1040.59 233.66C1040.59 233.66 1041.74 226.79 1040.59 203.49C1039.44 180.19 1028.37 174.09 1027.22 172.56C1026.07 171.03 1021.11 162.3 1021.11 162.3C1021.11 162.3 997.051 143.16 979.491 128.65C961.931 114.14 960.401 103.45 958.491 87.41C956.581 71.37 956.091 3 956.091 3L893.191 0C898.531 6.49 866.841 56.9 859.591 69.12C852.341 81.34 832.941 80.55 832.941 80.55L588.941 88.95L310.941 99.85C310.941 99.85 256.721 103.46 243.731 101.93C230.741 100.4 159.731 111.1 105.501 118.73C51.2712 126.36 35.571 142.46 35.571 142.46C35.571 142.46 24.4912 152.77 39.0112 141.31C53.5312 129.85 107.011 130.24 113.471 130.62C115.41 130.76 117.298 131.309 119.009 132.231C120.721 133.153 122.218 134.427 123.401 135.97C115.401 138.26 71.8512 172.25 60.0112 179.51C48.1712 186.77 37.4712 190.21 28.3112 190.21C19.1512 190.21 19.9011 183.91 19.9011 183.91C9.97106 198.21 6.9011 192.02 1.95111 205C-2.99889 217.98 3.03118 294.59 3.03118 294.59L38.4311 295.89C38.4311 295.89 42.491 176.01 161.631 176.01Z" transform="translate(15.2656 43.6255)" fill="#6E1213"/>
<path d="M5.03027 41.78C7.80827 41.78 10.0601 32.4272 10.0601 20.89C10.0601 9.35276 7.80827 0 5.03027 0C2.25228 0 0 9.35276 0 20.89C0 32.4272 2.25228 41.78 5.03027 41.78Z" transform="translate(1060.8 302.956)" fill="#C4C3C8"/>
<path d="M5.00148 99.19L203.432 92L227.662 0H94.9317C94.9317 0 6.35174 61.87 1.51174 70.9C-3.32826 79.93 5.00148 99.19 5.00148 99.19Z" transform="translate(379.146 37.0854)" fill="#C9CDD6"/>
<path d="M12.9004 0L0 88.52L192.27 82.62L197.43 32.39L183.56 3.56L12.9004 0Z" transform="translate(628.757 37.9756)" fill="#C9CDD6"/>
<path d="M0 0L32.8799 74.55C32.8799 74.55 34.4899 77.87 41.8799 69.15C49.2699 60.43 74.1401 15.92 74.1401 15.92C74.1401 15.92 77.6901 10.76 74.1401 6.23999C70.5901 1.71999 58.98 2.37997 58.98 2.37997L0 0Z" transform="translate(826.207 41.5356)" fill="#C9CDD6"/>
<path d="M0 4.13C2.16152 9.02488 5.75964 13.1474 10.3171 15.9512C14.8746 18.755 20.1763 20.1077 25.52 19.83C44.73 19.23 57.5701 17.73 57.5701 17.73C57.5701 17.73 60.8701 2.04 62.1401 0L0 4.13Z" transform="translate(247.087 167.355)" fill="#80676A"/>
<path d="M11.341 319.43C-6.91902 264.36 2.28097 161.77 2.58097 158.51C2.48097 156.84 1.72078 135.57 22.6408 113.17C43.7708 90.55 167.751 1.06998 169.001 0.169983L169.241 0H169.541L484.161 3.87C488.161 3.87 582.081 3.32 598.161 6.87C603.261 8 606.831 10.38 608.761 13.92C611.971 19.8 609.501 26.69 609.401 26.98L607.701 26.36C607.701 26.3 609.991 19.93 607.171 14.78C605.491 11.72 602.331 9.64998 597.771 8.63998C581.841 5.09998 485.091 5.63998 484.111 5.63998L169.781 1.78C163.581 6.31 44.5011 92.43 23.9411 114.43C3.17107 136.66 4.34098 158.26 4.34098 158.43V158.58C4.24098 159.58 -5.33911 263.51 13.0009 318.83L11.341 319.43Z" transform="translate(301.866 28.6558)" fill="#161616"/>
<path d="M170.99 0H0V1.81H170.99V0Z" transform="translate(138.603 178.863) rotate(-4.14)" fill="#161616"/>
<path d="M41.7024 0H0.0222027C0.0222027 0 -0.877788 7.08001 8.78221 9.85001C8.78221 9.85001 39.7824 9.84999 41.7024 8.04999C43.6224 6.24999 41.7024 0 41.7024 0Z" transform="translate(259.325 174.335)" fill="white"/>
<path d="M0 3.66L4.17969 0H9.75C9.75 0 13.0799 1.49001 13.3999 18.57C13.7199 35.65 11.4797 39.95 6.69971 40.79C1.91971 41.63 0 3.66 0 3.66Z" transform="translate(381.887 95.0557)" fill="#1C181A"/>
<path d="M0 18.6032C0 18.6032 4.11 31.7532 12 32.7432C19.89 33.7332 36.3304 31.9232 38.6304 30.7432C40.9304 29.5632 40.9204 6.22323 39.6304 2.12323C38.3404 -1.97676 17.2803 1.12323 17.2803 1.12323L8.57031 6.71323L6.57031 15.0932C6.57031 15.0932 0.14 15.8132 0 18.6032Z" transform="translate(351.067 104.712)" fill="#2A2426"/>
<path d="M0.355531 11.9154C0.355531 11.9154 1.02559 13.4354 3.16559 11.9154C5.30559 10.3954 11.1656 6.27533 32.7256 7.26533L32.0157 0.565345C32.0157 0.565345 -3.93447 -3.83465 0.355531 11.9154Z" transform="translate(358.752 107.34)" fill="#E3E8EB"/>
<path d="M0 25.7288C0 25.7288 0.820059 3.20879 19.5601 1.23879C38.3001 -0.731207 30.4102 0.238793 30.4102 0.238793C30.4102 0.238793 33.1999 -2.23121 34.3599 14.2388C34.3599 14.2388 12.4999 14.2388 8.35986 15.8788C4.21986 17.5188 2.43986 19.4988 2.60986 23.6088C2.77986 27.7188 0 25.7288 0 25.7288Z" transform="translate(356.497 94.7969)" fill="#DA2C2E"/>
<path d="M3.70976 315.13C2.27976 309.89 1.23985 279.13 0.559854 258.83C0.359854 253.02 0.189854 248 0.0598541 244.83C-0.500146 231.97 2.98956 146.74 5.50956 132.64C7.83956 119.64 16.5097 98.28 17.1497 96.73L35.1497 0L36.9295 0.329987L18.9295 97.24V97.33C18.8395 97.55 9.73991 119.67 7.36991 132.96C5.06991 145.86 1.3095 230.04 1.9495 244.76C2.0895 247.9 2.2495 252.93 2.4495 258.76C3.0895 277.76 4.15983 309.6 5.53983 314.64L3.70976 315.13Z" transform="translate(588.787 31.4355)" fill="#161616"/>
<path d="M312.486 128.21C312.486 128.21 295.725 0 176.575 0C57.4255 0 53.3755 119.85 53.3755 119.85L17.9756 118.55C9.49559 117.94 11.1856 122.98 11.1856 124.55C11.1856 126.12 8.89549 128.75 7.36549 130.66C5.83549 132.57 2.78548 128.37 0.105477 142.88C-2.57452 157.39 46.7056 158.45 46.7056 158.45C47.8456 160.74 52.8154 161.5 52.8154 161.5C74.2054 164.94 79.9255 161.5 79.9255 161.5C50.5255 119.88 95.1955 12.19 183.406 25.18C296.026 41.76 287.115 157.62 287.115 157.62H785.595C782.985 148.95 782.466 136.93 784.336 123.62H753.276L312.486 128.21Z" transform="translate(0.322266 219.636)" fill="#2C3033"/>
<path d="M319.06 139.01C316.39 136.34 315.24 122.59 315.24 122.59C315.24 122.59 312.19 134.05 309.13 133.66C306.07 133.27 303.4 120.66 302.77 114.95C302.3 110.72 299.77 110.03 298.45 109.95L276.31 111.13C276.31 111.13 248.84 0 149 0C5.39 0 0 130.16 0 130.16H31.0601C37.3901 85.16 71.2597 25.63 144.97 33C269.22 45.42 250.75 160.76 250.75 160.76C250.75 160.76 289.7 157.32 306.12 153.89C322.54 150.46 321.73 141.69 319.06 139.01Z" transform="translate(753.637 213.136)" fill="#2C3033"/>
<path d="M1.81006 311.1L0 310.97C4.77 247.05 47.7404 219.45 73.4204 202.97C77.1804 200.56 80.4204 198.47 83.1304 196.54C101.06 183.73 101.25 146.63 101.36 124.46C101.36 120.88 101.36 117.79 101.47 115.11C102.05 95.96 86.0501 85.9 85.8901 85.81L85.6504 85.66L85.54 85.4L47.7603 0.740021L49.4102 0L87.1001 84.39C89.1901 85.78 103.87 96.25 103.3 115.14C103.22 117.8 103.2 120.88 103.18 124.45C103.06 146.97 102.88 184.65 84.1802 198C81.4302 200 78.1801 202.06 74.3901 204.48C48.9701 220.79 6.51006 248.09 1.81006 311.1Z" transform="translate(768.236 33.6958)" fill="#161616"/>
<path d="M0 0C0.18586 2.14333 1.15396 4.14332 2.71973 5.61871C4.28549 7.09411 6.33941 7.94173 8.48999 8H474.41C476.56 7.94173 478.615 7.09411 480.18 5.61871C481.746 4.14332 482.714 2.14333 482.9 0H0Z" transform="translate(293.797 363.085)" fill="#C4C3C8"/>
<path d="M34.3805 13.6619C34.8705 21.7619 29.4805 28.4219 22.3805 28.8519L13.7907 29.3719C6.6707 29.8019 0.520934 23.8419 0.0309335 15.7319C-0.459066 7.63186 4.93093 0.971886 12.0309 0.541886L20.6208 0.0218661C27.7408 -0.408134 33.8905 5.55188 34.3805 13.6619Z" transform="translate(530.377 168.184)" fill="#4D1216"/>
<path d="M72.4585 4.66001C72.5323 5.89582 72.1124 7.11036 71.291 8.03669C70.4697 8.96303 69.3144 9.52534 68.0786 9.60002L4.68849 11.6C4.07522 11.6013 3.4675 11.4818 2.90041 11.2484C2.33331 11.0149 1.8179 10.672 1.38332 10.2393C0.948739 9.80655 0.603595 9.29248 0.367693 8.72639C0.131791 8.1603 0.00962967 7.55329 0.00831785 6.94001V6.94001C-0.0655128 5.70421 0.354475 4.48964 1.1758 3.5633C1.99712 2.63697 3.15294 2.07469 4.38869 2.00001L67.7783 1.07304e-05C68.3916 -0.0013039 68.9993 0.118189 69.5664 0.351665C70.1335 0.58514 70.6489 0.928038 71.0835 1.36076C71.5181 1.79348 71.8632 2.30755 72.0991 2.87364C72.335 3.43973 72.4572 4.04674 72.4585 4.66001V4.66001Z" transform="translate(513.059 176.525)" fill="#C4C3C8"/>
<path d="M34.381 13.6619C34.871 21.7619 29.481 28.4219 22.381 28.8519L13.7912 29.3719C6.67119 29.8019 0.520934 23.8419 0.0309335 15.7319C-0.459066 7.63186 4.93093 0.971855 12.0309 0.541855L20.6208 0.0218661C27.7408 -0.408134 33.891 5.55188 34.381 13.6619Z" transform="translate(797.656 157.313)" fill="#4D1216"/>
<path d="M72.458 4.66C72.5292 5.89516 72.1084 7.10821 71.2876 8.03394C70.4668 8.95966 69.3129 9.52275 68.0781 9.60001L4.68801 11.6C4.07473 11.6013 3.4675 11.4818 2.90041 11.2484C2.33331 11.0149 1.81741 10.672 1.38283 10.2393C0.948251 9.80654 0.603595 9.29247 0.367693 8.72638C0.131791 8.16029 0.00962967 7.55328 0.00831785 6.94V6.94C-0.0655128 5.7042 0.354475 4.48963 1.1758 3.56329C1.99712 2.63696 3.15245 2.07467 4.3882 2L67.7783 1.95428e-10C69.0161 -1.13023e-05 70.2035 0.490298 71.0806 1.36365C71.9577 2.237 72.4527 3.42226 72.458 4.66V4.66Z" transform="translate(780.339 165.656)" fill="#C4C3C8"/>
<path d="M92.4402 184.88C143.493 184.88 184.88 143.493 184.88 92.44C184.88 41.3868 143.493 0 92.4402 0C41.387 0 0 41.3868 0 92.44C0 143.493 41.387 184.88 92.4402 184.88Z" transform="translate(90.3867 257.266)" fill="#27262C"/>
<path d="M69.8301 139.66C108.396 139.66 139.66 108.396 139.66 69.83C139.66 31.264 108.396 0 69.8301 0C31.264 0 0 31.264 0 69.83C0 108.396 31.264 139.66 69.8301 139.66Z" transform="translate(113.217 279.875)" fill="#C3BFBE"/>
<path d="M0.6277 9.39996L16.7876 27.77C16.7876 27.77 19.5777 32.18 23.3977 32.18C27.2177 32.18 30.0076 29.09 30.0076 29.09L46.9075 9.39996C46.9075 9.39996 49.2575 6.60995 46.9075 4.69995C44.5575 2.78995 36.3075 0 24.9075 0C13.5075 0 -3.4823 3.08996 0.6277 9.39996Z" transform="translate(158.18 293.486)" fill="#27262C"/>
<path d="M0.6277 22.78L16.7876 4.41003C16.7876 4.41003 19.5877 0 23.3977 0C27.2077 0 30.0176 3.08002 30.0176 3.08002L46.9075 22.77C46.9075 22.77 49.2575 25.56 46.9075 27.47C44.5575 29.38 36.3075 32.17 24.9075 32.17C13.5075 32.17 -3.4823 29.1 0.6277 22.78Z" transform="translate(158.18 373.746)" fill="#27262C"/>
<path d="M22.77 0.630206L4.41016 16.7902C4.41016 16.7902 0 19.5802 0 23.4002C0 27.2202 3.09009 30.0101 3.09009 30.0101L22.78 46.9102C22.78 46.9102 25.57 49.2602 27.48 46.9102C29.39 44.5602 32.1899 36.3102 32.1899 24.9102C32.1899 13.5102 29.09 -3.48979 22.77 0.630206Z" transform="translate(207.667 325.735)" fill="#27262C"/>
<path d="M9.37012 0.627391L27.78 16.7974C27.78 16.7974 32.1899 19.5874 32.1899 23.4074C32.1899 27.2274 29.1001 30.0173 29.1001 30.0173L9.40991 46.9174C9.40991 46.9174 6.61995 49.2674 4.69995 46.9174C2.77995 44.5674 0 36.3174 0 24.9174C0 13.5174 3.05012 -3.48261 9.37012 0.627391Z" transform="translate(127.428 325.728)" fill="#27262C"/>
<path d="M92.4399 184.88C143.493 184.88 184.88 143.493 184.88 92.44C184.88 41.3868 143.493 0 92.4399 0C41.3867 0 0 41.3868 0 92.44C0 143.493 41.3867 184.88 92.4399 184.88Z" transform="translate(797.197 257.266)" fill="#27262C"/>
<path d="M69.8301 139.66C108.396 139.66 139.66 108.396 139.66 69.83C139.66 31.264 108.396 0 69.8301 0C31.264 0 0 31.264 0 69.83C0 108.396 31.264 139.66 69.8301 139.66Z" transform="translate(820.037 279.875)" fill="#C3BFBE"/>
<path d="M0.63049 9.39996L16.7906 27.77C16.7906 27.77 19.5805 32.18 23.4005 32.18C27.2205 32.18 30.0206 29.09 30.0206 29.09L46.9108 9.39996C46.9108 9.39996 49.2608 6.60995 46.9108 4.69995C44.5608 2.78995 36.3208 0 24.9108 0C13.5008 0 -3.48951 3.08996 0.63049 9.39996Z" transform="translate(864.996 293.486)" fill="#27262C"/>
<path d="M0.630197 22.78L16.7904 4.41003C16.7904 4.41003 19.5902 0 23.4002 0C27.2102 0 30.0203 3.08002 30.0203 3.08002L46.9105 22.77C46.9105 22.77 49.2705 25.56 46.9105 27.47C44.5505 29.38 36.3105 32.17 24.9105 32.17C13.5105 32.17 -3.4898 29.1 0.630197 22.78Z" transform="translate(864.996 373.746)" fill="#27262C"/>
<path d="M22.77 0.630206L4.41016 16.7902C4.41016 16.7902 0 19.5802 0 23.4002C0 27.2202 3.08984 30.0101 3.08984 30.0101L22.7798 46.9102C22.7798 46.9102 25.57 49.2602 27.48 46.9102C29.39 44.5602 32.1899 36.3102 32.1899 24.9102C32.1899 13.5102 29.13 -3.48979 22.77 0.630206Z" transform="translate(914.438 325.735)" fill="#27262C"/>
<path d="M9.41016 0.627695L27.7798 16.7877C27.7798 16.7877 32.1899 19.5777 32.1899 23.3977C32.1899 27.2177 29.1001 30.0077 29.1001 30.0077L9.41016 46.9077C9.41016 46.9077 6.6202 49.2577 4.7002 46.9077C2.7802 44.5577 0 36.3077 0 24.9077C0 13.5077 3.09016 -3.48231 9.41016 0.627695Z" transform="translate(834.207 325.728)" fill="#27262C"/>
</svg>
