<svg width="1203" height="482" viewBox="0 0 1203 482" fill="none" xmlns="http://www.w3.org/2000/svg">
<path d="M7.58008 154.22L22.8401 168.04C22.8401 168.04 28.7801 162.24 40.3901 161.13C52.0001 160.02 213.11 173.63 213.11 173.63C213.11 173.63 234.53 170.03 243.01 168.04C251.49 166.05 794.3 161.36 794.3 161.36L800.63 169.75C809.292 164.405 819.007 160.994 829.11 159.75C845.85 157.75 998.49 149.26 998.49 149.26C998.49 149.26 1007.24 156.64 1013.13 154.4C1019.02 152.16 1039.55 134.31 1039.55 134.31L1018.13 28.3101L880.89 8L709.18 0L204.18 16.51L14.6301 27.2201L0 106.89L7.58008 154.22Z" transform="translate(48.627 220.675)" fill="black"/>
<path d="M2.36054 149.361C2.36054 149.361 -0.969295 137.261 0.280705 136.481C1.53071 135.701 31.5207 124.951 35.0307 122.881C38.5407 120.811 167.811 -2.24871 191.601 0.0312937C215.391 2.31129 170.091 78.8312 170.091 78.8312L30.6906 162.591L2.36054 149.361Z" transform="translate(161.017 19.1143)" fill="#2D2D2B"/>
<path d="M52.6466 0.281805C52.6466 0.281805 71.7167 3.68184 71.9767 12.8218C72.2367 21.9618 83.4769 56.4518 25.7369 53.8218C-32.0031 51.1918 21.0166 -4.41819 52.6466 0.281805Z" transform="translate(1129.19 312.293)" fill="#2E2E2E"/>
<path d="M21.9494 0L12.0095 5.41992C12.0095 5.41992 -0.390527 33.5 0.00947342 44.88C0.409473 56.26 -0.100575 88.88 1.70942 92.01C3.51942 95.14 21.9296 94.73 21.9296 94.73L37.8496 92.25C37.8496 92.25 34.5694 5.99 21.9494 0Z" transform="translate(25.3975 210.875)" fill="#2D2D2B"/>
<path d="M1137.38 144.88C1139.47 138.08 1118.64 68.95 1118.64 68.95H1136.12C1129.99 49.72 1122.42 33.21 1113.07 22.67C1113.07 22.67 1110.19 -1.87998 1050.12 3.40002L870.366 0L456.366 4.53003C456.366 4.53003 333.986 0.370064 310.556 26.4401L167.766 160.52C167.766 160.52 139.766 164.61 134.876 155.39L16.2862 207.05C16.2862 207.05 11.8761 208.05 10.9861 216.05C10.9861 216.05 23.986 217.88 24.916 230.87C25.846 243.86 27.6262 300.78 24.0362 302.12C20.4462 303.46 1.64618 302.12 0.296177 298.54C0.296177 298.54 -0.803881 301.35 1.23612 303.23C3.27612 305.11 10.3662 307.05 14.3562 307.23C18.3462 307.41 61.8462 308.61 61.8462 308.61C61.8462 308.61 96.5561 262.67 157.196 272.12C217.836 281.57 237.286 314.62 246.356 345.41C255.426 376.2 255.046 389.04 267.696 390.18C280.346 391.32 822.846 390.18 822.846 390.18C822.846 390.18 830.216 379.41 828.516 373.18C826.816 366.95 829.086 253.04 936.186 260.41C1043.29 267.78 1035.33 374.88 1035.33 374.88L1139.33 366.38C1143.12 361.959 1145.23 356.337 1145.28 350.51V319.91C1145.28 319.91 1161.15 323.91 1161.15 309.71V233.78C1161.15 233.78 1159.5 192.14 1152.56 144.78L1137.38 144.88Z" transform="translate(26.4414 0.205322)" fill="#E5E5E3"/>
<path d="M0 69.4685C0 69.4685 44.4999 24.3684 54.6199 19.1184C64.7399 13.8684 80.0602 2.26839 105.18 2.64839C121.196 2.80527 137.205 1.93686 153.11 0.0484139H180.23C180.23 0.0484139 187.61 -0.951621 189.48 6.13838C191.35 13.2284 189.48 120.568 189.48 120.568C189.48 120.568 189.86 127.348 185.73 128.478C181.6 129.608 5.36987 132.248 5.36987 132.248L0 69.4685Z" transform="translate(292.768 24.0369)" fill="#2D2D2B"/>
<path d="M31.3 0C31.3 0 0 6.00001 0 16.89V72.7001C0 72.7001 4.06993 91.62 25.1799 92.53C46.2899 93.44 70.53 92.53 70.53 92.53C70.53 92.53 57.4701 25.24 87.1001 12.67C92.7501 10.27 31.3 0 31.3 0Z" transform="translate(0.957031 296.185)" fill="#393B3A"/>
<path d="M18.7397 75.9301H33.9097C30.1597 50.3901 24.91 23.2 17.48 0H0C0 0 20.8297 69.1001 18.7397 75.9301Z" transform="translate(1145.08 69.1553)" fill="#BA1F25"/>
<path d="M92.3198 184.64C143.307 184.64 184.64 143.307 184.64 92.3199C184.64 41.333 143.307 0 92.3198 0C41.3329 0 0 41.333 0 92.3199C0 143.307 41.3329 184.64 92.3198 184.64Z" transform="translate(81.3379 296.385)" fill="#27262C"/>
<path d="M7.17265e-07 69.73C-0.00197716 83.5237 4.08661 97.0082 11.7485 108.478C19.4105 119.948 30.3015 128.888 43.0447 134.168C55.7878 139.448 69.8107 140.831 83.3396 138.141C96.8685 135.451 109.296 128.81 119.05 119.057C128.804 109.304 135.448 96.8778 138.139 83.3492C140.831 69.8207 139.451 55.7979 134.172 43.054C128.894 30.3101 119.955 19.4176 108.487 11.754C97.0177 4.09046 83.5337 1.41803e-07 69.74 0C51.2455 -1.90129e-07 33.5084 7.34623 20.4299 20.4229C7.35143 33.4995 0.00265263 51.2355 7.17265e-07 69.73Z" transform="translate(104.137 318.985)" fill="#C3BFBE"/>
<path d="M0.627593 9.38L16.7677 27.72C16.7677 27.72 19.5576 32.12 23.3676 32.12C27.1776 32.12 29.9777 29.04 29.9777 29.04L46.8476 9.38C46.8476 9.38 49.1976 6.59006 46.8476 4.69006C44.4976 2.79006 36.2676 0 24.8476 0C13.4276 0 -3.47241 3.08 0.627593 9.38Z" transform="translate(149.039 332.575)" fill="#27262C"/>
<path d="M0.627593 22.78L16.7677 4.40002C16.7677 4.40002 19.5576 0 23.3676 0C27.1776 0 29.9777 3.08008 29.9777 3.08008L46.8476 22.74C46.8476 22.74 49.1976 25.5301 46.8476 27.4301C44.4976 29.3301 36.2676 32.13 24.8476 32.13C13.4276 32.13 -3.47241 29.09 0.627593 22.78Z" transform="translate(149.039 412.685)" fill="#27262C"/>
<path d="M22.74 0.630109L4.3999 16.77C4.3999 16.77 0 19.5601 0 23.3701C0 27.1801 3.08008 29.9701 3.08008 29.9701L22.74 46.8501C22.74 46.8501 25.5299 49.2001 27.4299 46.8501C29.3299 44.5001 32.1299 36.2701 32.1299 24.8501C32.1299 13.4301 29.04 -3.47989 22.74 0.630109Z" transform="translate(198.467 364.765)" fill="#27262C"/>
<path d="M9.3999 0.630109L27.74 16.77C27.74 16.77 32.1399 19.5601 32.1399 23.3701C32.1399 27.1801 29.0598 29.9701 29.0598 29.9701L9.3999 46.8501C9.3999 46.8501 6.60995 49.2001 4.69995 46.8501C2.78995 44.5001 0 36.2701 0 24.8501C0 13.4301 3.0799 -3.47989 9.3999 0.630109Z" transform="translate(118.297 364.765)" fill="#27262C"/>
<path d="M92.3203 184.64C143.307 184.64 184.64 143.307 184.64 92.3201C184.64 41.3331 143.307 0 92.3203 0C41.3334 0 0 41.3331 0 92.3201C0 143.307 41.3334 184.64 92.3203 184.64Z" transform="translate(867.877 290.725)" fill="#27262C"/>
<path d="M69.7397 139.48C108.256 139.48 139.48 108.256 139.48 69.74C139.48 31.2237 108.256 0 69.7397 0C31.2234 0 0 31.2237 0 69.74C0 108.256 31.2234 139.48 69.7397 139.48Z" transform="translate(890.678 313.305)" fill="#C3BFBE"/>
<path d="M0.627586 9.38L16.7677 27.7201C16.7677 27.7201 19.5578 32.12 23.3678 32.12C27.1778 32.12 29.9777 29.04 29.9777 29.04L46.8478 9.38C46.8478 9.38 49.1978 6.59006 46.8478 4.69006C44.4978 2.79006 36.2678 0 24.8478 0C13.4278 0 -3.47241 3.07 0.627586 9.38Z" transform="translate(935.58 326.915)" fill="#27262C"/>
<path d="M0.627586 22.74L16.7575 4.40002C16.7575 4.40002 19.5478 0 23.3678 0C27.1878 0 29.9777 3.08008 29.9777 3.08008L46.8478 22.74C46.8478 22.74 49.1978 25.5301 46.8478 27.4301C44.4978 29.3301 36.2678 32.13 24.8478 32.13C13.4278 32.13 -3.47241 29.03 0.627586 22.74Z" transform="translate(935.58 407.055)" fill="#27262C"/>
<path d="M22.7397 0.630415L4.3999 16.7704C4.3999 16.7704 0 19.5604 0 23.3704C0 27.1804 3.08008 29.9704 3.08008 29.9704L22.7397 46.8404C22.7397 46.8404 25.5302 49.1904 27.4302 46.8404C29.3302 44.4904 32.1299 36.2604 32.1299 24.8404C32.1299 13.4204 29.0497 -3.47958 22.7397 0.630415Z" transform="translate(984.997 359.105)" fill="#27262C"/>
<path d="M9.39014 0.630415L27.73 16.7704C27.73 16.7704 32.1304 19.5604 32.1304 23.3704C32.1304 27.1804 29.0503 29.9704 29.0503 29.9704L9.39014 46.8404C9.39014 46.8404 6.59994 49.1904 4.68994 46.8404C2.77994 44.4904 0 36.2604 0 24.8404C0 13.4204 3.11014 -3.47958 9.39014 0.630415Z" transform="translate(904.816 359.105)" fill="#27262C"/>
<path d="M254.613 375.5H46.5532C38.5532 375.5 36.7032 371.88 36.5532 371.5L36.4732 371.23C35.5532 365.77 31.6532 355.42 26.7232 342.33C17.8132 318.66 5.60316 286.24 1.96316 258.33C-3.61684 215.59 4.46324 92.9199 4.54324 91.6799L6.80325 91.83C6.72325 93.06 -1.34684 215.52 4.21316 258.03C7.82316 285.66 19.9733 317.94 28.8433 341.51C33.7633 354.57 37.6531 364.92 38.6731 370.64C38.9731 371.08 40.7233 373.25 46.5833 373.25H253.983C254.883 372.62 257.983 370.14 257.983 366.25C257.983 361.07 254.273 3.61 254.233 0H256.503C256.503 3.61 260.253 361.08 260.253 366.27C260.253 372.1 255.073 375.27 254.853 375.38L254.613 375.5Z" transform="translate(257.225 4.72534)" fill="#CCCCCC"/>
<path d="M14.96 0H14.51C6.49636 0 0 6.49636 0 14.51V56.89C0 64.9037 6.49636 71.4 14.51 71.4H14.96C22.9736 71.4 29.47 64.9037 29.47 56.89V14.51C29.47 6.49636 22.9736 0 14.96 0Z" transform="translate(285.997 90.0752)" fill="#D8D8D6"/>
<path d="M24 41.84C24 48.29 18.9998 53 12.5298 53H11.8799C5.42988 53 0 48.29 0 41.84V12.2C0 5.74995 5.42988 0 11.8799 0H12.5298C18.9798 0 24 5.74995 24 12.2V41.84Z" transform="translate(483.207 168.085)" fill="#D8D8D6"/>
<path d="M4.18018 0H3.81982C1.7101 0 0 1.71034 0 3.82007V34.1801C0 36.2898 1.7101 38 3.81982 38H4.18018C6.2899 38 8 36.2898 8 34.1801V3.82007C8 1.71034 6.2899 0 4.18018 0Z" transform="translate(494.207 173.085)" fill="white"/>
<path d="M581.78 133.71H22.29C10.62 133.71 0 123.09 0 111.42V20C0 9 10 0 22.29 0H553.45C565.09 0 569.99 7.52 574.54 20.5L602.94 111.84V112.01C602.94 123.76 593.25 133.71 581.78 133.71ZM22.29 2.23999C11.29 2.23999 2.29004 10.24 2.29004 20V111.42C2.29004 121.9 11.83 131.42 22.29 131.42H581.78C591.96 131.42 600.58 122.61 600.67 112.13L572.39 21.13C568.09 8.86 563.79 2.18994 553.45 2.18994L22.29 2.23999Z" transform="translate(543.268 40.2454)" fill="#CCCCCC"/>
<path d="M14.96 0H14.51C6.49636 0 0 6.49636 0 14.51V56.89C0 64.9037 6.49636 71.4 14.51 71.4H14.96C22.9736 71.4 29.47 64.9037 29.47 56.89V14.51C29.47 6.49636 22.9736 0 14.96 0Z" transform="translate(290.997 85.0752)" fill="#E5E5E3"/>
</svg>
