<svg width="21" height="25" viewBox="0 0 21 25" fill="none" xmlns="http://www.w3.org/2000/svg">
<path fill-rule="evenodd" clip-rule="evenodd" d="M19.1162 4.76521H15.719C15.338 2.03062 13.0618 0 10.3774 0C7.69295 0 5.41671 2.03062 5.03575 4.76521H1.63853C0.733595 4.76521 0 5.52016 0 6.45145V23.3138C0 24.245 0.733595 25 1.63853 25H19.1162C20.0211 25 20.7547 24.245 20.7547 23.3138V6.45145C20.7547 5.52016 20.0211 4.76521 19.1162 4.76521ZM10.3775 1.67377C12.117 1.79143 13.5918 3.03357 14.0478 4.76519H6.70715C7.16315 3.03357 8.63789 1.79143 10.3775 1.67377ZM19.1162 23.3138H1.63855V6.45145H4.91561V8.13768C4.91561 8.60332 5.28241 8.98079 5.73488 8.98079C6.18734 8.98079 6.55414 8.60332 6.55414 8.13768V6.45145H14.2006V8.13768C14.2006 8.60332 14.5674 8.98079 15.0199 8.98079C15.4723 8.98079 15.8391 8.60332 15.8391 8.13768V6.45145H19.1162V23.3138Z" fill="white"/>
</svg>
