<svg width="120" height="120" viewBox="0 0 120 120" fill="none" xmlns="http://www.w3.org/2000/svg">
<rect width="120" height="120" fill="black" fill-opacity="0" transform="translate(0 120) rotate(-90)"/>
<rect width="120" height="120" fill="black" fill-opacity="0" transform="translate(0 120) rotate(-90)"/>
<rect width="120" height="120" fill="black" fill-opacity="0" transform="translate(0 120) rotate(-90)"/>
<path d="M66.0446 59.9524C66.0446 56.6204 63.3445 53.9193 60.0139 53.9193C56.6832 53.9193 53.9832 56.6204 53.9832 59.9524C53.9832 63.2844 56.6832 65.9855 60.0139 65.9855C63.3445 65.9855 66.0446 63.2844 66.0446 59.9524Z" fill="white"/>
<path d="M23.8295 59.9522C23.8295 79.9405 40.0234 96.1484 60.0113 96.1484C79.9891 96.1484 96.1956 79.9405 96.1956 59.9522C96.1956 39.9614 79.9891 23.7535 60.0113 23.7535C40.0259 23.7535 23.8295 39.9614 23.8295 59.9522ZM34.0754 55.4594C31.4625 53.3923 31.8612 48.5432 34.9606 44.6198C38.0574 40.6989 42.6864 39.1888 45.3018 41.2633C47.9147 43.3304 47.521 48.1795 44.4167 52.1029C41.3198 56.0263 36.6908 57.5264 34.0754 55.4594ZM34.76 75.9694C31.8863 71.878 31.7634 67.0113 34.4892 65.0973C37.2199 63.1832 41.7561 64.9443 44.6298 69.0357C47.4985 73.1272 47.6163 77.9938 44.8906 79.9079C42.1573 81.8295 37.6287 80.0609 34.76 75.9694ZM68.9658 84.2076C68.9658 87.5415 64.9136 90.2407 59.9185 90.2407C54.9259 90.2407 50.8737 87.5415 50.8737 84.2076C50.8737 80.8737 54.9259 78.1745 59.9185 78.1745C64.9111 78.177 68.9658 80.8737 68.9658 84.2076ZM87.0204 64.9994C89.6358 67.0665 89.2346 71.9156 86.1352 75.839C83.0383 79.7624 78.4093 81.27 75.7939 79.1955C73.181 77.1284 73.5672 72.2793 76.6791 68.3559C79.776 64.435 84.405 62.9349 87.0204 64.9994ZM60.0113 72.0159C53.3461 72.0159 47.9498 66.615 47.9498 59.9497C47.9498 53.2844 53.3436 47.8835 60.0113 47.8835C66.6664 47.8835 72.0727 53.2844 72.0727 59.9497C72.0727 66.615 66.6689 72.0159 60.0113 72.0159ZM86.3358 44.4894C89.2095 48.5783 89.3273 53.445 86.6066 55.364C83.8734 57.2781 79.3397 55.5171 76.4635 51.4256C73.5898 47.3316 73.4744 42.465 76.2052 40.5559C78.941 38.6344 83.4646 40.4029 86.3358 44.4894ZM59.9185 30.2934C64.9136 30.2934 68.9658 32.9901 68.9658 36.324C68.9658 39.6579 64.9136 42.3571 59.9185 42.3571C54.9184 42.3571 50.8737 39.6579 50.8737 36.324C50.8737 32.9901 54.9184 30.2934 59.9185 30.2934Z" fill="white"/>
<path d="M60.6357 5.65432C57.4435 5.65432 54.9008 3.1583 54.6877 0.0225852C50.6831 0.388837 46.7487 1.01347 43.0049 2.11975C43.2532 2.77448 43.4287 3.46434 43.4287 4.20688C43.4287 7.54077 40.7305 10.2375 37.398 10.2375C34.9355 10.2375 32.8517 8.75994 31.9089 6.65525C28.5061 8.47146 25.2663 10.5636 22.2873 12.9668C23.2176 14.0279 23.8295 15.375 23.8295 16.9003C23.8295 20.2341 21.1313 22.9334 17.7988 22.9334C16.2792 22.9334 14.9251 22.3213 13.8644 21.3956C11.4496 24.293 9.20029 27.3334 7.3497 30.6573C9.32818 31.6481 10.7174 33.6424 10.7174 36.0055C10.7174 39.3419 8.02173 42.0386 4.68665 42.0386C3.94441 42.0386 3.24981 41.863 2.59784 41.6147C1.33152 45.5782 0.423777 49.7048 -2.88585e-06 53.9794C3.19214 54.1425 5.73482 56.7213 5.73482 59.9498C5.73482 63.1784 3.19214 65.7547 -2.3639e-06 65.9202C0.406225 70.0067 1.2588 73.9552 2.44488 77.7481C3.1445 77.4697 3.89928 77.2941 4.69418 77.2941C8.02675 77.2941 10.7174 79.9933 10.7174 83.3272C10.7174 85.7731 9.25797 87.8527 7.17166 88.8009C9.05485 92.2126 11.2239 95.4461 13.7089 98.4213C14.7796 97.4179 16.2065 96.7731 17.7963 96.7731C21.1288 96.7731 23.8195 99.4724 23.8195 102.806C23.8195 104.347 23.2001 105.714 22.2522 106.78C25.2914 109.228 28.5011 111.473 31.9866 113.305C32.952 111.27 34.9907 109.843 37.393 109.843C40.7255 109.843 43.4162 112.542 43.4162 115.876C43.4162 116.566 43.2331 117.2 43.0225 117.818C46.4904 118.831 50.0763 119.558 53.7699 119.937C54.1887 117.017 56.596 114.742 59.6301 114.742C62.6919 114.742 65.1067 117.047 65.5004 120C70.2422 119.551 74.811 118.558 79.1692 117.08C78.8632 116.36 78.6977 115.575 78.6977 114.747C78.6977 111.413 81.3959 108.714 84.7285 108.714C87.1182 108.714 89.1343 110.126 90.0997 112.141C92.9959 110.452 95.7417 108.533 98.3095 106.409C97.4845 105.375 96.9052 104.113 96.9052 102.683C96.9052 99.3469 99.6034 96.6502 102.936 96.6502C104.338 96.6502 105.551 97.2021 106.574 97.9948C108.846 95.2028 110.98 92.2803 112.736 89.107C110.815 88.0985 109.471 86.1493 109.471 83.8314C109.471 80.4975 112.169 77.7983 115.501 77.7983C116.183 77.7983 116.82 77.9789 117.445 78.1897C118.691 74.2537 119.586 70.1597 120 65.9202C116.82 65.7572 114.278 63.1784 114.278 59.9498C114.278 56.7639 116.763 54.2303 119.882 54.002C119.529 50.4649 118.977 46.983 118.034 43.6491C117.505 43.8047 116.973 43.9853 116.387 43.9853C113.054 43.9853 110.356 41.2861 110.356 37.9522C110.356 35.5991 111.735 33.6199 113.688 32.6265C111.828 28.9916 109.661 25.5448 107.129 22.3815C106.106 23.1942 104.857 23.7537 103.442 23.7537C100.11 23.7537 97.4118 21.0569 97.4118 17.7231C97.4118 16.2982 97.9785 15.0489 98.8035 14.0154C95.7869 11.4692 92.6073 9.11866 89.1343 7.1971C88.2265 9.35447 86.0951 10.8696 83.5975 10.8696C80.265 10.8696 77.5693 8.17042 77.5693 4.83653C77.5693 3.97609 77.7574 3.16833 78.0733 2.4258C74.3872 1.26684 70.5481 0.428966 66.5786 7.97528e-07C66.383 3.14575 63.8403 5.65432 60.6357 5.65432ZM105.24 59.9523C105.24 84.9427 84.9943 105.199 60.0113 105.199C35.0308 105.199 14.7822 84.9452 14.7822 59.9523C14.7822 34.9595 35.0283 14.7053 60.0113 14.7053C84.9943 14.7027 105.24 34.9594 105.24 59.9523Z" fill="white"/>
</svg>
