<svg width="71" height="67" viewBox="0 0 71 67" fill="none" xmlns="http://www.w3.org/2000/svg">
<path d="M35.8009 53.8318C23.6784 52.7634 12.2986 49.0408 1.88438 42.7364C0.331619 41.7964 -0.369614 39.9127 0.192238 38.1887L12.6355 0C23.2516 6.98426 34.924 11.2049 47.4051 12.5813C49.6623 12.8302 50.7912 15.4321 49.4178 17.2375C46.6222 20.9122 43.8089 24.573 40.9778 28.2204C38.692 31.1655 37.5969 34.8594 37.9068 38.5721C38.2437 42.6064 38.5918 46.6398 38.95 50.6722C39.1101 52.4735 37.6051 53.9909 35.8009 53.8318Z" transform="translate(20.4849 12.4065)" fill="url(#paint0_linear)"/>
<path d="M6.42576 4.5477C4.873 3.6077 4.17177 1.72402 4.73362 0L0.192238 13.9379C-0.369613 15.6619 0.331617 17.5454 1.88438 18.4856C8.78637 22.664 16.1126 25.7069 23.7979 27.5959L28.3393 13.658C20.6541 11.7689 13.3276 8.72607 6.42576 4.5477Z" transform="translate(20.4849 36.6572)" fill="white"/>
<path d="M1.88422 14.0753C8.33146 17.9784 16.0413 21.1791 23.7679 23.2774L27.8421 10.7733C27.8423 10.7733 27.8424 10.7733 27.8424 10.7733C19.1724 8.64208 10.9591 5.04143 3.29647 0L0.19224 9.52741C-0.369611 11.2516 0.331617 13.1351 1.88422 14.0753Z" transform="translate(29.8232 12.4065)" fill="white"/>
<path d="M14.2004 1.74406C10.9229 1.35934 7.70181 0.776973 4.54138 0L0 13.9379C3.91096 14.8992 7.91458 15.5629 12.003 15.9231C13.8072 16.0821 15.3121 14.5647 15.1522 12.7635C14.8257 9.09123 14.5091 5.41797 14.2004 1.74406Z" transform="translate(44.2827 50.3154)" fill="url(#paint1_linear)"/>
<path d="M9.56738 15.295C9.25731 11.5823 10.3524 7.88834 12.6384 4.94332C13.3751 3.99418 14.1073 3.04169 14.8415 2.09063C11.5503 1.62912 8.15753 0.920761 4.76747 0L0 14.6315C3.1606 15.4085 6.38157 15.9907 9.65907 16.3756C9.62888 16.0154 9.5974 15.6552 9.56738 15.295Z" transform="translate(48.8242 35.6841)" fill="white"/>
<path d="M6.68173 4.5477C5.12897 3.60771 4.42774 1.72402 4.98959 0L0.192258 14.7232C-0.369594 16.4472 0.331476 18.3308 1.8844 19.2709C8.78639 23.4493 16.1126 26.4923 23.7979 28.3812L28.5654 13.7497C20.839 11.6514 13.1291 8.45068 6.68173 4.5477Z" transform="translate(25.0264 21.9341)" fill="url(#paint2_linear)"/>
<path d="M16.3109 6.46441C17.6843 4.65911 16.5553 2.05713 14.2982 1.80818C10.826 1.42538 7.41631 0.821536 4.07427 0L0 12.5042C3.39006 13.4248 6.78268 14.1333 10.074 14.5948C12.1616 11.8914 14.2428 9.18293 16.3109 6.46441Z" transform="translate(53.5913 23.1802)" fill="url(#paint3_linear)"/>
<path d="M28.5647 13.7497L23.7974 28.3806C16.1131 26.4913 8.78559 23.4491 1.88376 19.2695C0.330996 18.3296 -0.369432 16.4461 0.19226 14.7227L4.98944 0C4.4279 1.72338 5.12817 3.6069 6.68093 4.54674C13.1295 8.45004 20.8385 11.6504 28.5647 13.7497Z" transform="translate(25.0264 21.9348)" fill="url(#paint4_linear)"/>
<path d="M20.1233 8.00729C20.1233 8.00729 15.3354 4.27567 2.1951 0L0.191762 6.1483C-0.372177 7.87873 0.340455 9.76193 1.89932 10.7051C5.25726 12.7369 8.71556 14.4997 12.2667 15.992C14.7511 17.036 17.5994 15.7536 18.4331 13.1946L20.1233 8.00729Z" transform="translate(20.4854 44.4468)" fill="white"/>
<path d="M37.2728 52.343C25.9015 45.4802 13.3804 41.6923 0 41.0741C4.46125 27.3827 8.92218 13.6914 13.3834 0C25.5566 0.562652 37.0185 3.74829 47.5502 9.48638C50.9867 11.3587 52.595 15.4138 51.384 19.1303C48.4403 28.1643 39.0265 57.0559 39.0265 57.0559C39.6089 55.2692 38.8834 53.3149 37.2728 52.343Z" transform="translate(0.00146484 0.250488)" fill="url(#paint5_linear)"/>
<path d="M9.93814 2.62202C8.20618 1.6785 6.44869 0.805346 4.66743 0L0 14.3242C1.78126 15.1296 3.53875 16.0026 5.27071 16.9462C8.70718 18.8185 10.3155 22.8736 9.10444 26.5902C10.9939 20.7914 12.7628 15.3623 13.7719 12.266C14.9829 8.54943 13.3746 4.49416 9.93814 2.62202Z" transform="translate(34.1289 17.8074)" fill="url(#paint6_linear)"/>
<path d="M4.66743 0L0 14.3242C4.91327 15.4737 9.68138 17.0931 14.288 19.1755L18.9554 4.85131C14.3487 2.76886 9.5807 1.14951 4.66743 0Z" transform="translate(19.8408 12.9561)" fill="url(#paint7_linear)"/>
<path d="M4.66743 0C3.11162 4.77469 1.55581 9.54953 0 14.3242C4.99436 14.555 9.86862 15.2281 14.6083 16.3373L19.2757 2.01304C14.536 0.90409 9.66163 0.230832 4.66743 0Z" transform="translate(5.23291 10.9431)" fill="white"/>
<path d="M5.23169 0L0 16.0564C4.91279 17.2058 9.68122 18.8246 14.2884 20.9061L19.5196 4.85131C14.9129 2.76886 10.1448 1.14951 5.23169 0Z" transform="translate(14.6094 27.2803)" fill="white"/>
<path d="M14.288 15.5439L17.772 4.85131C13.1657 2.76677 8.39727 1.14791 3.484 0L0 10.6925C4.91327 11.842 9.68122 13.4613 14.288 15.5439Z" transform="translate(24.5088 2.26367)" fill="white"/>
<path d="M9.90025 10.693C14.8944 10.9238 19.7689 11.597 24.5086 12.706L27.9925 2.01352C23.2529 0.904892 18.3783 0.230992 13.3836 0L0 41.0747C4.99484 41.3057 9.86974 41.978 14.6094 43.0866L19.8411 27.0302C15.1014 25.9213 10.227 25.2482 5.23282 25.0172C6.78863 20.2423 8.34444 15.4676 9.90025 10.693Z" transform="translate(0 0.25)" fill="url(#paint8_linear)"/>
<path d="M9.10861 22.9442C10.531 18.5789 11.7944 14.7011 12.588 12.2663C13.7992 8.54862 12.1905 4.49384 8.75487 2.62234C7.02258 1.6777 5.26542 0.804223 3.484 0L0 10.6926C1.78126 11.498 3.53875 12.371 5.27071 13.3147C8.70268 15.1844 10.311 19.2316 9.10861 22.9442Z" transform="translate(38.7964 7.11499)" fill="url(#paint9_linear)"/>
<path d="M10.5019 2.62202C8.76996 1.6785 7.01247 0.805346 5.23121 0L0 16.0548C2.85534 17.347 5.64839 18.8152 8.37639 20.4618C9.18023 20.9483 9.76472 21.6788 10.0742 22.5125C10.3852 23.3468 10.4203 24.2811 10.1292 25.1747C10.1292 25.1747 12.0031 19.424 14.34 12.2515C15.5424 8.539 13.9341 4.49176 10.5019 2.62202Z" transform="translate(28.8979 32.1316)" fill="url(#paint10_linear)"/>
<path d="M4.66743 0L0 14.3242C4.91327 15.4737 9.68138 17.0931 14.288 19.1755L18.9554 4.85131C14.3487 2.76886 9.5807 1.14951 4.66743 0Z" transform="translate(19.8408 12.9561)" fill="url(#paint11_linear)"/>
<path d="M11.2361 11.9973C7.56565 11.3048 3.81783 10.8691 0 10.6923L3.484 0C3.79696 0.014427 4.10719 0.0304572 4.41886 0.048571C4.66872 0.0654025 4.91905 0.0804702 5.16891 0.0973017L5.17019 0.0997067L11.2361 11.9973Z" transform="translate(9.90039 0.25)" fill="url(#paint12_linear)"/>
<path d="M10.6564 14.0435C7.18958 12.6816 3.63349 11.5746 0 10.7241L3.49427 0L10.6564 14.0435Z" transform="translate(19.8418 16.5566)" fill="url(#paint13_linear)"/>
<path d="M4.66743 0.014106C4.66903 0.00945727 4.67016 0.00464869 4.67177 0C3.17119 4.60525 1.49382 9.75327 0.00433192 14.3242C0.00288674 14.3289 0.00160575 14.3337 0 14.3383C1.88965 8.53949 3.65854 3.11029 4.66743 0.014106Z" transform="translate(43.2334 30.0591)" fill="url(#paint14_linear)"/>
<path d="M9.93814 2.62202C8.20618 1.6785 6.44869 0.805346 4.66743 0L0 14.3242C1.78126 15.1296 3.53875 16.0026 5.27071 16.9462C8.70284 18.8161 10.3112 22.8632 9.10877 26.5759C10.5981 22.005 12.2755 16.857 13.7762 12.2517C14.9784 8.53901 13.3701 4.49176 9.93814 2.62202Z" transform="translate(34.1289 17.8074)" fill="white"/>
<defs>
<linearGradient id="paint0_linear" x2="1" gradientUnits="userSpaceOnUse" gradientTransform="translate(24.2931 38.2701) scale(19.5535 -19.52) rotate(-18.0182)">
<stop stop-color="#E2EDF2"/>
<stop offset="1" stop-color="#9FC7E2"/>
</linearGradient>
<linearGradient id="paint1_linear" x2="1" gradientUnits="userSpaceOnUse" gradientTransform="translate(9.03114 12.0472) scale(6.81775 -6.80607) rotate(-18.0151)">
<stop stop-color="#23CF5F"/>
<stop offset="1" stop-color="#23CF5F"/>
</linearGradient>
<linearGradient id="paint2_linear" x2="1" gradientUnits="userSpaceOnUse" gradientTransform="translate(13.9181 20.8315) scale(12.7373 -12.7154) rotate(-18.0176)">
<stop stop-color="#654E48"/>
<stop offset="1" stop-color="#503837"/>
</linearGradient>
<linearGradient id="paint3_linear" x2="1" gradientUnits="userSpaceOnUse" gradientTransform="translate(8.82328 11.2463) scale(6.81775 -6.80607) rotate(-18.0151)">
<stop stop-color="#23CF5F"/>
<stop offset="1" stop-color="#23CF5F"/>
</linearGradient>
<linearGradient id="paint4_linear" x2="1" gradientUnits="userSpaceOnUse" gradientTransform="translate(14.9059 21.8692) scale(11.5178 -13.2348) rotate(-18.0151)">
<stop stop-color="#23CF5F"/>
<stop offset="1" stop-color="#23CF5F"/>
</linearGradient>
<linearGradient id="paint5_linear" x2="1" gradientUnits="userSpaceOnUse" gradientTransform="translate(25.9497 37.4765) scale(20.0806 -20.0462) rotate(-18.0175)">
<stop stop-color="#E2EDF2"/>
<stop offset="1" stop-color="#9FC7E2"/>
</linearGradient>
<linearGradient id="paint6_linear" x2="1" gradientUnits="userSpaceOnUse" gradientTransform="translate(-7.89164 19.0381) scale(20.0806 -20.0462) rotate(-18.0175)">
<stop stop-color="#E2EDF2"/>
<stop offset="1" stop-color="#9FC7E2"/>
</linearGradient>
<linearGradient id="paint7_linear" x2="1" gradientUnits="userSpaceOnUse" gradientTransform="translate(9.2697 13.159) scale(7.20417 -7.19182) rotate(-18.0134)">
<stop stop-color="#E2EDF2"/>
<stop offset="1" stop-color="#9FC7E2"/>
</linearGradient>
<linearGradient id="paint8_linear" x2="1" gradientUnits="userSpaceOnUse" gradientTransform="translate(18.7548 0.546037) scale(-27.513 27.4658) rotate(37.6185)">
<stop stop-color="#23CF5F"/>
<stop offset="1" stop-color="#23CF5F"/>
</linearGradient>
<linearGradient id="paint9_linear" x2="1" gradientUnits="userSpaceOnUse" gradientTransform="translate(6.77781 17.6801) scale(5.23721 -10.6997) rotate(-18.0151)">
<stop stop-color="#23CF5F"/>
<stop offset="1" stop-color="#23CF5F"/>
</linearGradient>
<linearGradient id="paint10_linear" x2="1" gradientUnits="userSpaceOnUse" gradientTransform="translate(7.68966 19.3989) scale(5.9418 -11.7399) rotate(-18.0151)">
<stop stop-color="#23CF5F"/>
<stop offset="1" stop-color="#23CF5F"/>
</linearGradient>
<linearGradient id="paint11_linear" x2="1" gradientUnits="userSpaceOnUse" gradientTransform="translate(9.89146 14.7761) scale(7.64313 -8.94222) rotate(-18.0151)">
<stop stop-color="#23CF5F"/>
<stop offset="1" stop-color="#23CF5F"/>
</linearGradient>
<linearGradient id="paint12_linear" x2="1" gradientUnits="userSpaceOnUse" gradientTransform="translate(57.9959 43.3029) scale(-64.3013 64.1911) rotate(-63.0164)">
<stop stop-color="#23CF5F"/>
<stop offset="1" stop-color="#23CF5F"/>
</linearGradient>
<linearGradient id="paint13_linear" x2="1" gradientUnits="userSpaceOnUse" gradientTransform="translate(5.56081 10.8215) scale(4.29684 -6.54899) rotate(-18.0151)">
<stop stop-color="#23CF5F"/>
<stop offset="1" stop-color="#23CF5F"/>
</linearGradient>
<linearGradient id="paint14_linear" x2="1" gradientUnits="userSpaceOnUse" gradientTransform="translate(0.673309 8.01769) scale(2.6427 -2.63817) rotate(-18.0149)">
<stop stop-color="#E2EDF2"/>
<stop offset="1" stop-color="#9FC7E2"/>
</linearGradient>
</defs>
</svg>
