<svg width="69" height="71" viewBox="0 0 69 71" fill="none" xmlns="http://www.w3.org/2000/svg">
<path d="M0.0744359 55.2457L6.20157e-06 23.5457C-0.00361348 21.9859 1.57796 20.9315 3.0014 21.5445L31.6428 33.8808C32.4343 34.2217 32.9484 35.0044 32.9504 35.8716L33.0249 67.5716C33.0285 69.1315 31.4469 70.186 30.0235 69.573L1.38205 57.2367C0.59058 56.8958 0.0763589 56.113 0.0744359 55.2457ZM65.6977 25.0378L39.2669 36.5712L39.3357 65.9079L65.7666 54.3745L65.6977 25.0378ZM66.7672 21.2134C67.9032 21.2106 68.9227 22.1314 68.9256 23.3814L69 55.0814C69.002 55.9486 68.4915 56.7339 67.7017 57.0785L39.1186 69.5512C38.8366 69.6742 38.5477 69.7316 38.2664 69.7324C37.1303 69.735 36.1106 68.8144 36.1078 67.5644L36.0334 35.8644C36.0312 34.9972 36.5418 34.2118 37.3318 33.8672L65.9149 21.3947C66.1969 21.2715 66.4857 21.2141 66.7672 21.2134ZM34.291 3.35826L6.87356 15.6927L34.3485 27.8961L61.7661 15.5618L34.291 3.35826ZM34.2832 5.64622e-06C34.5809 -0.000678177 34.8788 0.0607519 35.1573 0.18441L65.2915 13.569C67.0009 14.3284 67.0067 16.7702 65.3008 17.5376L35.2297 31.0657C34.9519 31.1908 34.6542 31.2536 34.3563 31.2544C34.0586 31.255 33.7607 31.1936 33.4822 31.07L3.3481 17.6854C1.63859 16.9261 1.63294 14.4842 3.33871 13.7168L33.4097 0.188627C33.6876 0.0636012 33.9852 0.000689469 34.2832 5.64622e-06Z" transform="translate(0 0.75)" fill="#36BED2"/>
<path d="M0.0744359 55.2457L6.20157e-06 23.5457C-0.00361348 21.9859 1.57796 20.9315 3.0014 21.5445L31.6428 33.8808C32.4343 34.2217 32.9484 35.0044 32.9504 35.8716L33.0249 67.5716C33.0285 69.1315 31.4469 70.186 30.0235 69.573L1.38205 57.2367C0.59058 56.8958 0.0763589 56.113 0.0744359 55.2457ZM65.6977 25.0378L39.2669 36.5712L39.3357 65.9079L65.7666 54.3745L65.6977 25.0378ZM66.7672 21.2134C67.9032 21.2106 68.9227 22.1314 68.9256 23.3814L69 55.0814C69.002 55.9486 68.4915 56.7339 67.7017 57.0785L39.1186 69.5512C38.8366 69.6742 38.5477 69.7316 38.2664 69.7324C37.1303 69.735 36.1106 68.8144 36.1078 67.5644L36.0334 35.8644C36.0312 34.9972 36.5418 34.2118 37.3318 33.8672L65.9149 21.3947C66.1969 21.2715 66.4857 21.2141 66.7672 21.2134ZM34.291 3.35826L6.87356 15.6927L34.3485 27.8961L61.7661 15.5618L34.291 3.35826ZM34.2832 5.64622e-06C34.5809 -0.000678177 34.8788 0.0607519 35.1573 0.18441L65.2915 13.569C67.0009 14.3284 67.0067 16.7702 65.3008 17.5376L35.2297 31.0657C34.9519 31.1908 34.6542 31.2536 34.3563 31.2544C34.0586 31.255 33.7607 31.1936 33.4822 31.07L3.3481 17.6854C1.63859 16.9261 1.63294 14.4842 3.33871 13.7168L33.4097 0.188627C33.6876 0.0636012 33.9852 0.000689469 34.2832 5.64622e-06Z" transform="translate(0 0.75)" fill="url(#paint0_linear)"/>
<defs>
<linearGradient id="paint0_linear" x2="1" gradientUnits="userSpaceOnUse" gradientTransform="translate(69) scale(69 69.75) rotate(90)">
<stop stop-color="white" stop-opacity="0.24"/>
<stop offset="1" stop-color="white" stop-opacity="0"/>
</linearGradient>
</defs>
</svg>
